M48
;Layer_Color=9474304
;FILE_FORMAT=4:3
METRIC
;TYPE=PLATED
T1F00S00C0.800
T2F00S00C1.000
T3F00S00C1.200
T4F00S00C3.500
%
T01
X0015460Y0002500
X0018000
X0020540
X0023080
X0015400Y0005400
X0010400
X0011500Y0002500
X0009000
X0004500Y0010000
Y0012500
Y0015000
Y0018000
Y0033000
T02
X0017900Y0023400
X0007900
X0009700Y0050000
X0023300
T03
X0023400Y0010000
Y0013810
Y0017620
Y0021430
Y0025240
Y0029050
Y0032860
Y0036670
X0006500Y0037500
Y0042500
X0023400Y0044290
Y0040480
T04
X0029000Y0004000
X0004000Y0004000
Y0050000
X0029000
M30
