G04 Layer_Color=16711935*
%FSAX43Y43*%
%MOMM*%
G71*
G01*
G75*
%ADD36C,7.203*%
%ADD37C,2.203*%
%ADD38R,2.203X2.203*%
%ADD39R,1.703X1.703*%
%ADD40C,1.703*%
%ADD41O,2.703X2.203*%
%ADD42O,2.703X1.703*%
%ADD43R,1.103X1.503*%
%ADD44R,1.723X0.803*%
%ADD45O,1.723X0.803*%
%ADD46R,1.503X1.103*%
%ADD47O,1.803X0.703*%
%ADD48O,0.703X1.803*%
%ADD49R,0.703X1.803*%
%ADD50R,2.203X1.883*%
%ADD51R,1.883X2.203*%
%ADD52R,0.803X1.303*%
%ADD53R,2.203X1.453*%
D36*
X0004000Y0050000D02*
D03*
X0029000D02*
D03*
Y0004000D02*
D03*
X0004000Y0004000D02*
D03*
D37*
X0007900Y0023400D02*
D03*
X0017900D02*
D03*
X0010400Y0005400D02*
D03*
X0023300Y0050000D02*
D03*
X0004500Y0018000D02*
D03*
Y0033000D02*
D03*
D38*
X0015400Y0005400D02*
D03*
X0009700Y0050000D02*
D03*
D39*
X0009000Y0002500D02*
D03*
X0023080D02*
D03*
D40*
X0011500D02*
D03*
X0020540D02*
D03*
X0015460D02*
D03*
X0018000D02*
D03*
D41*
X0023400Y0044290D02*
D03*
Y0040480D02*
D03*
Y0036670D02*
D03*
Y0032860D02*
D03*
Y0029050D02*
D03*
Y0025240D02*
D03*
Y0021430D02*
D03*
Y0017620D02*
D03*
Y0013810D02*
D03*
Y0010000D02*
D03*
X0006500Y0042500D02*
D03*
Y0037500D02*
D03*
D42*
X0004500Y0010000D02*
D03*
Y0012500D02*
D03*
Y0015000D02*
D03*
D43*
X0003500Y0030400D02*
D03*
X0005500D02*
D03*
X0012500Y0028000D02*
D03*
X0010500D02*
D03*
X0014600Y0008200D02*
D03*
X0016600D02*
D03*
X0007000Y0021100D02*
D03*
X0009000D02*
D03*
X0020100Y0010000D02*
D03*
X0018100D02*
D03*
X0016600D02*
D03*
X0014600D02*
D03*
D44*
X0015100Y0036660D02*
D03*
X0014500Y0027730D02*
D03*
D45*
X0015100Y0037930D02*
D03*
Y0039200D02*
D03*
Y0040470D02*
D03*
X0020600Y0036660D02*
D03*
Y0037930D02*
D03*
Y0039200D02*
D03*
Y0040470D02*
D03*
X0014500Y0029000D02*
D03*
Y0030270D02*
D03*
Y0031540D02*
D03*
X0020000Y0027730D02*
D03*
Y0029000D02*
D03*
Y0030270D02*
D03*
Y0031540D02*
D03*
D46*
X0012900Y0042500D02*
D03*
Y0040500D02*
D03*
X0010800Y0040500D02*
D03*
Y0042500D02*
D03*
X0012900Y0038900D02*
D03*
Y0036900D02*
D03*
X0010800D02*
D03*
Y0038900D02*
D03*
X0012900Y0035300D02*
D03*
Y0033300D02*
D03*
X0010800D02*
D03*
Y0035300D02*
D03*
Y0031800D02*
D03*
Y0029800D02*
D03*
X0002000Y0011500D02*
D03*
Y0013500D02*
D03*
X0013400Y0001500D02*
D03*
Y0003500D02*
D03*
X0007000Y0009700D02*
D03*
Y0011700D02*
D03*
Y0015300D02*
D03*
Y0013300D02*
D03*
X0007200Y0028300D02*
D03*
Y0026300D02*
D03*
X0007000Y0018700D02*
D03*
Y0016700D02*
D03*
X0013000Y0010200D02*
D03*
Y0008200D02*
D03*
D47*
X0019450Y0013875D02*
D03*
Y0014675D02*
D03*
Y0015475D02*
D03*
Y0016275D02*
D03*
Y0017075D02*
D03*
Y0017875D02*
D03*
Y0018675D02*
D03*
Y0019475D02*
D03*
X0010575Y0019475D02*
D03*
Y0018675D02*
D03*
Y0017875D02*
D03*
Y0017075D02*
D03*
Y0016275D02*
D03*
Y0015475D02*
D03*
Y0014675D02*
D03*
Y0013875D02*
D03*
D48*
X0017800Y0021100D02*
D03*
X0017000D02*
D03*
X0016200D02*
D03*
X0015400D02*
D03*
X0014600D02*
D03*
X0013800D02*
D03*
X0013000D02*
D03*
X0012200D02*
D03*
Y0012250D02*
D03*
X0013000D02*
D03*
X0013800D02*
D03*
X0014600D02*
D03*
X0015400D02*
D03*
X0016200D02*
D03*
X0017000D02*
D03*
D49*
X0017800D02*
D03*
D50*
X0023400Y0006900D02*
D03*
X0019000D02*
D03*
D51*
X0026900Y0021500D02*
D03*
Y0017100D02*
D03*
Y0029100D02*
D03*
Y0024700D02*
D03*
Y0036700D02*
D03*
Y0032300D02*
D03*
Y0039900D02*
D03*
Y0044300D02*
D03*
D52*
X0003500Y0028500D02*
D03*
X0005400D02*
D03*
X0004450Y0026200D02*
D03*
D53*
X0004000Y0020125D02*
D03*
Y0023875D02*
D03*
M02*
