G04 Layer_Color=65535*
%FSAX43Y43*%
%MOMM*%
G71*
G01*
G75*
%ADD32C,0.254*%
%ADD33C,0.200*%
%ADD34C,0.150*%
%ADD35R,1.500X3.600*%
G36*
X0019079Y0031679D02*
X0016600D01*
Y0044800D01*
X0019079D01*
Y0031679D01*
D02*
G37*
%LPC*%
G36*
X0017193Y0038461D02*
X0017154D01*
X0017123Y0038459D01*
X0017093Y0038453D01*
X0017068Y0038448D01*
X0017049Y0038439D01*
X0017032Y0038434D01*
X0017021Y0038431D01*
X0017018Y0038428D01*
X0016990Y0038412D01*
X0016965Y0038389D01*
X0016946Y0038367D01*
X0016929Y0038342D01*
X0016915Y0038320D01*
X0016904Y0038303D01*
X0016899Y0038292D01*
X0016896Y0038287D01*
X0016882Y0038245D01*
X0016871Y0038203D01*
X0016865Y0038162D01*
X0016860Y0038120D01*
X0016857Y0038084D01*
X0016854Y0038056D01*
Y0038045D01*
Y0038037D01*
Y0038034D01*
Y0038031D01*
X0016857Y0037973D01*
X0016862Y0037920D01*
X0016868Y0037873D01*
X0016876Y0037834D01*
X0016885Y0037801D01*
X0016893Y0037776D01*
X0016896Y0037759D01*
X0016899Y0037754D01*
X0016918Y0037709D01*
X0016937Y0037667D01*
X0016960Y0037631D01*
X0016982Y0037598D01*
X0017001Y0037570D01*
X0017018Y0037551D01*
X0017029Y0037540D01*
X0017032Y0037534D01*
X0017065Y0037498D01*
X0017096Y0037470D01*
X0017126Y0037445D01*
X0017151Y0037423D01*
X0017171Y0037409D01*
X0017187Y0037398D01*
X0017198Y0037393D01*
X0017201Y0037390D01*
X0017235Y0037373D01*
X0017271Y0037354D01*
X0017309Y0037337D01*
X0017346Y0037323D01*
X0017379Y0037312D01*
X0017404Y0037301D01*
X0017415Y0037298D01*
X0017423Y0037295D01*
X0017426Y0037293D01*
X0017429D01*
X0017548Y0037254D01*
Y0037715D01*
X0017337Y0037787D01*
X0017296Y0037801D01*
X0017262Y0037815D01*
X0017235Y0037826D01*
X0017212Y0037837D01*
X0017196Y0037845D01*
X0017185Y0037854D01*
X0017179Y0037856D01*
X0017176Y0037859D01*
X0017162Y0037870D01*
X0017154Y0037884D01*
X0017143Y0037915D01*
X0017140Y0037926D01*
X0017137Y0037937D01*
Y0037942D01*
Y0037945D01*
X0017140Y0037959D01*
X0017143Y0037970D01*
X0017154Y0037984D01*
X0017162Y0037990D01*
X0017168Y0037992D01*
X0017182D01*
X0017201Y0037990D01*
X0017226Y0037984D01*
X0017248Y0037978D01*
X0017271Y0037970D01*
X0017290Y0037965D01*
X0017301Y0037962D01*
X0017307Y0037959D01*
X0017651Y0037842D01*
Y0037218D01*
X0017862Y0037148D01*
X0017942Y0037123D01*
X0018015Y0037104D01*
X0018076Y0037090D01*
X0018128Y0037084D01*
X0018167Y0037079D01*
X0018220D01*
X0018264Y0037087D01*
X0018306Y0037101D01*
X0018342Y0037121D01*
X0018370Y0037140D01*
X0018395Y0037159D01*
X0018412Y0037179D01*
X0018423Y0037190D01*
X0018426Y0037196D01*
X0018450Y0037240D01*
X0018470Y0037287D01*
X0018484Y0037340D01*
X0018495Y0037390D01*
X0018500Y0037434D01*
Y0037454D01*
X0018503Y0037470D01*
Y0037484D01*
Y0037495D01*
Y0037501D01*
Y0037504D01*
X0018500Y0037565D01*
X0018492Y0037623D01*
X0018481Y0037676D01*
X0018470Y0037723D01*
X0018459Y0037765D01*
X0018448Y0037795D01*
X0018442Y0037806D01*
X0018439Y0037815D01*
X0018437Y0037817D01*
Y0037820D01*
X0018412Y0037873D01*
X0018381Y0037923D01*
X0018351Y0037965D01*
X0018320Y0038001D01*
X0018292Y0038028D01*
X0018270Y0038051D01*
X0018256Y0038062D01*
X0018253Y0038067D01*
X0018251D01*
X0018203Y0038103D01*
X0018148Y0038134D01*
X0018095Y0038164D01*
X0018042Y0038189D01*
X0017995Y0038209D01*
X0017976Y0038217D01*
X0017956Y0038223D01*
X0017942Y0038228D01*
X0017931Y0038234D01*
X0017926Y0038237D01*
X0017923D01*
X0017459Y0038395D01*
X0017396Y0038414D01*
X0017343Y0038431D01*
X0017296Y0038442D01*
X0017257Y0038450D01*
X0017226Y0038456D01*
X0017204Y0038459D01*
X0017193Y0038461D01*
D02*
G37*
G36*
X0016882Y0039455D02*
Y0038970D01*
X0017509Y0038759D01*
X0017551Y0038745D01*
X0017587Y0038731D01*
X0017623Y0038717D01*
X0017654Y0038706D01*
X0017679Y0038695D01*
X0017704Y0038686D01*
X0017726Y0038678D01*
X0017743Y0038670D01*
X0017770Y0038659D01*
X0017790Y0038647D01*
X0017801Y0038645D01*
X0017804Y0038642D01*
X0017829Y0038628D01*
X0017848Y0038609D01*
X0017865Y0038592D01*
X0017881Y0038575D01*
X0017892Y0038559D01*
X0017901Y0038545D01*
X0017904Y0038536D01*
X0017906Y0038534D01*
X0017917Y0038503D01*
X0017929Y0038470D01*
X0017934Y0038434D01*
X0017937Y0038400D01*
X0017940Y0038373D01*
X0017942Y0038348D01*
Y0038331D01*
Y0038328D01*
Y0038325D01*
X0018503Y0038134D01*
X0018498Y0038173D01*
X0018489Y0038209D01*
X0018475Y0038245D01*
X0018459Y0038281D01*
X0018420Y0038345D01*
X0018378Y0038403D01*
X0018356Y0038428D01*
X0018334Y0038450D01*
X0018314Y0038473D01*
X0018298Y0038489D01*
X0018284Y0038500D01*
X0018273Y0038511D01*
X0018264Y0038517D01*
X0018262Y0038520D01*
X0018473Y0038434D01*
Y0038917D01*
X0016882Y0039455D01*
D02*
G37*
G36*
X0017107Y0037234D02*
X0017085D01*
X0017071Y0037232D01*
X0017065D01*
X0017032Y0037221D01*
X0017001Y0037204D01*
X0016974Y0037184D01*
X0016951Y0037162D01*
X0016935Y0037140D01*
X0016921Y0037121D01*
X0016912Y0037109D01*
X0016910Y0037104D01*
X0016890Y0037060D01*
X0016876Y0037010D01*
X0016868Y0036962D01*
X0016862Y0036912D01*
X0016857Y0036871D01*
Y0036854D01*
X0016854Y0036837D01*
Y0036824D01*
Y0036815D01*
Y0036810D01*
Y0036807D01*
X0016857Y0036746D01*
X0016862Y0036690D01*
X0016871Y0036638D01*
X0016882Y0036593D01*
X0016890Y0036557D01*
X0016899Y0036529D01*
X0016901Y0036518D01*
X0016904Y0036510D01*
X0016907Y0036507D01*
Y0036504D01*
X0016929Y0036457D01*
X0016951Y0036413D01*
X0016976Y0036374D01*
X0017001Y0036343D01*
X0017024Y0036318D01*
X0017040Y0036299D01*
X0017051Y0036288D01*
X0017057Y0036285D01*
X0017098Y0036254D01*
X0017146Y0036227D01*
X0017193Y0036202D01*
X0017243Y0036179D01*
X0017284Y0036160D01*
X0017304Y0036152D01*
X0017321Y0036146D01*
X0017332Y0036141D01*
X0017343Y0036138D01*
X0017348Y0036135D01*
X0017351D01*
X0017412Y0036118D01*
X0017465Y0036107D01*
X0017512Y0036102D01*
X0017579D01*
X0017598Y0036104D01*
X0017612Y0036107D01*
X0017615Y0036110D01*
X0017632Y0036118D01*
X0017651Y0036129D01*
X0017684Y0036157D01*
X0017718Y0036193D01*
X0017745Y0036229D01*
X0017773Y0036263D01*
X0017793Y0036293D01*
X0017798Y0036304D01*
X0017804Y0036313D01*
X0017809Y0036318D01*
Y0036321D01*
X0017837Y0036365D01*
X0017862Y0036404D01*
X0017881Y0036435D01*
X0017898Y0036457D01*
X0017912Y0036474D01*
X0017920Y0036485D01*
X0017926Y0036490D01*
X0017929Y0036493D01*
X0017942Y0036504D01*
X0017959Y0036513D01*
X0017981Y0036524D01*
X0017998Y0036529D01*
X0018004D01*
X0018017Y0036526D01*
X0018034Y0036524D01*
X0018070Y0036515D01*
X0018087Y0036510D01*
X0018101Y0036504D01*
X0018109Y0036501D01*
X0018112D01*
X0018148Y0036485D01*
X0018173Y0036471D01*
X0018187Y0036460D01*
X0018192Y0036454D01*
X0018209Y0036429D01*
X0018217Y0036407D01*
X0018220Y0036388D01*
Y0036385D01*
Y0036382D01*
Y0036365D01*
X0018215Y0036352D01*
X0018212Y0036343D01*
X0018206Y0036338D01*
X0018195Y0036329D01*
X0018176D01*
X0018156Y0036332D01*
X0018131Y0036338D01*
X0018109Y0036346D01*
X0018087Y0036352D01*
X0018067Y0036357D01*
X0018056Y0036360D01*
X0018051Y0036363D01*
X0017965Y0036393D01*
Y0035963D01*
X0018056Y0035932D01*
X0018098Y0035918D01*
X0018134Y0035907D01*
X0018165Y0035899D01*
X0018190Y0035893D01*
X0018206Y0035888D01*
X0018220D01*
X0018228Y0035885D01*
X0018276D01*
X0018314Y0035896D01*
X0018331Y0035905D01*
X0018342Y0035910D01*
X0018351Y0035913D01*
X0018353Y0035916D01*
X0018378Y0035932D01*
X0018398Y0035952D01*
X0018417Y0035974D01*
X0018434Y0035996D01*
X0018445Y0036016D01*
X0018453Y0036032D01*
X0018459Y0036043D01*
X0018462Y0036049D01*
X0018475Y0036088D01*
X0018487Y0036129D01*
X0018492Y0036171D01*
X0018498Y0036213D01*
X0018500Y0036249D01*
X0018503Y0036279D01*
Y0036288D01*
Y0036296D01*
Y0036302D01*
Y0036304D01*
X0018500Y0036363D01*
X0018495Y0036418D01*
X0018487Y0036471D01*
X0018478Y0036515D01*
X0018470Y0036551D01*
X0018462Y0036579D01*
X0018459Y0036590D01*
X0018456Y0036599D01*
X0018453Y0036601D01*
Y0036604D01*
X0018434Y0036651D01*
X0018409Y0036696D01*
X0018387Y0036732D01*
X0018364Y0036762D01*
X0018342Y0036787D01*
X0018326Y0036807D01*
X0018314Y0036818D01*
X0018312Y0036821D01*
X0018276Y0036851D01*
X0018231Y0036876D01*
X0018184Y0036901D01*
X0018140Y0036923D01*
X0018098Y0036943D01*
X0018062Y0036957D01*
X0018051Y0036962D01*
X0018040Y0036965D01*
X0018034Y0036968D01*
X0018031D01*
X0017984Y0036982D01*
X0017940Y0036990D01*
X0017901Y0036996D01*
X0017867Y0036998D01*
X0017840Y0037001D01*
X0017818Y0036998D01*
X0017801D01*
X0017781Y0036993D01*
X0017765Y0036987D01*
X0017726Y0036962D01*
X0017690Y0036935D01*
X0017654Y0036901D01*
X0017626Y0036868D01*
X0017601Y0036840D01*
X0017593Y0036829D01*
X0017587Y0036821D01*
X0017584Y0036815D01*
X0017582Y0036812D01*
X0017557Y0036776D01*
X0017534Y0036743D01*
X0017515Y0036715D01*
X0017495Y0036690D01*
X0017482Y0036668D01*
X0017468Y0036649D01*
X0017454Y0036635D01*
X0017445Y0036621D01*
X0017429Y0036604D01*
X0017421Y0036593D01*
X0017415Y0036588D01*
X0017412D01*
X0017398Y0036585D01*
X0017379D01*
X0017357Y0036588D01*
X0017332Y0036593D01*
X0017309Y0036599D01*
X0017290Y0036604D01*
X0017276Y0036607D01*
X0017271Y0036610D01*
X0017243Y0036621D01*
X0017218Y0036629D01*
X0017201Y0036640D01*
X0017185Y0036649D01*
X0017173Y0036657D01*
X0017168Y0036663D01*
X0017162Y0036665D01*
Y0036668D01*
X0017148Y0036693D01*
X0017140Y0036718D01*
Y0036729D01*
X0017137Y0036737D01*
Y0036743D01*
Y0036746D01*
X0017140Y0036762D01*
X0017143Y0036776D01*
X0017148Y0036785D01*
X0017157Y0036790D01*
X0017168Y0036799D01*
X0017193D01*
X0017215Y0036793D01*
X0017243Y0036787D01*
X0017271Y0036779D01*
X0017298Y0036771D01*
X0017321Y0036762D01*
X0017334Y0036760D01*
X0017340Y0036757D01*
X0017443Y0036724D01*
Y0037154D01*
X0017365Y0037179D01*
X0017296Y0037201D01*
X0017235Y0037215D01*
X0017182Y0037226D01*
X0017140Y0037232D01*
X0017107Y0037234D01*
D02*
G37*
G36*
X0017057Y0035166D02*
X0017032D01*
X0017010Y0035163D01*
X0016990Y0035161D01*
X0016974Y0035155D01*
X0016960Y0035152D01*
X0016937Y0035141D01*
X0016926Y0035133D01*
X0016924Y0035130D01*
X0016901Y0035097D01*
X0016885Y0035063D01*
X0016871Y0035027D01*
X0016862Y0034994D01*
X0016857Y0034966D01*
X0016854Y0034941D01*
Y0034927D01*
Y0034922D01*
X0016857Y0034886D01*
X0016860Y0034850D01*
X0016868Y0034819D01*
X0016876Y0034791D01*
X0016882Y0034769D01*
X0016890Y0034752D01*
X0016893Y0034741D01*
X0016896Y0034739D01*
X0016912Y0034708D01*
X0016935Y0034678D01*
X0016954Y0034650D01*
X0016976Y0034628D01*
X0016993Y0034608D01*
X0017010Y0034594D01*
X0017021Y0034583D01*
X0017024Y0034580D01*
X0016882Y0034628D01*
Y0034156D01*
X0017679Y0033886D01*
X0017751Y0033861D01*
X0017815Y0033842D01*
X0017873Y0033822D01*
X0017929Y0033806D01*
X0017976Y0033789D01*
X0018017Y0033778D01*
X0018056Y0033767D01*
X0018090Y0033759D01*
X0018117Y0033753D01*
X0018140Y0033745D01*
X0018159Y0033742D01*
X0018176Y0033739D01*
X0018187Y0033736D01*
X0018195Y0033734D01*
X0018201D01*
X0018248Y0033731D01*
X0018287Y0033736D01*
X0018326Y0033750D01*
X0018356Y0033764D01*
X0018381Y0033781D01*
X0018398Y0033797D01*
X0018412Y0033806D01*
X0018414Y0033811D01*
X0018431Y0033831D01*
X0018445Y0033853D01*
X0018467Y0033906D01*
X0018481Y0033961D01*
X0018492Y0034017D01*
X0018498Y0034070D01*
X0018500Y0034092D01*
X0018503Y0034114D01*
Y0034131D01*
Y0034142D01*
Y0034150D01*
Y0034153D01*
X0018500Y0034228D01*
X0018492Y0034294D01*
X0018478Y0034358D01*
X0018464Y0034411D01*
X0018450Y0034453D01*
X0018445Y0034472D01*
X0018437Y0034486D01*
X0018434Y0034497D01*
X0018428Y0034505D01*
X0018426Y0034511D01*
Y0034514D01*
X0018395Y0034566D01*
X0018364Y0034614D01*
X0018334Y0034653D01*
X0018309Y0034686D01*
X0018284Y0034711D01*
X0018264Y0034730D01*
X0018253Y0034741D01*
X0018248Y0034744D01*
X0018206Y0034772D01*
X0018162Y0034797D01*
X0018115Y0034822D01*
X0018067Y0034841D01*
X0018026Y0034858D01*
X0017992Y0034872D01*
X0017979Y0034877D01*
X0017970Y0034880D01*
X0017965Y0034883D01*
X0017962D01*
X0017856Y0034919D01*
Y0034464D01*
X0018023Y0034408D01*
X0018067Y0034392D01*
X0018106Y0034378D01*
X0018134Y0034367D01*
X0018156Y0034355D01*
X0018170Y0034347D01*
X0018181Y0034342D01*
X0018184Y0034339D01*
X0018187D01*
X0018198Y0034330D01*
X0018206Y0034319D01*
X0018217Y0034294D01*
Y0034283D01*
X0018220Y0034275D01*
Y0034269D01*
Y0034267D01*
X0018217Y0034253D01*
X0018215Y0034242D01*
X0018201Y0034228D01*
X0018187Y0034222D01*
X0018184Y0034219D01*
X0018162D01*
X0018140Y0034222D01*
X0018112Y0034228D01*
X0018084Y0034236D01*
X0018059Y0034242D01*
X0018037Y0034250D01*
X0018023Y0034253D01*
X0018020Y0034256D01*
X0018017D01*
X0017984Y0034267D01*
X0017954Y0034278D01*
X0017931Y0034289D01*
X0017915Y0034297D01*
X0017901Y0034306D01*
X0017890Y0034311D01*
X0017887Y0034317D01*
X0017884D01*
X0017879Y0034325D01*
X0017870Y0034336D01*
X0017862Y0034355D01*
X0017851Y0034375D01*
X0017831Y0034425D01*
X0017809Y0034478D01*
X0017790Y0034528D01*
X0017781Y0034553D01*
X0017776Y0034572D01*
X0017768Y0034591D01*
X0017765Y0034605D01*
X0017759Y0034614D01*
Y0034616D01*
X0017743Y0034661D01*
X0017729Y0034702D01*
X0017715Y0034741D01*
X0017701Y0034775D01*
X0017687Y0034805D01*
X0017673Y0034833D01*
X0017662Y0034855D01*
X0017651Y0034877D01*
X0017643Y0034894D01*
X0017634Y0034908D01*
X0017620Y0034930D01*
X0017612Y0034944D01*
X0017609Y0034947D01*
X0017582Y0034975D01*
X0017545Y0035002D01*
X0017504Y0035025D01*
X0017465Y0035044D01*
X0017426Y0035063D01*
X0017396Y0035075D01*
X0017384Y0035080D01*
X0017376Y0035083D01*
X0017371Y0035086D01*
X0017368D01*
X0017237Y0035130D01*
X0017193Y0035144D01*
X0017154Y0035152D01*
X0017118Y0035161D01*
X0017087Y0035163D01*
X0017057Y0035166D01*
D02*
G37*
G36*
X0016882Y0036149D02*
Y0035335D01*
X0017271Y0035205D01*
Y0035513D01*
X0018825Y0034986D01*
Y0035491D01*
X0016882Y0036149D01*
D02*
G37*
G36*
X0017073Y0041338D02*
X0017026D01*
X0017007Y0041332D01*
X0016990Y0041327D01*
X0016976Y0041321D01*
X0016965Y0041315D01*
X0016960Y0041313D01*
X0016957Y0041310D01*
X0016940Y0041296D01*
X0016926Y0041279D01*
X0016915Y0041263D01*
X0016907Y0041246D01*
X0016901Y0041229D01*
X0016896Y0041218D01*
X0016893Y0041210D01*
Y0041207D01*
X0016890Y0041179D01*
X0016887Y0041143D01*
X0016885Y0041104D01*
Y0041066D01*
X0016882Y0041032D01*
Y0041005D01*
Y0040993D01*
Y0040985D01*
Y0040980D01*
Y0040977D01*
Y0040780D01*
X0017137Y0040694D01*
Y0040732D01*
X0017140Y0040763D01*
X0017143Y0040788D01*
X0017146Y0040805D01*
X0017148Y0040813D01*
X0017151Y0040821D01*
X0017154Y0040824D01*
X0017165D01*
X0017187Y0040821D01*
X0017218Y0040813D01*
X0017248Y0040805D01*
X0017279Y0040796D01*
X0017304Y0040788D01*
X0017315Y0040785D01*
X0017323Y0040782D01*
X0017326Y0040780D01*
X0017329D01*
X0018184Y0040488D01*
Y0040358D01*
X0018437Y0040272D01*
Y0040402D01*
X0018686Y0040319D01*
Y0040805D01*
X0018437Y0040888D01*
Y0040993D01*
X0018184Y0041079D01*
Y0040974D01*
X0017373Y0041249D01*
X0017332Y0041263D01*
X0017293Y0041277D01*
X0017257Y0041288D01*
X0017226Y0041296D01*
X0017198Y0041304D01*
X0017173Y0041313D01*
X0017151Y0041318D01*
X0017135Y0041324D01*
X0017104Y0041329D01*
X0017085Y0041335D01*
X0017073Y0041338D01*
D02*
G37*
G36*
X0016882Y0042729D02*
Y0042243D01*
X0017956Y0041879D01*
X0017990Y0041868D01*
X0018017Y0041857D01*
X0018045Y0041848D01*
X0018067Y0041840D01*
X0018106Y0041824D01*
X0018134Y0041812D01*
X0018156Y0041801D01*
X0018170Y0041796D01*
X0018176Y0041790D01*
X0018178D01*
X0018192Y0041779D01*
X0018203Y0041765D01*
X0018209Y0041754D01*
X0018215Y0041740D01*
X0018217Y0041729D01*
X0018220Y0041721D01*
Y0041715D01*
Y0041712D01*
X0018217Y0041696D01*
X0018215Y0041685D01*
X0018209Y0041676D01*
X0018203Y0041671D01*
X0018190Y0041665D01*
X0018176D01*
X0018165Y0041668D01*
X0018137Y0041674D01*
X0018103Y0041685D01*
X0018070Y0041693D01*
X0018037Y0041704D01*
X0018009Y0041715D01*
X0017998Y0041718D01*
X0017990Y0041721D01*
X0017984Y0041724D01*
X0017981D01*
X0016882Y0042096D01*
Y0041610D01*
X0017998Y0041232D01*
X0018037Y0041218D01*
X0018070Y0041207D01*
X0018131Y0041191D01*
X0018184Y0041177D01*
X0018226Y0041166D01*
X0018256Y0041160D01*
X0018278Y0041157D01*
X0018292Y0041154D01*
X0018326D01*
X0018356Y0041160D01*
X0018381Y0041166D01*
X0018403Y0041177D01*
X0018420Y0041185D01*
X0018431Y0041196D01*
X0018439Y0041202D01*
X0018442Y0041204D01*
X0018462Y0041229D01*
X0018478Y0041257D01*
X0018489Y0041288D01*
X0018495Y0041318D01*
X0018500Y0041346D01*
X0018503Y0041368D01*
Y0041382D01*
Y0041385D01*
Y0041388D01*
X0018500Y0041424D01*
X0018495Y0041460D01*
X0018489Y0041493D01*
X0018481Y0041521D01*
X0018470Y0041546D01*
X0018464Y0041563D01*
X0018459Y0041574D01*
X0018456Y0041579D01*
X0018437Y0041613D01*
X0018417Y0041646D01*
X0018395Y0041674D01*
X0018373Y0041701D01*
X0018353Y0041724D01*
X0018337Y0041740D01*
X0018326Y0041751D01*
X0018323Y0041754D01*
X0018473Y0041696D01*
Y0042190D01*
X0016882Y0042729D01*
D02*
G37*
G36*
Y0044075D02*
Y0043556D01*
X0017232Y0043409D01*
Y0043223D01*
X0016882Y0043314D01*
Y0042801D01*
X0018825Y0042431D01*
Y0043159D01*
X0016882Y0044075D01*
D02*
G37*
G36*
Y0033989D02*
Y0033534D01*
X0017001Y0033462D01*
X0016976Y0033448D01*
X0016951Y0033431D01*
X0016935Y0033414D01*
X0016918Y0033400D01*
X0016907Y0033387D01*
X0016896Y0033375D01*
X0016893Y0033367D01*
X0016890Y0033364D01*
X0016879Y0033339D01*
X0016871Y0033317D01*
X0016862Y0033292D01*
X0016860Y0033270D01*
X0016857Y0033251D01*
X0016854Y0033234D01*
Y0033223D01*
Y0033220D01*
X0016857Y0033176D01*
X0016862Y0033134D01*
X0016874Y0033095D01*
X0016885Y0033062D01*
X0016896Y0033034D01*
X0016907Y0033012D01*
X0016912Y0032998D01*
X0016915Y0032992D01*
X0016940Y0032953D01*
X0016965Y0032920D01*
X0016990Y0032892D01*
X0017015Y0032870D01*
X0017035Y0032854D01*
X0017051Y0032842D01*
X0017062Y0032834D01*
X0017065Y0032831D01*
X0017101Y0032812D01*
X0017143Y0032792D01*
X0017185Y0032773D01*
X0017229Y0032756D01*
X0017265Y0032742D01*
X0017298Y0032731D01*
X0017309Y0032726D01*
X0017318Y0032723D01*
X0017323Y0032720D01*
X0017326D01*
X0018042Y0032476D01*
X0018076Y0032465D01*
X0018103Y0032457D01*
X0018153Y0032440D01*
X0018192Y0032429D01*
X0018226Y0032420D01*
X0018248Y0032412D01*
X0018262Y0032409D01*
X0018270Y0032407D01*
X0018273D01*
X0018292Y0032404D01*
X0018312D01*
X0018348Y0032407D01*
X0018362Y0032409D01*
X0018373Y0032412D01*
X0018378Y0032415D01*
X0018381D01*
X0018401Y0032423D01*
X0018420Y0032437D01*
X0018448Y0032465D01*
X0018456Y0032476D01*
X0018464Y0032487D01*
X0018470Y0032495D01*
Y0032498D01*
X0018481Y0032523D01*
X0018489Y0032548D01*
X0018495Y0032576D01*
X0018500Y0032601D01*
Y0032623D01*
X0018503Y0032643D01*
Y0032654D01*
Y0032659D01*
X0018500Y0032693D01*
X0018498Y0032723D01*
X0018492Y0032751D01*
X0018487Y0032779D01*
X0018478Y0032801D01*
X0018473Y0032817D01*
X0018470Y0032829D01*
X0018467Y0032831D01*
X0018453Y0032862D01*
X0018437Y0032895D01*
X0018420Y0032923D01*
X0018403Y0032948D01*
X0018387Y0032970D01*
X0018373Y0032987D01*
X0018364Y0032998D01*
X0018362Y0033001D01*
X0018825Y0032845D01*
Y0033331D01*
X0016882Y0033989D01*
D02*
G37*
G36*
X0017057Y0040632D02*
X0017032D01*
X0017010Y0040630D01*
X0016990Y0040627D01*
X0016974Y0040621D01*
X0016960Y0040619D01*
X0016937Y0040608D01*
X0016926Y0040599D01*
X0016924Y0040596D01*
X0016901Y0040563D01*
X0016885Y0040530D01*
X0016871Y0040494D01*
X0016862Y0040460D01*
X0016857Y0040433D01*
X0016854Y0040408D01*
Y0040394D01*
Y0040388D01*
X0016857Y0040352D01*
X0016860Y0040316D01*
X0016868Y0040285D01*
X0016876Y0040258D01*
X0016882Y0040236D01*
X0016890Y0040219D01*
X0016893Y0040208D01*
X0016896Y0040205D01*
X0016912Y0040174D01*
X0016935Y0040144D01*
X0016954Y0040116D01*
X0016976Y0040094D01*
X0016993Y0040074D01*
X0017010Y0040061D01*
X0017021Y0040049D01*
X0017024Y0040047D01*
X0016882Y0040094D01*
Y0039622D01*
X0017679Y0039353D01*
X0017751Y0039328D01*
X0017815Y0039308D01*
X0017873Y0039289D01*
X0017929Y0039272D01*
X0017976Y0039256D01*
X0018017Y0039244D01*
X0018056Y0039233D01*
X0018090Y0039225D01*
X0018117Y0039219D01*
X0018140Y0039211D01*
X0018159Y0039208D01*
X0018176Y0039206D01*
X0018187Y0039203D01*
X0018195Y0039200D01*
X0018201D01*
X0018248Y0039197D01*
X0018287Y0039203D01*
X0018326Y0039217D01*
X0018356Y0039231D01*
X0018381Y0039247D01*
X0018398Y0039264D01*
X0018412Y0039272D01*
X0018414Y0039278D01*
X0018431Y0039297D01*
X0018445Y0039319D01*
X0018467Y0039372D01*
X0018481Y0039428D01*
X0018492Y0039483D01*
X0018498Y0039536D01*
X0018500Y0039558D01*
X0018503Y0039580D01*
Y0039597D01*
Y0039608D01*
Y0039616D01*
Y0039619D01*
X0018500Y0039694D01*
X0018492Y0039761D01*
X0018478Y0039825D01*
X0018464Y0039877D01*
X0018450Y0039919D01*
X0018445Y0039938D01*
X0018437Y0039952D01*
X0018434Y0039963D01*
X0018428Y0039972D01*
X0018426Y0039977D01*
Y0039980D01*
X0018395Y0040033D01*
X0018364Y0040080D01*
X0018334Y0040119D01*
X0018309Y0040152D01*
X0018284Y0040177D01*
X0018264Y0040197D01*
X0018253Y0040208D01*
X0018248Y0040211D01*
X0018206Y0040238D01*
X0018162Y0040263D01*
X0018115Y0040288D01*
X0018067Y0040308D01*
X0018026Y0040324D01*
X0017992Y0040338D01*
X0017979Y0040344D01*
X0017970Y0040347D01*
X0017965Y0040349D01*
X0017962D01*
X0017856Y0040385D01*
Y0039930D01*
X0018023Y0039875D01*
X0018067Y0039858D01*
X0018106Y0039844D01*
X0018134Y0039833D01*
X0018156Y0039822D01*
X0018170Y0039814D01*
X0018181Y0039808D01*
X0018184Y0039805D01*
X0018187D01*
X0018198Y0039797D01*
X0018206Y0039786D01*
X0018217Y0039761D01*
Y0039750D01*
X0018220Y0039741D01*
Y0039736D01*
Y0039733D01*
X0018217Y0039719D01*
X0018215Y0039708D01*
X0018201Y0039694D01*
X0018187Y0039689D01*
X0018184Y0039686D01*
X0018162D01*
X0018140Y0039689D01*
X0018112Y0039694D01*
X0018084Y0039702D01*
X0018059Y0039708D01*
X0018037Y0039716D01*
X0018023Y0039719D01*
X0018020Y0039722D01*
X0018017D01*
X0017984Y0039733D01*
X0017954Y0039744D01*
X0017931Y0039755D01*
X0017915Y0039764D01*
X0017901Y0039772D01*
X0017890Y0039777D01*
X0017887Y0039783D01*
X0017884D01*
X0017879Y0039791D01*
X0017870Y0039802D01*
X0017862Y0039822D01*
X0017851Y0039841D01*
X0017831Y0039891D01*
X0017809Y0039944D01*
X0017790Y0039994D01*
X0017781Y0040019D01*
X0017776Y0040038D01*
X0017768Y0040058D01*
X0017765Y0040072D01*
X0017759Y0040080D01*
Y0040083D01*
X0017743Y0040127D01*
X0017729Y0040169D01*
X0017715Y0040208D01*
X0017701Y0040241D01*
X0017687Y0040272D01*
X0017673Y0040299D01*
X0017662Y0040322D01*
X0017651Y0040344D01*
X0017643Y0040360D01*
X0017634Y0040374D01*
X0017620Y0040397D01*
X0017612Y0040410D01*
X0017609Y0040413D01*
X0017582Y0040441D01*
X0017545Y0040469D01*
X0017504Y0040491D01*
X0017465Y0040510D01*
X0017426Y0040530D01*
X0017396Y0040541D01*
X0017384Y0040546D01*
X0017376Y0040549D01*
X0017371Y0040552D01*
X0017368D01*
X0017237Y0040596D01*
X0017193Y0040610D01*
X0017154Y0040619D01*
X0017118Y0040627D01*
X0017087Y0040630D01*
X0017057Y0040632D01*
D02*
G37*
%LPD*%
G36*
X0018023Y0037717D02*
X0018070Y0037701D01*
X0018106Y0037687D01*
X0018137Y0037676D01*
X0018156Y0037665D01*
X0018173Y0037656D01*
X0018184Y0037651D01*
X0018187Y0037648D01*
X0018190D01*
X0018201Y0037640D01*
X0018206Y0037629D01*
X0018217Y0037604D01*
Y0037593D01*
X0018220Y0037584D01*
Y0037579D01*
Y0037576D01*
X0018217Y0037562D01*
X0018215Y0037554D01*
X0018203Y0037543D01*
X0018190Y0037537D01*
X0018167D01*
X0018142Y0037543D01*
X0018117Y0037548D01*
X0018090Y0037556D01*
X0018065Y0037565D01*
X0018042Y0037570D01*
X0018028Y0037576D01*
X0018026Y0037579D01*
X0018023D01*
X0017909Y0037618D01*
Y0037756D01*
X0018023Y0037717D01*
D02*
G37*
G36*
X0017210Y0034675D02*
X0017237Y0034669D01*
X0017262Y0034661D01*
X0017287Y0034655D01*
X0017309Y0034647D01*
X0017323Y0034644D01*
X0017329Y0034641D01*
X0017368Y0034628D01*
X0017401Y0034614D01*
X0017429Y0034603D01*
X0017451Y0034591D01*
X0017470Y0034583D01*
X0017482Y0034575D01*
X0017490Y0034572D01*
X0017493Y0034569D01*
X0017515Y0034550D01*
X0017540Y0034525D01*
X0017565Y0034494D01*
X0017587Y0034464D01*
X0017607Y0034433D01*
X0017623Y0034408D01*
X0017634Y0034392D01*
X0017637Y0034389D01*
Y0034386D01*
X0017312Y0034497D01*
X0017271Y0034511D01*
X0017240Y0034522D01*
X0017212Y0034533D01*
X0017193Y0034544D01*
X0017179Y0034550D01*
X0017171Y0034555D01*
X0017168Y0034561D01*
X0017165D01*
X0017148Y0034580D01*
X0017140Y0034603D01*
X0017137Y0034619D01*
Y0034625D01*
Y0034628D01*
X0017140Y0034644D01*
X0017143Y0034658D01*
X0017148Y0034666D01*
X0017154Y0034672D01*
X0017165Y0034680D01*
X0017187D01*
X0017210Y0034675D01*
D02*
G37*
G36*
X0017626Y0043273D02*
X0017684Y0043248D01*
X0017745Y0043220D01*
X0017812Y0043189D01*
X0017945Y0043128D01*
X0018015Y0043098D01*
X0018081Y0043067D01*
X0018142Y0043037D01*
X0018201Y0043009D01*
X0018253Y0042984D01*
X0018301Y0042965D01*
X0018339Y0042945D01*
X0018367Y0042931D01*
X0018378Y0042926D01*
X0018387Y0042923D01*
X0018388Y0042921D01*
X0018392Y0042920D01*
X0018389D01*
X0018388Y0042921D01*
X0018303Y0042942D01*
X0018217Y0042965D01*
X0018137Y0042984D01*
X0018059Y0043003D01*
X0017987Y0043023D01*
X0017920Y0043039D01*
X0017856Y0043053D01*
X0017801Y0043067D01*
X0017751Y0043081D01*
X0017706Y0043092D01*
X0017668Y0043101D01*
X0017634Y0043109D01*
X0017609Y0043114D01*
X0017590Y0043120D01*
X0017579Y0043123D01*
X0017576D01*
Y0043295D01*
X0017626Y0043273D01*
D02*
G37*
G36*
X0017212Y0033384D02*
X0017237Y0033378D01*
X0017265Y0033370D01*
X0017293Y0033364D01*
X0017315Y0033356D01*
X0017329Y0033353D01*
X0017334Y0033350D01*
X0018020Y0033117D01*
X0018065Y0033101D01*
X0018103Y0033087D01*
X0018131Y0033076D01*
X0018153Y0033065D01*
X0018170Y0033059D01*
X0018178Y0033053D01*
X0018184Y0033048D01*
X0018187D01*
X0018198Y0033037D01*
X0018206Y0033026D01*
X0018217Y0033003D01*
X0018220Y0032987D01*
Y0032981D01*
Y0032978D01*
X0018217Y0032965D01*
X0018215Y0032953D01*
X0018209Y0032945D01*
X0018201Y0032937D01*
X0018187Y0032931D01*
X0018165D01*
X0018140Y0032937D01*
X0018115Y0032942D01*
X0018087Y0032951D01*
X0018062Y0032956D01*
X0018040Y0032965D01*
X0018026Y0032967D01*
X0018023Y0032970D01*
X0018020D01*
X0017351Y0033198D01*
X0017304Y0033214D01*
X0017265Y0033228D01*
X0017232Y0033242D01*
X0017210Y0033253D01*
X0017193Y0033262D01*
X0017182Y0033267D01*
X0017176Y0033273D01*
X0017173D01*
X0017162Y0033284D01*
X0017154Y0033295D01*
X0017143Y0033317D01*
X0017140Y0033328D01*
X0017137Y0033337D01*
Y0033342D01*
Y0033345D01*
X0017140Y0033359D01*
X0017143Y0033370D01*
X0017148Y0033378D01*
X0017154Y0033384D01*
X0017165Y0033389D01*
X0017187D01*
X0017212Y0033384D01*
D02*
G37*
G36*
X0017210Y0040141D02*
X0017237Y0040136D01*
X0017262Y0040127D01*
X0017287Y0040122D01*
X0017309Y0040113D01*
X0017323Y0040111D01*
X0017329Y0040108D01*
X0017368Y0040094D01*
X0017401Y0040080D01*
X0017429Y0040069D01*
X0017451Y0040058D01*
X0017470Y0040049D01*
X0017482Y0040041D01*
X0017490Y0040038D01*
X0017493Y0040036D01*
X0017515Y0040016D01*
X0017540Y0039991D01*
X0017565Y0039961D01*
X0017587Y0039930D01*
X0017607Y0039900D01*
X0017623Y0039875D01*
X0017634Y0039858D01*
X0017637Y0039855D01*
Y0039852D01*
X0017312Y0039963D01*
X0017271Y0039977D01*
X0017240Y0039988D01*
X0017212Y0040000D01*
X0017193Y0040011D01*
X0017179Y0040016D01*
X0017171Y0040022D01*
X0017168Y0040027D01*
X0017165D01*
X0017148Y0040047D01*
X0017140Y0040069D01*
X0017137Y0040086D01*
Y0040091D01*
Y0040094D01*
X0017140Y0040111D01*
X0017143Y0040124D01*
X0017148Y0040133D01*
X0017154Y0040138D01*
X0017165Y0040147D01*
X0017187D01*
X0017210Y0040141D01*
D02*
G37*
D32*
X0011187Y0003671D02*
G03*
X0009313Y0003671I-0000937J-0001171D01*
G01*
Y0001329D02*
G03*
X0011187Y0001329I0000937J0001171D01*
G01*
X0025180Y0002500D02*
G03*
X0025180Y0002500I-0000100J0000000D01*
G01*
X0029576Y0023562D02*
Y0023054D01*
X0029830Y0022800D01*
X0030846D01*
X0031100Y0023054D01*
Y0023562D01*
X0030846Y0023816D01*
X0029830D01*
X0029576Y0023562D01*
X0030084Y0024324D02*
X0030846D01*
X0031100Y0024577D01*
Y0025339D01*
X0030084D01*
X0029830Y0026101D02*
X0030084D01*
Y0025847D01*
Y0026355D01*
Y0026101D01*
X0030846D01*
X0031100Y0026355D01*
X0031608Y0027117D02*
X0030084D01*
Y0027878D01*
X0030338Y0028132D01*
X0030846D01*
X0031100Y0027878D01*
Y0027117D01*
X0030084Y0028640D02*
X0030846D01*
X0031100Y0028894D01*
Y0029656D01*
X0030084D01*
X0029830Y0030418D02*
X0030084D01*
Y0030164D01*
Y0030671D01*
Y0030418D01*
X0030846D01*
X0031100Y0030671D01*
X0028338Y0009400D02*
Y0010416D01*
X0027830Y0009908D02*
X0028846D01*
X0028338Y0012447D02*
Y0013463D01*
X0027830Y0012955D02*
X0028846D01*
X0029100Y0017018D02*
X0027576D01*
Y0017779D01*
X0027830Y0018033D01*
X0028338D01*
X0028592Y0017779D01*
Y0017018D01*
Y0017525D02*
X0029100Y0018033D01*
Y0020065D02*
X0027576D01*
Y0020826D01*
X0027830Y0021080D01*
X0028338D01*
X0028592Y0020826D01*
Y0020065D01*
Y0020572D02*
X0029100Y0021080D01*
X0027830Y0025651D02*
X0027576Y0025397D01*
Y0024889D01*
X0027830Y0024635D01*
X0028846D01*
X0029100Y0024889D01*
Y0025397D01*
X0028846Y0025651D01*
X0028338D01*
Y0025143D01*
X0027830Y0028698D02*
X0027576Y0028444D01*
Y0027936D01*
X0027830Y0027682D01*
X0028846D01*
X0029100Y0027936D01*
Y0028444D01*
X0028846Y0028698D01*
X0028338D01*
Y0028190D01*
X0027576Y0032253D02*
X0029100D01*
Y0033014D01*
X0028846Y0033268D01*
X0028592D01*
X0028338Y0033014D01*
Y0032253D01*
Y0033014D01*
X0028084Y0033268D01*
X0027830D01*
X0027576Y0033014D01*
Y0032253D01*
Y0035300D02*
X0029100D01*
Y0036061D01*
X0028846Y0036315D01*
X0028592D01*
X0028338Y0036061D01*
Y0035300D01*
Y0036061D01*
X0028084Y0036315D01*
X0027830D01*
X0027576Y0036061D01*
Y0035300D01*
Y0039870D02*
X0029100D01*
X0028592Y0040378D01*
X0029100Y0040886D01*
X0027576D01*
Y0042917D02*
X0029100D01*
X0028592Y0043425D01*
X0029100Y0043933D01*
X0027576D01*
X0011200Y0043600D02*
X0012724D01*
Y0042838D01*
X0012470Y0042584D01*
X0011962D01*
X0011708Y0042838D01*
Y0043600D01*
X0011200Y0041823D02*
Y0041315D01*
X0011454Y0041061D01*
X0011962D01*
X0012216Y0041315D01*
Y0041823D01*
X0011962Y0042076D01*
X0011454D01*
X0011200Y0041823D01*
X0012216Y0040553D02*
X0011454D01*
X0011200Y0040299D01*
X0011454Y0040045D01*
X0011200Y0039791D01*
X0011454Y0039537D01*
X0012216D01*
X0011200Y0038268D02*
Y0038776D01*
X0011454Y0039029D01*
X0011962D01*
X0012216Y0038776D01*
Y0038268D01*
X0011962Y0038014D01*
X0011708D01*
Y0039029D01*
X0012216Y0037506D02*
X0011200D01*
X0011708D01*
X0011962Y0037252D01*
X0012216Y0036998D01*
Y0036744D01*
X0001262Y0045200D02*
Y0044184D01*
X0000500Y0042153D02*
Y0041645D01*
Y0041899D01*
X0002024D01*
X0001770Y0042153D01*
X0000500Y0039868D02*
Y0040883D01*
X0001516Y0039868D01*
X0001770D01*
X0002024Y0040122D01*
Y0040629D01*
X0001770Y0040883D01*
X0002024Y0039360D02*
X0001008D01*
X0000500Y0038852D01*
X0001008Y0038344D01*
X0002024D01*
X0001262Y0036313D02*
Y0035297D01*
X0001770Y0035805D02*
X0000754D01*
D33*
X0006005Y0010895D02*
G03*
X0006005Y0014105I-0001505J0001605D01*
G01*
X0010400Y0006900D02*
Y0008400D01*
X0015400Y0006900D02*
Y0008400D01*
X0007900D02*
X0017900D01*
X0007900D02*
Y0021900D01*
Y0024900D02*
Y0028400D01*
X0017900D01*
Y0024900D02*
Y0028400D01*
Y0008400D02*
Y0021900D01*
X0017092Y0005400D02*
X0018108D01*
X0017600Y0004892D02*
Y0005908D01*
X0012700Y0051800D02*
X0020200D01*
Y0048200D02*
Y0051800D01*
X0012700Y0048200D02*
X0020200D01*
X0012700D02*
Y0051800D01*
X0011700Y0050000D02*
X0012700D01*
X0020200D02*
X0021200D01*
X0002600Y0030500D02*
X0004500D01*
X0002600Y0020500D02*
Y0030500D01*
Y0020500D02*
X0006400D01*
Y0030500D01*
X0004500D02*
X0006400D01*
X0004500Y0019500D02*
Y0031500D01*
X0025900Y0045290D02*
X0026900D01*
X0025900Y0043290D02*
Y0045290D01*
Y0043290D02*
X0026900D01*
X0025900Y0041480D02*
X0026900D01*
X0025900Y0039480D02*
Y0041480D01*
Y0039480D02*
X0026900D01*
X0025900Y0035670D02*
X0026900D01*
X0025900D02*
Y0037670D01*
X0026900D01*
X0025900Y0031860D02*
X0026900D01*
X0025900D02*
Y0033860D01*
X0026900D01*
X0025900Y0028050D02*
X0026900D01*
X0025900D02*
Y0030050D01*
X0026900D01*
X0025900Y0024240D02*
X0026900D01*
X0025900D02*
Y0026240D01*
X0026900D01*
X0025900Y0020430D02*
X0026900D01*
X0025900D02*
Y0022430D01*
X0026900D01*
X0025900Y0016620D02*
X0026900D01*
X0025900D02*
Y0018620D01*
X0026900D01*
X0025900Y0012810D02*
X0026900D01*
X0025900D02*
Y0014810D01*
X0026900D01*
X0025900Y0011000D02*
X0026900D01*
X0025900Y0009000D02*
Y0011000D01*
Y0009000D02*
X0026900D01*
X0019400Y0007700D02*
X0026900D01*
Y0046600D01*
X0019400D02*
X0026900D01*
X0019400Y0007700D02*
Y0046600D01*
X0014080Y0001250D02*
X0024380D01*
X0014080D02*
Y0003800D01*
X0024380D01*
Y0001250D02*
Y0003800D01*
X0002300Y0038500D02*
X0003500D01*
Y0036500D02*
Y0038500D01*
X0002300Y0036500D02*
X0003500D01*
X0002300Y0041500D02*
X0003500D01*
Y0043500D01*
X0002300D02*
X0003500D01*
X0002300Y0045600D02*
X0010600D01*
X0002300Y0035000D02*
Y0045600D01*
Y0035000D02*
X0010600D01*
Y0045600D01*
X0002700Y0010500D02*
Y0014500D01*
X0015500Y0053300D02*
Y0052633D01*
X0015833Y0052300D01*
X0016166Y0052633D01*
Y0053300D01*
X0016500D02*
Y0052300D01*
X0017000D01*
X0017166Y0052467D01*
Y0053133D01*
X0017000Y0053300D01*
X0016500D01*
X0017499Y0052300D02*
X0017833D01*
X0017666D01*
Y0053300D01*
X0017499Y0053133D01*
X0013500Y0003700D02*
X0012500D01*
X0013000D01*
Y0003034D01*
X0013500D01*
X0012500D01*
X0013500Y0002700D02*
X0012500D01*
Y0002034D01*
Y0001701D02*
Y0001367D01*
Y0001534D01*
X0013500D01*
X0013333Y0001701D01*
X0008500Y0032834D02*
Y0033500D01*
X0008000D01*
Y0033167D01*
Y0033500D01*
X0007500D01*
X0008500Y0032500D02*
X0007667D01*
X0007500Y0032334D01*
Y0032000D01*
X0007667Y0031834D01*
X0008500D01*
X0007500Y0031501D02*
Y0031167D01*
Y0031334D01*
X0008500D01*
X0008333Y0031501D01*
X0019400Y0047800D02*
X0020066Y0046800D01*
Y0047800D02*
X0019400Y0046800D01*
X0020400Y0047633D02*
X0020566Y0047800D01*
X0020900D01*
X0021066Y0047633D01*
Y0047466D01*
X0020900Y0047300D01*
X0020733D01*
X0020900D01*
X0021066Y0047133D01*
Y0046967D01*
X0020900Y0046800D01*
X0020566D01*
X0020400Y0046967D01*
X0022600Y0005400D02*
X0023266Y0004400D01*
Y0005400D02*
X0022600Y0004400D01*
X0024266D02*
X0023600D01*
X0024266Y0005066D01*
Y0005233D01*
X0024100Y0005400D01*
X0023766D01*
X0023600Y0005233D01*
X0009200Y0047000D02*
X0009866Y0046000D01*
Y0047000D02*
X0009200Y0046000D01*
X0010200D02*
X0010533D01*
X0010366D01*
Y0047000D01*
X0010200Y0046833D01*
X0007400Y0016800D02*
X0006400D01*
Y0016300D01*
X0006567Y0016134D01*
X0007233D01*
X0007400Y0016300D01*
Y0016800D01*
X0006400Y0015800D02*
X0007066D01*
X0007400Y0015467D01*
X0007066Y0015134D01*
X0006400D01*
X0006900D01*
Y0015800D01*
X0006400Y0014801D02*
Y0014467D01*
Y0014634D01*
X0007400D01*
X0007233Y0014801D01*
X0001100Y0032600D02*
X0002100D01*
Y0032100D01*
X0001933Y0031934D01*
X0001600D01*
X0001433Y0032100D01*
Y0032600D01*
Y0032267D02*
X0001100Y0031934D01*
X0001933Y0030934D02*
X0002100Y0031100D01*
Y0031434D01*
X0001933Y0031600D01*
X0001267D01*
X0001100Y0031434D01*
Y0031100D01*
X0001267Y0030934D01*
X0001600D01*
Y0031267D01*
X0002100Y0030601D02*
X0001100D01*
Y0030101D01*
X0001267Y0029934D01*
X0001433D01*
X0001600Y0030101D01*
Y0030601D01*
Y0030101D01*
X0001766Y0029934D01*
X0001933D01*
X0002100Y0030101D01*
Y0030601D01*
Y0029601D02*
X0001100D01*
X0001433Y0029268D01*
X0001100Y0028935D01*
X0002100D01*
X0001766Y0026935D02*
Y0027435D01*
X0001600Y0027602D01*
X0001267D01*
X0001100Y0027435D01*
Y0026935D01*
Y0026435D02*
Y0026102D01*
X0001267Y0025935D01*
X0001600D01*
X0001766Y0026102D01*
Y0026435D01*
X0001600Y0026602D01*
X0001267D01*
X0001100Y0026435D01*
Y0025602D02*
X0001766D01*
Y0025102D01*
X0001600Y0024936D01*
X0001100D01*
X0001933Y0024436D02*
X0001766D01*
Y0024603D01*
Y0024269D01*
Y0024436D01*
X0001267D01*
X0001100Y0024269D01*
X0001766Y0023770D02*
X0001100D01*
X0001433D01*
X0001600Y0023603D01*
X0001766Y0023436D01*
Y0023270D01*
X0001100Y0022603D02*
Y0022270D01*
X0001267Y0022103D01*
X0001600D01*
X0001766Y0022270D01*
Y0022603D01*
X0001600Y0022770D01*
X0001267D01*
X0001100Y0022603D01*
Y0021770D02*
Y0021437D01*
Y0021604D01*
X0002100D01*
Y0021770D01*
X0001100Y0020937D02*
Y0020604D01*
Y0020770D01*
X0002100D01*
Y0020937D01*
X0001100Y0019604D02*
Y0019937D01*
X0001267Y0020104D01*
X0001600D01*
X0001766Y0019937D01*
Y0019604D01*
X0001600Y0019438D01*
X0001433D01*
Y0020104D01*
X0001766Y0019104D02*
X0001100D01*
X0001433D01*
X0001600Y0018938D01*
X0001766Y0018771D01*
Y0018605D01*
X0001100Y0015106D02*
X0002100D01*
Y0014606D01*
X0001933Y0014439D01*
X0001600D01*
X0001433Y0014606D01*
Y0015106D01*
Y0014772D02*
X0001100Y0014439D01*
Y0013606D02*
Y0013939D01*
X0001267Y0014106D01*
X0001600D01*
X0001766Y0013939D01*
Y0013606D01*
X0001600Y0013440D01*
X0001433D01*
Y0014106D01*
X0001766Y0013106D02*
X0001100Y0012773D01*
X0001766Y0012440D01*
X0001100Y0012107D02*
X0001267D01*
Y0011940D01*
X0001100D01*
Y0012107D01*
Y0010274D02*
X0001766D01*
X0002100Y0009941D01*
X0001766Y0009607D01*
X0001100D01*
X0001600D01*
Y0010274D01*
X0007000Y0032834D02*
Y0033500D01*
X0006500D01*
X0006666Y0033167D01*
Y0033000D01*
X0006500Y0032834D01*
X0006167D01*
X0006000Y0033000D01*
Y0033333D01*
X0006167Y0033500D01*
X0006000Y0032500D02*
X0006666D01*
X0007000Y0032167D01*
X0006666Y0031834D01*
X0006000D01*
X0006500D01*
Y0032500D01*
X0012866Y0007733D02*
X0012700Y0007900D01*
X0012367D01*
X0012200Y0007733D01*
Y0007067D01*
X0012367Y0006900D01*
X0012700D01*
X0012866Y0007067D01*
X0013200Y0006900D02*
X0013533D01*
X0013366D01*
Y0007900D01*
X0013200Y0007733D01*
D34*
X0016186Y0044779D02*
X0015186D01*
X0015662D02*
X0015805Y0044636D01*
X0015853Y0044541D01*
Y0044398D01*
X0015805Y0044303D01*
X0015662Y0044255D01*
X0015186D01*
X0016186Y0043850D02*
X0015377D01*
X0015234Y0043803D01*
X0015186Y0043708D01*
Y0043612D01*
X0015853Y0043993D02*
Y0043660D01*
X0016186Y0043327D02*
X0015377D01*
X0015234Y0043279D01*
X0015186Y0043184D01*
Y0043089D01*
X0015853Y0043470D02*
Y0043136D01*
Y0042946D02*
X0014853D01*
X0015710D02*
X0015805Y0042851D01*
X0015853Y0042755D01*
Y0042613D01*
X0015805Y0042517D01*
X0015710Y0042422D01*
X0015567Y0042375D01*
X0015472D01*
X0015329Y0042422D01*
X0015234Y0042517D01*
X0015186Y0042613D01*
Y0042755D01*
X0015234Y0042851D01*
X0015329Y0042946D01*
X0015710Y0041637D02*
X0015805Y0041684D01*
X0015853Y0041827D01*
Y0041970D01*
X0015805Y0042113D01*
X0015710Y0042160D01*
X0015615Y0042113D01*
X0015567Y0042017D01*
X0015520Y0041779D01*
X0015472Y0041684D01*
X0015377Y0041637D01*
X0015329D01*
X0015234Y0041684D01*
X0015186Y0041827D01*
Y0041970D01*
X0015234Y0042113D01*
X0015329Y0042160D01*
X0015853Y0041380D02*
X0015805Y0041427D01*
X0015758Y0041380D01*
X0015805Y0041332D01*
X0015853Y0041380D01*
X0015281D02*
X0015234Y0041427D01*
X0015186Y0041380D01*
X0015234Y0041332D01*
X0015281Y0041380D01*
X0015043Y0041113D02*
X0016186Y0040446D01*
X0015043Y0040380D02*
X0016186Y0039713D01*
X0015853Y0039075D02*
X0015091D01*
X0014948Y0039123D01*
X0014901Y0039170D01*
X0014853Y0039266D01*
Y0039409D01*
X0014901Y0039504D01*
X0015710Y0039075D02*
X0015805Y0039170D01*
X0015853Y0039266D01*
Y0039409D01*
X0015805Y0039504D01*
X0015710Y0039599D01*
X0015567Y0039647D01*
X0015472D01*
X0015329Y0039599D01*
X0015234Y0039504D01*
X0015186Y0039409D01*
Y0039266D01*
X0015234Y0039170D01*
X0015329Y0039075D01*
X0016186Y0038713D02*
X0016138Y0038666D01*
X0016186Y0038618D01*
X0016234Y0038666D01*
X0016186Y0038713D01*
X0015853Y0038666D02*
X0015186D01*
X0016186Y0038299D02*
X0015377D01*
X0015234Y0038252D01*
X0015186Y0038156D01*
Y0038061D01*
X0015853Y0038442D02*
Y0038109D01*
X0016186Y0037918D02*
X0015186D01*
X0015662D02*
X0015805Y0037776D01*
X0015853Y0037680D01*
Y0037537D01*
X0015805Y0037442D01*
X0015662Y0037395D01*
X0015186D01*
X0015853Y0037133D02*
X0015377D01*
X0015234Y0037085D01*
X0015186Y0036990D01*
Y0036847D01*
X0015234Y0036752D01*
X0015377Y0036609D01*
X0015853D02*
X0015186D01*
X0016186Y0036347D02*
X0015186D01*
X0015710D02*
X0015805Y0036252D01*
X0015853Y0036157D01*
Y0036014D01*
X0015805Y0035919D01*
X0015710Y0035824D01*
X0015567Y0035776D01*
X0015472D01*
X0015329Y0035824D01*
X0015234Y0035919D01*
X0015186Y0036014D01*
Y0036157D01*
X0015234Y0036252D01*
X0015329Y0036347D01*
X0015281Y0035514D02*
X0015234Y0035562D01*
X0015186Y0035514D01*
X0015234Y0035466D01*
X0015281Y0035514D01*
X0015710Y0034676D02*
X0015805Y0034771D01*
X0015853Y0034867D01*
Y0035009D01*
X0015805Y0035105D01*
X0015710Y0035200D01*
X0015567Y0035247D01*
X0015472D01*
X0015329Y0035200D01*
X0015234Y0035105D01*
X0015186Y0035009D01*
Y0034867D01*
X0015234Y0034771D01*
X0015329Y0034676D01*
X0015853Y0034224D02*
X0015805Y0034319D01*
X0015710Y0034414D01*
X0015567Y0034462D01*
X0015472D01*
X0015329Y0034414D01*
X0015234Y0034319D01*
X0015186Y0034224D01*
Y0034081D01*
X0015234Y0033986D01*
X0015329Y0033891D01*
X0015472Y0033843D01*
X0015567D01*
X0015710Y0033891D01*
X0015805Y0033986D01*
X0015853Y0034081D01*
Y0034224D01*
Y0033624D02*
X0015186D01*
X0015662D02*
X0015805Y0033481D01*
X0015853Y0033386D01*
Y0033243D01*
X0015805Y0033148D01*
X0015662Y0033100D01*
X0015186D01*
X0015662D02*
X0015805Y0032958D01*
X0015853Y0032862D01*
Y0032719D01*
X0015805Y0032624D01*
X0015662Y0032577D01*
X0015186D01*
X0015043Y0032262D02*
X0016186Y0031596D01*
X0013293Y0046807D02*
X0014293Y0047188D01*
X0013293Y0047569D01*
X0013627Y0047426D02*
Y0046950D01*
X0013960Y0046574D02*
X0013293D01*
X0013769D02*
X0013912Y0046431D01*
X0013960Y0046336D01*
Y0046193D01*
X0013912Y0046098D01*
X0013769Y0046050D01*
X0013293D01*
X0014293Y0045645D02*
X0013484D01*
X0013341Y0045598D01*
X0013293Y0045502D01*
Y0045407D01*
X0013960Y0045788D02*
Y0045455D01*
Y0044693D02*
X0013293D01*
X0013817D02*
X0013912Y0044788D01*
X0013960Y0044884D01*
Y0045026D01*
X0013912Y0045122D01*
X0013817Y0045217D01*
X0013674Y0045264D01*
X0013579D01*
X0013436Y0045217D01*
X0013341Y0045122D01*
X0013293Y0045026D01*
Y0044884D01*
X0013341Y0044788D01*
X0013436Y0044693D01*
X0013960Y0044426D02*
X0013293D01*
X0013674D02*
X0013817Y0044379D01*
X0013912Y0044284D01*
X0013960Y0044188D01*
Y0044046D01*
X0013674Y0043955D02*
Y0043384D01*
X0013769D01*
X0013865Y0043431D01*
X0013912Y0043479D01*
X0013960Y0043574D01*
Y0043717D01*
X0013912Y0043812D01*
X0013817Y0043908D01*
X0013674Y0043955D01*
X0013579D01*
X0013436Y0043908D01*
X0013341Y0043812D01*
X0013293Y0043717D01*
Y0043574D01*
X0013341Y0043479D01*
X0013436Y0043384D01*
X0013817Y0042646D02*
X0013912Y0042694D01*
X0013960Y0042836D01*
Y0042979D01*
X0013912Y0043122D01*
X0013817Y0043170D01*
X0013722Y0043122D01*
X0013674Y0043027D01*
X0013627Y0042789D01*
X0013579Y0042694D01*
X0013484Y0042646D01*
X0013436D01*
X0013341Y0042694D01*
X0013293Y0042836D01*
Y0042979D01*
X0013341Y0043122D01*
X0013436Y0043170D01*
X0014293Y0042436D02*
X0013293D01*
Y0041865D01*
X0013960Y0041184D02*
X0013293D01*
X0013817D02*
X0013912Y0041280D01*
X0013960Y0041375D01*
Y0041518D01*
X0013912Y0041613D01*
X0013817Y0041708D01*
X0013674Y0041756D01*
X0013579D01*
X0013436Y0041708D01*
X0013341Y0041613D01*
X0013293Y0041518D01*
Y0041375D01*
X0013341Y0041280D01*
X0013436Y0041184D01*
X0014293Y0040918D02*
X0013293D01*
X0013817D02*
X0013912Y0040822D01*
X0013960Y0040727D01*
Y0040584D01*
X0013912Y0040489D01*
X0013817Y0040394D01*
X0013674Y0040346D01*
X0013579D01*
X0013436Y0040394D01*
X0013341Y0040489D01*
X0013293Y0040584D01*
Y0040727D01*
X0013341Y0040822D01*
X0013436Y0040918D01*
X0013150Y0040132D02*
X0014293Y0039466D01*
Y0039399D02*
X0013293D01*
X0014293D02*
Y0038971D01*
X0014245Y0038828D01*
X0014198Y0038780D01*
X0014103Y0038732D01*
X0014007D01*
X0013912Y0038780D01*
X0013865Y0038828D01*
X0013817Y0038971D01*
Y0039399D01*
Y0039066D02*
X0013293Y0038732D01*
X0014055Y0037795D02*
X0014150Y0037842D01*
X0014245Y0037937D01*
X0014293Y0038033D01*
Y0038223D01*
X0014245Y0038318D01*
X0014150Y0038413D01*
X0014055Y0038461D01*
X0013912Y0038509D01*
X0013674D01*
X0013531Y0038461D01*
X0013436Y0038413D01*
X0013341Y0038318D01*
X0013293Y0038223D01*
Y0038033D01*
X0013341Y0037937D01*
X0013436Y0037842D01*
X0013531Y0037795D01*
X0013674D01*
Y0038033D02*
Y0037795D01*
X0014293Y0037566D02*
X0013293D01*
X0014293D02*
Y0037138D01*
X0014245Y0036995D01*
X0014198Y0036947D01*
X0014103Y0036900D01*
X0014007D01*
X0013912Y0036947D01*
X0013865Y0036995D01*
X0013817Y0037138D01*
Y0037566D02*
Y0037138D01*
X0013769Y0036995D01*
X0013722Y0036947D01*
X0013627Y0036900D01*
X0013484D01*
X0013388Y0036947D01*
X0013341Y0036995D01*
X0013293Y0037138D01*
Y0037566D01*
X0014293Y0036676D02*
X0013293Y0036438D01*
X0014293Y0036200D02*
X0013293Y0036438D01*
X0014293Y0036200D02*
X0013293Y0035962D01*
X0014293Y0035724D02*
X0013293Y0035962D01*
X0012960Y0035524D02*
Y0034762D01*
X0013817Y0034062D02*
X0013912Y0034157D01*
X0013960Y0034252D01*
Y0034395D01*
X0013912Y0034491D01*
X0013817Y0034586D01*
X0013674Y0034633D01*
X0013579D01*
X0013436Y0034586D01*
X0013341Y0034491D01*
X0013293Y0034395D01*
Y0034252D01*
X0013341Y0034157D01*
X0013436Y0034062D01*
X0013960Y0033610D02*
X0013912Y0033705D01*
X0013817Y0033800D01*
X0013674Y0033848D01*
X0013579D01*
X0013436Y0033800D01*
X0013341Y0033705D01*
X0013293Y0033610D01*
Y0033467D01*
X0013341Y0033372D01*
X0013436Y0033276D01*
X0013579Y0033229D01*
X0013674D01*
X0013817Y0033276D01*
X0013912Y0033372D01*
X0013960Y0033467D01*
Y0033610D01*
Y0033010D02*
X0013293D01*
X0013769D02*
X0013912Y0032867D01*
X0013960Y0032772D01*
Y0032629D01*
X0013912Y0032534D01*
X0013769Y0032486D01*
X0013293D01*
X0014293Y0032082D02*
X0013484D01*
X0013341Y0032034D01*
X0013293Y0031939D01*
Y0031843D01*
X0013960Y0032224D02*
Y0031891D01*
Y0031701D02*
X0013293D01*
X0013674D02*
X0013817Y0031653D01*
X0013912Y0031558D01*
X0013960Y0031463D01*
Y0031320D01*
Y0030991D02*
X0013912Y0031086D01*
X0013817Y0031182D01*
X0013674Y0031229D01*
X0013579D01*
X0013436Y0031182D01*
X0013341Y0031086D01*
X0013293Y0030991D01*
Y0030848D01*
X0013341Y0030753D01*
X0013436Y0030658D01*
X0013579Y0030610D01*
X0013674D01*
X0013817Y0030658D01*
X0013912Y0030753D01*
X0013960Y0030848D01*
Y0030991D01*
X0014293Y0030391D02*
X0013293D01*
X0014293Y0030182D02*
X0013293D01*
X0013674Y0029972D02*
Y0029401D01*
X0013769D01*
X0013865Y0029449D01*
X0013912Y0029496D01*
X0013960Y0029592D01*
Y0029734D01*
X0013912Y0029830D01*
X0013817Y0029925D01*
X0013674Y0029972D01*
X0013579D01*
X0013436Y0029925D01*
X0013341Y0029830D01*
X0013293Y0029734D01*
Y0029592D01*
X0013341Y0029496D01*
X0013436Y0029401D01*
X0013960Y0029187D02*
X0013293D01*
X0013674D02*
X0013817Y0029139D01*
X0013912Y0029044D01*
X0013960Y0028949D01*
Y0028806D01*
D35*
X0017950Y0050000D02*
D03*
M02*
