G04 Layer_Physical_Order=2*
G04 Layer_Color=16711680*
%FSAX43Y43*%
%MOMM*%
G71*
G01*
G75*
%ADD10C,7.500*%
%ADD11C,2.000*%
%ADD12R,2.000X2.000*%
%ADD13R,1.500X1.500*%
%ADD14C,1.500*%
%ADD15O,2.500X2.000*%
%ADD16O,2.500X1.500*%
%ADD17R,0.900X1.300*%
%ADD18R,1.520X0.600*%
%ADD19O,1.520X0.600*%
%ADD20R,1.300X0.900*%
%ADD21O,1.600X0.500*%
%ADD22O,0.500X1.600*%
%ADD23R,0.500X1.600*%
%ADD24R,2.000X1.680*%
%ADD25R,1.680X2.000*%
%ADD26R,0.600X1.100*%
%ADD27R,2.000X1.250*%
%ADD28C,1.000*%
%ADD29C,0.300*%
%ADD30C,0.500*%
%ADD31C,2.000*%
G36*
X0007272Y0016250D02*
X0007246Y0016241D01*
X0007223Y0016226D01*
X0007204Y0016205D01*
X0007188Y0016178D01*
X0007174Y0016145D01*
X0007163Y0016106D01*
X0007156Y0016061D01*
X0007152Y0016010D01*
X0007151Y0016000D01*
X0007152Y0015989D01*
X0007156Y0015938D01*
X0007163Y0015892D01*
X0007174Y0015853D01*
X0007188Y0015819D01*
X0007204Y0015792D01*
X0007223Y0015771D01*
X0007246Y0015756D01*
X0007272Y0015747D01*
X0007300Y0015744D01*
X0006700D01*
X0006728Y0015747D01*
X0006754Y0015756D01*
X0006777Y0015771D01*
X0006796Y0015792D01*
X0006812Y0015819D01*
X0006826Y0015853D01*
X0006837Y0015892D01*
X0006844Y0015938D01*
X0006848Y0015989D01*
X0006849Y0016000D01*
X0006848Y0016010D01*
X0006844Y0016061D01*
X0006837Y0016106D01*
X0006826Y0016145D01*
X0006812Y0016178D01*
X0006796Y0016205D01*
X0006777Y0016226D01*
X0006754Y0016241D01*
X0006728Y0016250D01*
X0006700Y0016253D01*
X0007300D01*
X0007272Y0016250D01*
D02*
G37*
G36*
X0006353Y0014853D02*
X0006053Y0014850D01*
Y0015150D01*
X0006111Y0015151D01*
X0006162Y0015156D01*
X0006207Y0015163D01*
X0006247Y0015174D01*
X0006280Y0015188D01*
X0006307Y0015204D01*
X0006329Y0015224D01*
X0006344Y0015246D01*
X0006353Y0015271D01*
X0006356Y0015300D01*
X0006353Y0014853D01*
D02*
G37*
G36*
X0024033Y0022356D02*
X0022224Y0021047D01*
X0024576D01*
X0024542Y0020965D01*
X0024512Y0020851D01*
X0024486Y0020704D01*
X0024444Y0020314D01*
X0024416Y0019794D01*
X0024414Y0019709D01*
X0024512Y0018199D01*
X0024542Y0018085D01*
X0024576Y0018003D01*
X0022224D01*
X0022258Y0018085D01*
X0022288Y0018199D01*
X0022314Y0018346D01*
X0022356Y0018736D01*
X0022384Y0019256D01*
X0022386Y0019341D01*
X0022288Y0020851D01*
X0022258Y0020965D01*
X0022224Y0021047D01*
X0022198Y0021100D01*
X0022145Y0021178D01*
X0022065Y0021279D01*
X0021664Y0021729D01*
X0020752Y0022664D01*
X0022416Y0023828D01*
X0024033Y0022356D01*
D02*
G37*
G36*
X0007152Y0019389D02*
X0007156Y0019338D01*
X0007163Y0019292D01*
X0007174Y0019253D01*
X0007188Y0019219D01*
X0007204Y0019192D01*
X0007223Y0019171D01*
X0007246Y0019156D01*
X0007272Y0019147D01*
X0007300Y0019144D01*
X0006700D01*
X0006728Y0019147D01*
X0006754Y0019156D01*
X0006777Y0019171D01*
X0006796Y0019192D01*
X0006812Y0019219D01*
X0006826Y0019253D01*
X0006837Y0019292D01*
X0006844Y0019338D01*
X0006848Y0019389D01*
X0006850Y0019447D01*
X0007150D01*
X0007152Y0019389D01*
D02*
G37*
G36*
X0020123Y0018892D02*
X0020152Y0018878D01*
X0020184Y0018865D01*
X0020220Y0018855D01*
X0020258Y0018846D01*
X0020300Y0018838D01*
X0020392Y0018828D01*
X0020443Y0018826D01*
X0020497Y0018825D01*
Y0018525D01*
X0020443Y0018524D01*
X0020300Y0018512D01*
X0020258Y0018504D01*
X0020220Y0018495D01*
X0020184Y0018485D01*
X0020152Y0018472D01*
X0020123Y0018458D01*
X0020096Y0018442D01*
Y0018908D01*
X0020123Y0018892D01*
D02*
G37*
G36*
X0005687Y0015270D02*
X0005698Y0015245D01*
X0005716Y0015223D01*
X0005740Y0015203D01*
X0005772Y0015187D01*
X0005810Y0015174D01*
X0005856Y0015163D01*
X0005909Y0015156D01*
X0005968Y0015151D01*
X0006035Y0015150D01*
Y0014850D01*
X0005968Y0014849D01*
X0005856Y0014837D01*
X0005810Y0014826D01*
X0005772Y0014813D01*
X0005740Y0014797D01*
X0005716Y0014777D01*
X0005698Y0014755D01*
X0005687Y0014730D01*
X0005684Y0014701D01*
Y0015299D01*
X0005687Y0015270D01*
D02*
G37*
G36*
X0006356Y0013000D02*
X0006353Y0013028D01*
X0006344Y0013054D01*
X0006329Y0013076D01*
X0006308Y0013096D01*
X0006281Y0013113D01*
X0006247Y0013126D01*
X0006208Y0013137D01*
X0006162Y0013144D01*
X0006111Y0013149D01*
X0006053Y0013150D01*
Y0013450D01*
X0006111Y0013451D01*
X0006162Y0013456D01*
X0006208Y0013464D01*
X0006247Y0013474D01*
X0006281Y0013488D01*
X0006308Y0013504D01*
X0006329Y0013524D01*
X0006344Y0013546D01*
X0006353Y0013571D01*
X0006356Y0013600D01*
Y0013000D01*
D02*
G37*
G36*
X0013951Y0013243D02*
X0013963Y0013100D01*
X0013971Y0013058D01*
X0013980Y0013020D01*
X0013990Y0012984D01*
X0014003Y0012952D01*
X0014017Y0012923D01*
X0014033Y0012896D01*
X0013567D01*
X0013583Y0012923D01*
X0013597Y0012952D01*
X0013610Y0012984D01*
X0013620Y0013020D01*
X0013629Y0013058D01*
X0013637Y0013100D01*
X0013647Y0013192D01*
X0013649Y0013243D01*
X0013650Y0013297D01*
X0013950D01*
X0013951Y0013243D01*
D02*
G37*
G36*
X0009929Y0013642D02*
X0009902Y0013658D01*
X0009873Y0013672D01*
X0009841Y0013685D01*
X0009805Y0013695D01*
X0009767Y0013704D01*
X0009725Y0013712D01*
X0009633Y0013722D01*
X0009582Y0013724D01*
X0009528Y0013725D01*
Y0014025D01*
X0009582Y0014026D01*
X0009725Y0014038D01*
X0009767Y0014046D01*
X0009805Y0014055D01*
X0009841Y0014065D01*
X0009873Y0014078D01*
X0009902Y0014092D01*
X0009929Y0014108D01*
Y0013642D01*
D02*
G37*
G36*
X0014250Y0013725D02*
X0014193Y0013722D01*
X0014142Y0013713D01*
X0014097Y0013698D01*
X0014058Y0013677D01*
X0014025Y0013650D01*
X0013998Y0013617D01*
X0013977Y0013578D01*
X0013962Y0013533D01*
X0013953Y0013482D01*
X0013950Y0013425D01*
X0013650D01*
X0013647Y0013482D01*
X0013638Y0013533D01*
X0013623Y0013578D01*
X0013602Y0013617D01*
X0013575Y0013650D01*
X0013542Y0013677D01*
X0013503Y0013698D01*
X0013458Y0013713D01*
X0013407Y0013722D01*
X0013400Y0013722D01*
X0013393Y0013722D01*
X0013342Y0013713D01*
X0013297Y0013698D01*
X0013258Y0013677D01*
X0013225Y0013650D01*
X0013198Y0013617D01*
X0013177Y0013578D01*
X0013162Y0013533D01*
X0013153Y0013482D01*
X0013150Y0013425D01*
X0013150D01*
Y0013425D01*
X0012850D01*
X0012847Y0013482D01*
X0012838Y0013533D01*
X0012823Y0013578D01*
X0012802Y0013617D01*
X0012775Y0013650D01*
X0012742Y0013677D01*
X0012703Y0013698D01*
X0012658Y0013713D01*
X0012607Y0013722D01*
X0012550Y0013725D01*
X0012550Y0013725D01*
X0012550D01*
X0013000Y0014025D01*
X0013400Y0013758D01*
X0013800Y0014025D01*
X0014250Y0013725D01*
D02*
G37*
G36*
X0011248Y0014092D02*
X0011277Y0014078D01*
X0011309Y0014065D01*
X0011345Y0014055D01*
X0011383Y0014046D01*
X0011425Y0014038D01*
X0011517Y0014028D01*
X0011568Y0014026D01*
X0011622Y0014025D01*
Y0013725D01*
X0011568Y0013724D01*
X0011425Y0013712D01*
X0011383Y0013704D01*
X0011345Y0013695D01*
X0011309Y0013685D01*
X0011277Y0013672D01*
X0011248Y0013658D01*
X0011221Y0013642D01*
Y0014108D01*
X0011248Y0014092D01*
D02*
G37*
G36*
X0007272Y0020450D02*
X0007246Y0020441D01*
X0007223Y0020426D01*
X0007204Y0020405D01*
X0007188Y0020378D01*
X0007174Y0020345D01*
X0007163Y0020306D01*
X0007156Y0020261D01*
X0007152Y0020210D01*
X0007150Y0020153D01*
X0006850D01*
X0006848Y0020210D01*
X0006844Y0020261D01*
X0006837Y0020306D01*
X0006826Y0020345D01*
X0006812Y0020378D01*
X0006796Y0020405D01*
X0006777Y0020426D01*
X0006754Y0020441D01*
X0006728Y0020450D01*
X0006700Y0020453D01*
X0007300D01*
X0007272Y0020450D01*
D02*
G37*
G36*
X0010651Y0028889D02*
X0010656Y0028838D01*
X0010663Y0028792D01*
X0010674Y0028753D01*
X0010688Y0028719D01*
X0010704Y0028692D01*
X0010724Y0028671D01*
X0010746Y0028656D01*
X0010771Y0028647D01*
X0010800Y0028644D01*
X0010200D01*
X0010229Y0028647D01*
X0010254Y0028656D01*
X0010276Y0028671D01*
X0010296Y0028692D01*
X0010312Y0028719D01*
X0010326Y0028753D01*
X0010337Y0028792D01*
X0010344Y0028838D01*
X0010349Y0028889D01*
X0010350Y0028947D01*
X0010650D01*
X0010651Y0028889D01*
D02*
G37*
G36*
X0021777Y0027423D02*
X0021644Y0027283D01*
X0021524Y0027140D01*
X0021415Y0026994D01*
X0021319Y0026846D01*
X0021234Y0026694D01*
X0021162Y0026540D01*
X0021102Y0026383D01*
X0021054Y0026223D01*
X0021018Y0026060D01*
X0020994Y0025894D01*
X0020288Y0026600D01*
X0019200D01*
X0019305Y0026743D01*
X0019552Y0027133D01*
X0019613Y0027249D01*
X0019661Y0027356D01*
X0019660Y0027357D01*
X0019628Y0027393D01*
X0019590Y0027418D01*
X0019548Y0027434D01*
X0019500Y0027439D01*
X0019692D01*
X0019701Y0027461D01*
X0019728Y0027558D01*
X0019744Y0027647D01*
X0019750Y0027730D01*
X0020250D01*
X0020255Y0027647D01*
X0020272Y0027558D01*
X0020299Y0027461D01*
X0020308Y0027439D01*
X0020500D01*
X0020452Y0027434D01*
X0020410Y0027418D01*
X0020372Y0027393D01*
X0020340Y0027357D01*
X0020339Y0027356D01*
X0020387Y0027249D01*
X0020448Y0027133D01*
X0020451Y0027128D01*
X0020540Y0027162D01*
X0020694Y0027234D01*
X0020846Y0027319D01*
X0020994Y0027415D01*
X0021140Y0027524D01*
X0021283Y0027644D01*
X0021423Y0027777D01*
X0021777Y0027423D01*
D02*
G37*
G36*
X0020617Y0029258D02*
X0020633Y0029256D01*
X0020694Y0029253D01*
X0021100Y0029250D01*
Y0028750D01*
X0020610Y0028741D01*
Y0029259D01*
X0020617Y0029258D01*
D02*
G37*
G36*
X0022419Y0030393D02*
X0022493Y0030342D01*
X0022580Y0030294D01*
X0022680Y0030248D01*
X0022792Y0030206D01*
X0022916Y0030167D01*
X0023043Y0030136D01*
X0023103Y0030200D01*
X0023129Y0030215D01*
X0023145Y0030215D01*
X0023150Y0030200D01*
X0023650D01*
X0023655Y0030215D01*
X0023671Y0030215D01*
X0023697Y0030200D01*
X0023733Y0030171D01*
X0023779Y0030128D01*
X0023903Y0029997D01*
X0024167Y0029692D01*
X0023193D01*
X0022410Y0028909D01*
X0022383Y0029084D01*
X0022289Y0029508D01*
X0022257Y0029487D01*
X0022287Y0029513D01*
X0022283Y0029534D01*
X0022244Y0029658D01*
X0022202Y0029770D01*
X0022156Y0029870D01*
X0022108Y0029957D01*
X0022057Y0030031D01*
X0022003Y0030093D01*
X0022357Y0030447D01*
X0022419Y0030393D01*
D02*
G37*
G36*
X0013867Y0028762D02*
X0013864Y0028779D01*
X0013853Y0028794D01*
X0013834Y0028807D01*
X0013809Y0028818D01*
X0013776Y0028828D01*
X0013735Y0028836D01*
X0013687Y0028842D01*
X0013570Y0028849D01*
X0013500Y0028850D01*
Y0029150D01*
X0013570Y0029151D01*
X0013735Y0029164D01*
X0013776Y0029172D01*
X0013809Y0029182D01*
X0013834Y0029193D01*
X0013853Y0029206D01*
X0013864Y0029221D01*
X0013867Y0029238D01*
Y0028762D01*
D02*
G37*
G36*
X0030000Y0024700D02*
X0029000Y0023200D01*
Y0023200D01*
X0029000Y0023200D01*
X0028991Y0023380D01*
X0028990Y0023390D01*
X0028960Y0023560D01*
X0028910Y0023710D01*
X0028840Y0023840D01*
X0028799Y0023889D01*
X0028750Y0023950D01*
X0028640Y0024040D01*
X0028510Y0024110D01*
X0028360Y0024160D01*
X0028309Y0024169D01*
X0028227Y0024155D01*
X0028097Y0024121D01*
X0027987Y0024076D01*
X0027897Y0024021D01*
X0027827Y0023957D01*
X0027777Y0023882D01*
X0027747Y0023798D01*
X0027737Y0023703D01*
Y0025697D01*
X0027747Y0025602D01*
X0027777Y0025518D01*
X0027827Y0025443D01*
X0027897Y0025379D01*
X0027987Y0025324D01*
X0028097Y0025279D01*
X0028227Y0025245D01*
X0028309Y0025231D01*
X0028360Y0025240D01*
X0028510Y0025290D01*
X0028640Y0025360D01*
X0028750Y0025450D01*
X0028840Y0025560D01*
X0028910Y0025690D01*
X0028960Y0025840D01*
X0028990Y0026010D01*
X0029000Y0026200D01*
X0029000Y0026200D01*
Y0026200D01*
X0030000Y0024700D01*
D02*
G37*
G36*
X0011951Y0020800D02*
X0011948Y0020829D01*
X0011939Y0020854D01*
X0011924Y0020876D01*
X0011903Y0020896D01*
X0011875Y0020913D01*
X0011842Y0020926D01*
X0011803Y0020937D01*
X0011757Y0020944D01*
X0011706Y0020948D01*
X0011648Y0020950D01*
Y0021250D01*
X0011706Y0021251D01*
X0011757Y0021256D01*
X0011803Y0021264D01*
X0011842Y0021274D01*
X0011875Y0021288D01*
X0011903Y0021304D01*
X0011924Y0021323D01*
X0011939Y0021346D01*
X0011948Y0021372D01*
X0011951Y0021400D01*
Y0020800D01*
D02*
G37*
G36*
X0009447Y0021372D02*
X0009456Y0021346D01*
X0009471Y0021323D01*
X0009492Y0021304D01*
X0009519Y0021288D01*
X0009553Y0021274D01*
X0009592Y0021264D01*
X0009638Y0021256D01*
X0009689Y0021251D01*
X0009747Y0021250D01*
Y0020950D01*
X0009689Y0020948D01*
X0009638Y0020944D01*
X0009592Y0020937D01*
X0009553Y0020926D01*
X0009519Y0020913D01*
X0009492Y0020896D01*
X0009471Y0020876D01*
X0009456Y0020854D01*
X0009447Y0020829D01*
X0009444Y0020800D01*
Y0021400D01*
X0009447Y0021372D01*
D02*
G37*
G36*
X0009151Y0021989D02*
X0009156Y0021938D01*
X0009163Y0021892D01*
X0009174Y0021853D01*
X0009188Y0021819D01*
X0009204Y0021792D01*
X0009224Y0021771D01*
X0009246Y0021756D01*
X0009271Y0021747D01*
X0009300Y0021744D01*
X0008700D01*
X0008729Y0021747D01*
X0008754Y0021756D01*
X0008776Y0021771D01*
X0008796Y0021792D01*
X0008812Y0021819D01*
X0008826Y0021853D01*
X0008837Y0021892D01*
X0008844Y0021938D01*
X0008849Y0021989D01*
X0008850Y0022047D01*
X0009150D01*
X0009151Y0021989D01*
D02*
G37*
G36*
X0007821Y0026063D02*
X0007805Y0026043D01*
X0007800Y0026016D01*
X0007806Y0025983D01*
X0007822Y0025943D01*
X0007848Y0025898D01*
X0007885Y0025846D01*
X0007933Y0025788D01*
X0008059Y0025653D01*
X0007647Y0025641D01*
X0007594Y0025692D01*
X0007496Y0025773D01*
X0007450Y0025804D01*
X0007407Y0025828D01*
X0007365Y0025846D01*
X0007326Y0025858D01*
X0007289Y0025863D01*
X0007255Y0025861D01*
X0007222Y0025853D01*
X0007847Y0026078D01*
X0007821Y0026063D01*
D02*
G37*
G36*
X0024542Y0028585D02*
X0024512Y0028471D01*
X0024486Y0028324D01*
X0024444Y0027934D01*
X0024416Y0027414D01*
X0024414Y0027329D01*
X0024512Y0025819D01*
X0024542Y0025705D01*
X0024576Y0025623D01*
X0022224D01*
X0022258Y0025705D01*
X0022288Y0025819D01*
X0022314Y0025966D01*
X0022356Y0026356D01*
X0022384Y0026876D01*
X0022386Y0026961D01*
X0022288Y0028471D01*
X0022258Y0028585D01*
X0022224Y0028667D01*
X0024576D01*
X0024542Y0028585D01*
D02*
G37*
G36*
X0013151Y0013243D02*
X0013163Y0013100D01*
X0013171Y0013058D01*
X0013180Y0013020D01*
X0013190Y0012984D01*
X0013203Y0012952D01*
X0013217Y0012923D01*
X0013233Y0012896D01*
X0012767D01*
X0012783Y0012923D01*
X0012797Y0012952D01*
X0012810Y0012984D01*
X0012820Y0013020D01*
X0012829Y0013058D01*
X0012837Y0013100D01*
X0012847Y0013192D01*
X0012849Y0013243D01*
X0012850Y0013297D01*
X0013150D01*
X0013151Y0013243D01*
D02*
G37*
G36*
X0015223Y0005223D02*
X0015213Y0005228D01*
X0015194Y0005233D01*
X0015165Y0005237D01*
X0015079Y0005243D01*
X0014700Y0005250D01*
Y0005550D01*
X0015223Y0005577D01*
Y0005223D01*
D02*
G37*
G36*
X0014406Y0005100D02*
X0014403Y0005128D01*
X0014394Y0005154D01*
X0014379Y0005176D01*
X0014358Y0005196D01*
X0014331Y0005213D01*
X0014297Y0005226D01*
X0014258Y0005236D01*
X0014212Y0005244D01*
X0014161Y0005248D01*
X0014103Y0005250D01*
Y0005550D01*
X0014161Y0005551D01*
X0014212Y0005556D01*
X0014258Y0005563D01*
X0014297Y0005574D01*
X0014331Y0005588D01*
X0014358Y0005604D01*
X0014379Y0005623D01*
X0014394Y0005646D01*
X0014403Y0005672D01*
X0014406Y0005700D01*
Y0005100D01*
D02*
G37*
G36*
X0018870Y0006063D02*
X0018824Y0006084D01*
X0018773Y0006093D01*
X0018716Y0006089D01*
X0018653Y0006072D01*
X0018585Y0006043D01*
X0018512Y0006002D01*
X0018433Y0005948D01*
X0018348Y0005881D01*
X0018259Y0005802D01*
X0018163Y0005710D01*
X0017650Y0005903D01*
X0017756Y0006013D01*
X0017921Y0006206D01*
X0017980Y0006290D01*
X0018023Y0006365D01*
X0018051Y0006432D01*
X0018063Y0006489D01*
X0018059Y0006538D01*
X0018039Y0006579D01*
X0018003Y0006610D01*
X0018870Y0006063D01*
D02*
G37*
G36*
X0024021Y0009188D02*
X0023943Y0009056D01*
X0023874Y0008897D01*
X0023815Y0008712D01*
X0023764Y0008499D01*
X0023723Y0008259D01*
X0023690Y0007916D01*
X0023690Y0007915D01*
X0023712Y0007859D01*
X0023740Y0007814D01*
X0023772Y0007779D01*
X0023810Y0007754D01*
X0023853Y0007739D01*
X0023900Y0007734D01*
X0023672D01*
X0023668Y0007699D01*
X0023655Y0007379D01*
X0023650Y0007032D01*
X0023150D01*
X0023145Y0007379D01*
X0023118Y0007734D01*
X0022900D01*
X0022948Y0007739D01*
X0022990Y0007754D01*
X0023028Y0007779D01*
X0023060Y0007814D01*
X0023087Y0007859D01*
X0023105Y0007902D01*
X0023077Y0008259D01*
X0023036Y0008499D01*
X0022985Y0008712D01*
X0022926Y0008897D01*
X0022857Y0009056D01*
X0022779Y0009188D01*
X0022692Y0009293D01*
X0024108D01*
X0024021Y0009188D01*
D02*
G37*
G36*
X0026761Y0053378D02*
X0026612Y0053287D01*
X0026127Y0052873D01*
X0025713Y0052388D01*
X0025380Y0051844D01*
X0025136Y0051255D01*
X0024987Y0050636D01*
X0024937Y0050000D01*
X0024987Y0049364D01*
X0025136Y0048745D01*
X0025380Y0048156D01*
X0025713Y0047612D01*
X0026127Y0047127D01*
X0026612Y0046713D01*
X0027156Y0046380D01*
X0027745Y0046136D01*
X0028364Y0045987D01*
X0029000Y0045937D01*
X0029636Y0045987D01*
X0030255Y0046136D01*
X0030844Y0046380D01*
X0031388Y0046713D01*
X0031873Y0047127D01*
X0032287Y0047612D01*
X0032378Y0047761D01*
X0032500Y0047726D01*
Y0006274D01*
X0032378Y0006239D01*
X0032287Y0006388D01*
X0031873Y0006873D01*
X0031388Y0007287D01*
X0030844Y0007620D01*
X0030255Y0007864D01*
X0029636Y0008013D01*
X0029000Y0008063D01*
X0028364Y0008013D01*
X0027745Y0007864D01*
X0027156Y0007620D01*
X0026612Y0007287D01*
X0026127Y0006873D01*
X0025713Y0006388D01*
X0025380Y0005844D01*
X0025136Y0005255D01*
X0024987Y0004636D01*
X0024937Y0004000D01*
X0024987Y0003364D01*
X0025136Y0002745D01*
X0025380Y0002156D01*
X0025713Y0001612D01*
X0026127Y0001127D01*
X0026612Y0000713D01*
X0026761Y0000622D01*
X0026726Y0000500D01*
X0006274D01*
X0006239Y0000622D01*
X0006388Y0000713D01*
X0006873Y0001127D01*
X0007287Y0001612D01*
X0007620Y0002156D01*
X0007817Y0002632D01*
X0007944Y0002607D01*
Y0001750D01*
X0007967Y0001633D01*
X0008034Y0001534D01*
X0008133Y0001467D01*
X0008250Y0001444D01*
X0009750D01*
X0009867Y0001467D01*
X0009966Y0001534D01*
X0010033Y0001633D01*
X0010056Y0001750D01*
Y0003250D01*
X0010131Y0003341D01*
X0010676D01*
X0010725Y0003214D01*
X0010583Y0003030D01*
X0010477Y0002774D01*
X0010441Y0002500D01*
X0010477Y0002226D01*
X0010583Y0001970D01*
X0010751Y0001751D01*
X0010970Y0001583D01*
X0011226Y0001477D01*
X0011500Y0001441D01*
X0011774Y0001477D01*
X0012030Y0001583D01*
X0012249Y0001751D01*
X0012261Y0001767D01*
X0012317Y0001820D01*
X0012444Y0001765D01*
Y0001750D01*
X0013400D01*
X0014356D01*
Y0001950D01*
X0014333Y0002067D01*
X0014266Y0002166D01*
X0014167Y0002233D01*
X0014050Y0002256D01*
X0013571D01*
X0013522Y0002373D01*
X0013724Y0002576D01*
X0013824Y0002724D01*
X0013828Y0002744D01*
X0014050D01*
X0014167Y0002767D01*
X0014266Y0002834D01*
X0014333Y0002933D01*
X0014356Y0003050D01*
Y0003950D01*
X0014351Y0003974D01*
X0014363Y0004003D01*
X0014456Y0004094D01*
X0016226D01*
X0016278Y0003967D01*
X0015956Y0003645D01*
X0015941Y0003635D01*
X0015914Y0003620D01*
X0015877Y0003606D01*
X0015832Y0003591D01*
X0015777Y0003579D01*
X0015717Y0003569D01*
X0015556Y0003557D01*
X0015483Y0003556D01*
X0015460Y0003559D01*
X0015186Y0003523D01*
X0014930Y0003417D01*
X0014711Y0003249D01*
X0014543Y0003030D01*
X0014437Y0002774D01*
X0014401Y0002500D01*
X0014437Y0002226D01*
X0014543Y0001970D01*
X0014711Y0001751D01*
X0014930Y0001583D01*
X0015186Y0001477D01*
X0015460Y0001441D01*
X0015734Y0001477D01*
X0015990Y0001583D01*
X0016209Y0001751D01*
X0016377Y0001970D01*
X0016483Y0002226D01*
X0016519Y0002500D01*
X0016516Y0002520D01*
X0016521Y0002684D01*
X0016529Y0002753D01*
X0016539Y0002817D01*
X0016551Y0002872D01*
X0016566Y0002917D01*
X0016580Y0002954D01*
X0016595Y0002981D01*
X0016605Y0002996D01*
X0016950Y0003341D01*
X0017176D01*
X0017225Y0003214D01*
X0017083Y0003030D01*
X0016977Y0002774D01*
X0016974Y0002750D01*
X0018000D01*
Y0002500D01*
X0018250D01*
Y0001474D01*
X0018274Y0001477D01*
X0018530Y0001583D01*
X0018725Y0001733D01*
X0018815Y0001716D01*
X0018863Y0001691D01*
X0018876Y0001624D01*
X0018976Y0001476D01*
X0019476Y0000976D01*
X0019624Y0000876D01*
X0019800Y0000841D01*
X0021880D01*
X0022056Y0000876D01*
X0022204Y0000976D01*
X0022604Y0001375D01*
X0022652Y0001420D01*
X0022683Y0001444D01*
X0023830D01*
X0023947Y0001467D01*
X0024046Y0001534D01*
X0024113Y0001633D01*
X0024136Y0001750D01*
Y0003250D01*
X0024113Y0003367D01*
X0024046Y0003466D01*
X0023947Y0003533D01*
X0023830Y0003556D01*
X0022346D01*
X0022314Y0003576D01*
X0022240Y0003668D01*
X0022259Y0003760D01*
Y0005653D01*
X0022386Y0005757D01*
X0022400Y0005754D01*
X0024400D01*
X0024517Y0005777D01*
X0024616Y0005844D01*
X0024683Y0005943D01*
X0024706Y0006060D01*
Y0007740D01*
X0024683Y0007857D01*
X0024616Y0007956D01*
X0024517Y0008023D01*
X0024400Y0008046D01*
X0024104D01*
X0024019Y0008140D01*
X0024027Y0008218D01*
X0024064Y0008438D01*
X0024110Y0008630D01*
X0024161Y0008790D01*
X0024169Y0008808D01*
X0024306Y0008864D01*
X0024577Y0009073D01*
X0024786Y0009344D01*
X0024917Y0009661D01*
X0024961Y0010000D01*
X0024917Y0010339D01*
X0024866Y0010461D01*
X0024859Y0010499D01*
X0024833Y0010562D01*
X0024816Y0010628D01*
X0024711Y0012239D01*
Y0013058D01*
X0024786Y0013154D01*
X0024917Y0013471D01*
X0024961Y0013810D01*
X0024917Y0014149D01*
X0024906Y0014175D01*
X0026525Y0015794D01*
X0027740D01*
X0027857Y0015817D01*
X0027956Y0015884D01*
X0028023Y0015983D01*
X0028046Y0016100D01*
Y0017315D01*
X0030071Y0019339D01*
X0030199Y0019507D01*
X0030279Y0019701D01*
X0030307Y0019910D01*
Y0024700D01*
Y0032300D01*
Y0041700D01*
X0030279Y0041909D01*
X0030199Y0042103D01*
X0030071Y0042271D01*
X0028623Y0043718D01*
X0028477Y0043869D01*
X0028323Y0044044D01*
X0028196Y0044202D01*
X0028099Y0044343D01*
X0028046Y0044436D01*
Y0045300D01*
X0028023Y0045417D01*
X0027956Y0045516D01*
X0027857Y0045583D01*
X0027740Y0045606D01*
X0026847D01*
X0026823Y0045619D01*
X0026681Y0045719D01*
X0026321Y0046025D01*
X0026162Y0046180D01*
X0024107Y0048234D01*
Y0048555D01*
X0024113Y0048720D01*
X0024121Y0048794D01*
X0024132Y0048862D01*
X0024146Y0048921D01*
X0024161Y0048969D01*
X0024176Y0049007D01*
X0024191Y0049036D01*
X0024204Y0049055D01*
X0024204Y0049055D01*
X0024227Y0049073D01*
X0024436Y0049344D01*
X0024567Y0049661D01*
X0024611Y0050000D01*
X0024567Y0050339D01*
X0024436Y0050656D01*
X0024227Y0050927D01*
X0023956Y0051136D01*
X0023639Y0051267D01*
X0023300Y0051311D01*
X0022961Y0051267D01*
X0022644Y0051136D01*
X0022373Y0050927D01*
X0022164Y0050656D01*
X0022033Y0050339D01*
X0021989Y0050000D01*
X0022033Y0049661D01*
X0022164Y0049344D01*
X0022373Y0049073D01*
X0022396Y0049055D01*
X0022396Y0049055D01*
X0022409Y0049035D01*
X0022424Y0049007D01*
X0022439Y0048969D01*
X0022454Y0048921D01*
X0022468Y0048862D01*
X0022478Y0048798D01*
X0022492Y0048626D01*
X0022493Y0048586D01*
Y0047900D01*
X0022521Y0047691D01*
X0022601Y0047497D01*
X0022729Y0047329D01*
X0025177Y0044882D01*
X0025323Y0044731D01*
X0025477Y0044556D01*
X0025604Y0044398D01*
X0025701Y0044257D01*
X0025754Y0044164D01*
Y0043300D01*
X0025777Y0043183D01*
X0025844Y0043084D01*
X0025943Y0043017D01*
X0026060Y0042994D01*
X0026953D01*
X0026977Y0042981D01*
X0027119Y0042881D01*
X0027479Y0042575D01*
X0027639Y0042420D01*
X0028693Y0041366D01*
Y0033789D01*
X0028686Y0033645D01*
X0028663Y0033515D01*
X0028628Y0033412D01*
X0028585Y0033331D01*
X0028533Y0033267D01*
X0028469Y0033215D01*
X0028388Y0033172D01*
X0028300Y0033143D01*
X0028291Y0033144D01*
X0028194Y0033170D01*
X0028125Y0033198D01*
X0028082Y0033224D01*
X0028061Y0033244D01*
X0028052Y0033256D01*
X0028047Y0033271D01*
X0028046Y0033282D01*
Y0033300D01*
X0028042Y0033321D01*
X0028041Y0033329D01*
X0028039Y0033336D01*
X0028023Y0033417D01*
X0028005Y0033443D01*
X0028005Y0033443D01*
X0028005Y0033443D01*
X0027956Y0033516D01*
X0027929Y0033534D01*
X0027929Y0033535D01*
X0027929Y0033535D01*
X0027857Y0033583D01*
X0027826Y0033589D01*
X0027823Y0033590D01*
X0027816Y0033591D01*
X0027740Y0033606D01*
X0026060D01*
X0025943Y0033583D01*
X0025844Y0033516D01*
X0025777Y0033417D01*
X0025754Y0033300D01*
Y0031300D01*
X0025777Y0031183D01*
X0025844Y0031084D01*
X0025943Y0031017D01*
X0026060Y0030994D01*
X0027740D01*
X0027816Y0031009D01*
X0027823Y0031010D01*
X0027826Y0031011D01*
X0027857Y0031017D01*
X0027929Y0031065D01*
X0027929Y0031065D01*
X0027929Y0031066D01*
X0027956Y0031084D01*
X0028005Y0031157D01*
X0028005Y0031157D01*
X0028005Y0031157D01*
X0028023Y0031183D01*
X0028039Y0031264D01*
X0028041Y0031271D01*
X0028042Y0031279D01*
X0028046Y0031300D01*
Y0031318D01*
X0028047Y0031329D01*
X0028052Y0031344D01*
X0028061Y0031356D01*
X0028082Y0031376D01*
X0028125Y0031402D01*
X0028194Y0031430D01*
X0028291Y0031456D01*
X0028300Y0031457D01*
X0028388Y0031428D01*
X0028469Y0031385D01*
X0028533Y0031333D01*
X0028585Y0031269D01*
X0028628Y0031188D01*
X0028663Y0031085D01*
X0028686Y0030955D01*
X0028693Y0030811D01*
Y0026189D01*
X0028686Y0026045D01*
X0028663Y0025915D01*
X0028628Y0025812D01*
X0028585Y0025731D01*
X0028533Y0025667D01*
X0028469Y0025615D01*
X0028388Y0025572D01*
X0028300Y0025543D01*
X0028291Y0025544D01*
X0028194Y0025570D01*
X0028125Y0025598D01*
X0028082Y0025624D01*
X0028061Y0025644D01*
X0028052Y0025656D01*
X0028047Y0025671D01*
X0028046Y0025682D01*
Y0025700D01*
X0028042Y0025721D01*
X0028041Y0025729D01*
X0028039Y0025736D01*
X0028023Y0025817D01*
X0028005Y0025843D01*
X0028005Y0025843D01*
X0028005Y0025843D01*
X0027956Y0025916D01*
X0027929Y0025934D01*
X0027929Y0025935D01*
X0027929Y0025935D01*
X0027857Y0025983D01*
X0027826Y0025989D01*
X0027823Y0025990D01*
X0027816Y0025991D01*
X0027740Y0026006D01*
X0026060D01*
X0025943Y0025983D01*
X0025844Y0025916D01*
X0025777Y0025817D01*
X0025754Y0025700D01*
Y0023700D01*
X0025777Y0023583D01*
X0025844Y0023484D01*
X0025943Y0023417D01*
X0026060Y0023394D01*
X0027740D01*
X0027816Y0023409D01*
X0027823Y0023410D01*
X0027826Y0023411D01*
X0027857Y0023417D01*
X0027929Y0023465D01*
X0027929Y0023465D01*
X0027929Y0023466D01*
X0027956Y0023484D01*
X0028005Y0023557D01*
X0028005Y0023557D01*
X0028005Y0023557D01*
X0028023Y0023583D01*
X0028039Y0023664D01*
X0028041Y0023671D01*
X0028042Y0023679D01*
X0028046Y0023700D01*
Y0023718D01*
X0028047Y0023729D01*
X0028052Y0023744D01*
X0028061Y0023756D01*
X0028082Y0023776D01*
X0028125Y0023802D01*
X0028194Y0023830D01*
X0028291Y0023856D01*
X0028300Y0023857D01*
X0028388Y0023828D01*
X0028469Y0023785D01*
X0028533Y0023733D01*
X0028585Y0023669D01*
X0028628Y0023588D01*
X0028663Y0023485D01*
X0028686Y0023355D01*
X0028693Y0023211D01*
Y0020244D01*
X0026855Y0018406D01*
X0026060D01*
X0025943Y0018383D01*
X0025844Y0018316D01*
X0025777Y0018217D01*
X0025754Y0018100D01*
Y0017305D01*
X0023570Y0015121D01*
X0023150D01*
X0022811Y0015077D01*
X0022494Y0014946D01*
X0022223Y0014737D01*
X0022014Y0014466D01*
X0021986Y0014396D01*
X0021859Y0014422D01*
Y0017008D01*
X0021986Y0017034D01*
X0022014Y0016964D01*
X0022223Y0016693D01*
X0022494Y0016484D01*
X0022811Y0016353D01*
X0023150Y0016309D01*
X0023650D01*
X0023989Y0016353D01*
X0024306Y0016484D01*
X0024577Y0016693D01*
X0024786Y0016964D01*
X0024917Y0017281D01*
X0024961Y0017620D01*
X0024917Y0017959D01*
X0024866Y0018081D01*
X0024859Y0018119D01*
X0024833Y0018182D01*
X0024816Y0018248D01*
X0024721Y0019716D01*
X0024722Y0019784D01*
X0024743Y0020189D01*
X0026900D01*
X0026941Y0020194D01*
X0027740D01*
X0027857Y0020217D01*
X0027956Y0020284D01*
X0028023Y0020383D01*
X0028046Y0020500D01*
Y0020869D01*
X0028167Y0021161D01*
X0028211Y0021500D01*
X0028167Y0021839D01*
X0028046Y0022131D01*
Y0022500D01*
X0028023Y0022617D01*
X0027956Y0022716D01*
X0027857Y0022783D01*
X0027740Y0022806D01*
X0026941D01*
X0026900Y0022811D01*
X0023987D01*
X0022858Y0023839D01*
X0022914Y0023960D01*
X0023150Y0023929D01*
X0023650D01*
X0023989Y0023973D01*
X0024306Y0024104D01*
X0024577Y0024313D01*
X0024786Y0024584D01*
X0024917Y0024901D01*
X0024961Y0025240D01*
X0024917Y0025579D01*
X0024866Y0025701D01*
X0024859Y0025739D01*
X0024833Y0025802D01*
X0024816Y0025868D01*
X0024721Y0027336D01*
X0024722Y0027404D01*
X0024742Y0027789D01*
X0026900D01*
X0026941Y0027794D01*
X0027740D01*
X0027857Y0027817D01*
X0027956Y0027884D01*
X0028023Y0027983D01*
X0028046Y0028100D01*
Y0028469D01*
X0028167Y0028761D01*
X0028211Y0029100D01*
X0028167Y0029439D01*
X0028046Y0029731D01*
Y0030100D01*
X0028023Y0030217D01*
X0027956Y0030316D01*
X0027857Y0030383D01*
X0027740Y0030406D01*
X0026941D01*
X0026900Y0030411D01*
X0023922D01*
X0023918Y0030415D01*
X0023797Y0030597D01*
X0022945Y0031448D01*
X0023005Y0031568D01*
X0023150Y0031549D01*
X0023650D01*
X0023989Y0031593D01*
X0024306Y0031724D01*
X0024577Y0031933D01*
X0024786Y0032204D01*
X0024917Y0032521D01*
X0024961Y0032860D01*
X0024917Y0033199D01*
X0024866Y0033321D01*
X0024859Y0033359D01*
X0024833Y0033422D01*
X0024816Y0033488D01*
X0024721Y0034956D01*
X0024722Y0035024D01*
X0024741Y0035389D01*
X0026900D01*
X0026941Y0035394D01*
X0027740D01*
X0027857Y0035417D01*
X0027956Y0035484D01*
X0028023Y0035583D01*
X0028046Y0035700D01*
Y0036069D01*
X0028167Y0036361D01*
X0028211Y0036700D01*
X0028167Y0037039D01*
X0028046Y0037331D01*
Y0037700D01*
X0028023Y0037817D01*
X0027956Y0037916D01*
X0027857Y0037983D01*
X0027740Y0038006D01*
X0026941D01*
X0026900Y0038011D01*
X0023430D01*
X0023353Y0038001D01*
X0023268Y0038017D01*
X0022998Y0038083D01*
X0022890Y0038117D01*
X0022795Y0038154D01*
X0022714Y0038191D01*
X0022649Y0038228D01*
X0022605Y0038258D01*
X0022567Y0038297D01*
X0022385Y0038418D01*
X0022170Y0038461D01*
X0021488D01*
X0021402Y0038466D01*
X0021366Y0038501D01*
X0021414Y0038631D01*
X0021557Y0038639D01*
X0022120D01*
X0022335Y0038682D01*
X0022517Y0038803D01*
X0022780Y0039067D01*
X0022820Y0039102D01*
X0022879Y0039147D01*
X0023053Y0038973D01*
X0023053Y0038973D01*
X0023324Y0038764D01*
X0023641Y0038633D01*
X0023980Y0038589D01*
X0026900D01*
X0026941Y0038594D01*
X0027740D01*
X0027857Y0038617D01*
X0027956Y0038684D01*
X0028023Y0038783D01*
X0028046Y0038900D01*
Y0039269D01*
X0028167Y0039561D01*
X0028211Y0039900D01*
X0028167Y0040239D01*
X0028046Y0040531D01*
Y0040900D01*
X0028023Y0041017D01*
X0027956Y0041116D01*
X0027857Y0041183D01*
X0027740Y0041206D01*
X0026941D01*
X0026900Y0041211D01*
X0024809D01*
X0024721Y0042576D01*
X0024722Y0042644D01*
X0024749Y0043149D01*
X0024789Y0043521D01*
X0024811Y0043645D01*
X0024833Y0043728D01*
X0024859Y0043791D01*
X0024866Y0043829D01*
X0024917Y0043951D01*
X0024961Y0044290D01*
X0024917Y0044629D01*
X0024786Y0044946D01*
X0024577Y0045217D01*
X0024306Y0045426D01*
X0023989Y0045557D01*
X0023650Y0045601D01*
X0023486D01*
X0023410Y0045611D01*
X0023334Y0045601D01*
X0023150D01*
X0022811Y0045557D01*
X0022494Y0045426D01*
X0022223Y0045217D01*
X0022014Y0044946D01*
X0021883Y0044629D01*
X0021839Y0044290D01*
X0021883Y0043951D01*
X0021934Y0043829D01*
X0021941Y0043791D01*
X0021967Y0043728D01*
X0021984Y0043662D01*
X0022080Y0042194D01*
X0022078Y0042126D01*
X0022051Y0041621D01*
X0022011Y0041250D01*
X0021989Y0041125D01*
X0021969Y0041051D01*
X0021941Y0041045D01*
X0021804Y0041031D01*
X0021463D01*
X0021351Y0041035D01*
X0021267Y0041043D01*
X0021247Y0041046D01*
X0021240Y0041047D01*
X0021232Y0041050D01*
X0021199Y0041054D01*
X0021060Y0041082D01*
X0020140D01*
X0019906Y0041035D01*
X0019707Y0040903D01*
X0019575Y0040704D01*
X0019528Y0040470D01*
X0019575Y0040236D01*
X0019707Y0040037D01*
X0019906Y0039905D01*
X0019931Y0039900D01*
Y0039770D01*
X0019906Y0039765D01*
X0019707Y0039633D01*
X0019575Y0039434D01*
X0019528Y0039200D01*
X0019575Y0038966D01*
X0019707Y0038767D01*
X0019906Y0038635D01*
X0019931Y0038630D01*
Y0038500D01*
X0019906Y0038495D01*
X0019707Y0038363D01*
X0019575Y0038164D01*
X0019528Y0037930D01*
X0019575Y0037696D01*
X0019707Y0037497D01*
X0019906Y0037365D01*
X0019931Y0037360D01*
Y0037230D01*
X0019906Y0037225D01*
X0019707Y0037093D01*
X0019575Y0036894D01*
X0019528Y0036660D01*
X0019575Y0036426D01*
X0019707Y0036227D01*
X0019906Y0036095D01*
X0020140Y0036048D01*
X0021060D01*
X0021199Y0036076D01*
X0021232Y0036080D01*
X0021236Y0036081D01*
X0021557Y0036099D01*
X0021824D01*
X0021873Y0036096D01*
X0021942Y0036086D01*
X0021975Y0036079D01*
X0021984Y0036042D01*
X0022080Y0034574D01*
X0022078Y0034506D01*
X0022051Y0034001D01*
X0022011Y0033630D01*
X0021989Y0033505D01*
X0021967Y0033422D01*
X0021941Y0033359D01*
X0021934Y0033321D01*
X0021883Y0033199D01*
X0021839Y0032860D01*
X0021883Y0032521D01*
X0022005Y0032228D01*
X0021973Y0032151D01*
X0021934Y0032101D01*
X0020863D01*
X0020751Y0032105D01*
X0020667Y0032113D01*
X0020647Y0032116D01*
X0020640Y0032117D01*
X0020632Y0032120D01*
X0020599Y0032124D01*
X0020460Y0032152D01*
X0019540D01*
X0019306Y0032105D01*
X0019107Y0031973D01*
X0018975Y0031774D01*
X0018928Y0031540D01*
X0018975Y0031306D01*
X0019107Y0031107D01*
X0019306Y0030975D01*
X0019331Y0030970D01*
Y0030840D01*
X0019306Y0030835D01*
X0019107Y0030703D01*
X0018975Y0030504D01*
X0018928Y0030270D01*
X0018975Y0030036D01*
X0019107Y0029837D01*
X0019306Y0029705D01*
X0019331Y0029700D01*
Y0029570D01*
X0019306Y0029565D01*
X0019107Y0029433D01*
X0018975Y0029234D01*
X0018928Y0029000D01*
X0018975Y0028766D01*
X0019107Y0028567D01*
X0019306Y0028435D01*
X0019331Y0028430D01*
Y0028300D01*
X0019306Y0028295D01*
X0019107Y0028163D01*
X0018975Y0027964D01*
X0018928Y0027730D01*
X0018975Y0027496D01*
X0019107Y0027297D01*
X0019239Y0027210D01*
X0019052Y0026916D01*
X0018953Y0026781D01*
X0018942Y0026757D01*
X0018864Y0026656D01*
X0018733Y0026339D01*
X0018689Y0026000D01*
Y0024830D01*
X0018689Y0024830D01*
X0018723Y0024567D01*
X0018604Y0024498D01*
X0018556Y0024536D01*
X0018239Y0024667D01*
X0017900Y0024711D01*
X0017561Y0024667D01*
X0017244Y0024536D01*
X0016973Y0024327D01*
X0016764Y0024056D01*
X0016633Y0023739D01*
X0016589Y0023400D01*
X0016633Y0023061D01*
X0016764Y0022744D01*
X0016973Y0022473D01*
X0017197Y0022301D01*
X0017143Y0022182D01*
X0017000Y0022211D01*
X0016785Y0022168D01*
X0016704Y0022114D01*
X0016600Y0022049D01*
X0016496Y0022114D01*
X0016415Y0022168D01*
X0016200Y0022211D01*
X0015985Y0022168D01*
X0015967Y0022156D01*
X0015855Y0022233D01*
X0015824Y0022388D01*
X0015724Y0022537D01*
X0012959Y0025302D01*
Y0027046D01*
X0013067Y0027067D01*
X0013166Y0027134D01*
X0013233Y0027233D01*
X0013256Y0027350D01*
Y0028481D01*
X0013383Y0028564D01*
X0013500Y0028541D01*
X0013599D01*
X0013651Y0028538D01*
X0013764Y0028463D01*
X0013745Y0028364D01*
X0013729Y0028334D01*
X0013623Y0028313D01*
X0013524Y0028246D01*
X0013457Y0028147D01*
X0013434Y0028030D01*
Y0027980D01*
X0015566D01*
Y0028030D01*
X0015543Y0028147D01*
X0015476Y0028246D01*
X0015377Y0028313D01*
X0015271Y0028334D01*
X0015255Y0028364D01*
X0015236Y0028463D01*
X0015393Y0028567D01*
X0015525Y0028766D01*
X0015572Y0029000D01*
X0015525Y0029234D01*
X0015393Y0029433D01*
X0015194Y0029565D01*
X0015169Y0029570D01*
Y0029700D01*
X0015194Y0029705D01*
X0015393Y0029837D01*
X0015515Y0030020D01*
X0013485D01*
X0013607Y0029837D01*
X0013806Y0029705D01*
X0013831Y0029700D01*
Y0029570D01*
X0013806Y0029565D01*
X0013673Y0029476D01*
X0013024Y0030124D01*
X0012876Y0030224D01*
X0012700Y0030259D01*
X0011754D01*
X0011733Y0030367D01*
X0011666Y0030466D01*
X0011567Y0030533D01*
X0011450Y0030556D01*
X0010150D01*
X0010059Y0030631D01*
Y0030969D01*
X0010150Y0031044D01*
X0010550D01*
Y0031800D01*
X0010800D01*
Y0032050D01*
X0011756D01*
Y0032250D01*
X0011733Y0032367D01*
X0011666Y0032466D01*
X0011655Y0032474D01*
Y0032626D01*
X0011666Y0032634D01*
X0011733Y0032733D01*
X0011756Y0032850D01*
Y0033750D01*
X0011769Y0033766D01*
X0011824D01*
X0011944Y0033645D01*
Y0032850D01*
X0011967Y0032733D01*
X0012034Y0032634D01*
X0012133Y0032567D01*
X0012250Y0032544D01*
X0012441D01*
Y0031900D01*
X0012476Y0031724D01*
X0012576Y0031576D01*
X0012936Y0031216D01*
X0013084Y0031116D01*
X0013260Y0031081D01*
X0013548D01*
X0013558Y0031081D01*
X0013586Y0031077D01*
X0013613Y0031073D01*
X0013637Y0031067D01*
X0013657Y0031061D01*
X0013673Y0031055D01*
X0013686Y0031049D01*
X0013696Y0031043D01*
X0013715Y0031030D01*
X0013740Y0031019D01*
X0013806Y0030975D01*
X0013831Y0030970D01*
Y0030840D01*
X0013806Y0030835D01*
X0013607Y0030703D01*
X0013485Y0030520D01*
X0015515D01*
X0015393Y0030703D01*
X0015194Y0030835D01*
X0015169Y0030840D01*
Y0030970D01*
X0015194Y0030975D01*
X0015393Y0031107D01*
X0015525Y0031306D01*
X0015572Y0031540D01*
X0015525Y0031774D01*
X0015393Y0031973D01*
X0015194Y0032105D01*
X0014960Y0032152D01*
X0014040D01*
X0013806Y0032105D01*
X0013740Y0032061D01*
X0013715Y0032050D01*
X0013696Y0032037D01*
X0013686Y0032031D01*
X0013673Y0032025D01*
X0013657Y0032019D01*
X0013637Y0032013D01*
X0013613Y0032007D01*
X0013590Y0032003D01*
X0013542Y0031999D01*
X0013450D01*
X0013359Y0032090D01*
Y0032544D01*
X0013550D01*
X0013667Y0032567D01*
X0013766Y0032634D01*
X0013833Y0032733D01*
X0013856Y0032850D01*
Y0033750D01*
X0013833Y0033867D01*
X0013766Y0033966D01*
X0013667Y0034033D01*
X0013550Y0034056D01*
X0013348D01*
X0013324Y0034176D01*
X0013224Y0034324D01*
X0013122Y0034427D01*
X0013171Y0034544D01*
X0013550D01*
X0013667Y0034567D01*
X0013766Y0034634D01*
X0013833Y0034733D01*
X0013856Y0034850D01*
Y0035050D01*
X0012900D01*
Y0035550D01*
X0013856D01*
Y0035750D01*
X0013833Y0035867D01*
X0013766Y0035966D01*
X0013667Y0036033D01*
X0013654Y0036035D01*
Y0036165D01*
X0013667Y0036167D01*
X0013766Y0036234D01*
X0013833Y0036333D01*
X0013856Y0036450D01*
Y0037350D01*
X0013961Y0037471D01*
X0014148D01*
X0014158Y0037471D01*
X0014186Y0037468D01*
X0014213Y0037463D01*
X0014237Y0037457D01*
X0014257Y0037451D01*
X0014273Y0037445D01*
X0014286Y0037439D01*
X0014296Y0037433D01*
X0014315Y0037420D01*
X0014329Y0037414D01*
X0014344Y0037292D01*
X0014329Y0037264D01*
X0014223Y0037243D01*
X0014124Y0037176D01*
X0014057Y0037077D01*
X0014034Y0036960D01*
Y0036910D01*
X0016166D01*
Y0036960D01*
X0016143Y0037077D01*
X0016076Y0037176D01*
X0015977Y0037243D01*
X0015871Y0037264D01*
X0015855Y0037294D01*
X0015836Y0037393D01*
X0015993Y0037497D01*
X0016125Y0037696D01*
X0016172Y0037930D01*
X0016125Y0038164D01*
X0015993Y0038363D01*
X0015794Y0038495D01*
X0015769Y0038500D01*
Y0038630D01*
X0015794Y0038635D01*
X0015993Y0038767D01*
X0016115Y0038950D01*
X0015100D01*
Y0039450D01*
X0016115D01*
X0015993Y0039633D01*
X0015794Y0039765D01*
X0015769Y0039770D01*
Y0039900D01*
X0015794Y0039905D01*
X0015993Y0040037D01*
X0016125Y0040236D01*
X0016172Y0040470D01*
X0016125Y0040704D01*
X0015993Y0040903D01*
X0015794Y0041035D01*
X0015560Y0041082D01*
X0014640D01*
X0014406Y0041035D01*
X0014340Y0040991D01*
X0014315Y0040980D01*
X0014296Y0040967D01*
X0014286Y0040961D01*
X0014273Y0040955D01*
X0014257Y0040949D01*
X0014237Y0040943D01*
X0014213Y0040937D01*
X0014190Y0040933D01*
X0014142Y0040929D01*
X0013856D01*
Y0040950D01*
X0013833Y0041067D01*
X0013766Y0041166D01*
X0013667Y0041233D01*
X0013550Y0041256D01*
X0013348D01*
X0013324Y0041376D01*
X0013224Y0041524D01*
X0013132Y0041617D01*
X0013184Y0041744D01*
X0013550D01*
X0013667Y0041767D01*
X0013766Y0041834D01*
X0013833Y0041933D01*
X0013856Y0042050D01*
Y0042250D01*
X0012900D01*
X0011944D01*
Y0042050D01*
X0011850Y0041938D01*
X0011758Y0042047D01*
X0011756Y0042056D01*
Y0042950D01*
X0011733Y0043067D01*
X0011666Y0043166D01*
X0011567Y0043233D01*
X0011450Y0043256D01*
X0010150D01*
X0010033Y0043233D01*
X0009934Y0043166D01*
X0009867Y0043067D01*
X0009844Y0042950D01*
Y0042050D01*
X0009867Y0041933D01*
X0009934Y0041834D01*
X0010033Y0041767D01*
X0010150Y0041744D01*
X0010341D01*
Y0041700D01*
X0010376Y0041524D01*
X0010471Y0041383D01*
X0010459Y0041327D01*
X0010429Y0041256D01*
X0010150D01*
X0010033Y0041233D01*
X0009934Y0041166D01*
X0009867Y0041067D01*
X0009844Y0040950D01*
Y0040948D01*
X0009724Y0040924D01*
X0009576Y0040824D01*
X0009376Y0040624D01*
X0009276Y0040476D01*
X0009241Y0040300D01*
Y0037790D01*
X0008776Y0037324D01*
X0008676Y0037176D01*
X0008641Y0037000D01*
Y0034339D01*
X0008076Y0033773D01*
X0007976Y0033624D01*
X0007941Y0033449D01*
Y0029131D01*
X0007850Y0029056D01*
X0007450D01*
Y0028300D01*
Y0027544D01*
X0007850D01*
X0007941Y0027469D01*
Y0027131D01*
X0007850Y0027056D01*
X0006550D01*
X0006433Y0027033D01*
X0006334Y0026966D01*
X0006267Y0026867D01*
X0006244Y0026750D01*
Y0025884D01*
X0006159Y0025835D01*
X0006120Y0025829D01*
X0005424Y0026524D01*
X0005276Y0026624D01*
X0005100Y0026659D01*
X0005056D01*
Y0026750D01*
X0005033Y0026867D01*
X0004966Y0026966D01*
X0004867Y0027033D01*
X0004750Y0027056D01*
X0004150D01*
X0004086Y0027043D01*
X0003959Y0027124D01*
Y0027695D01*
X0004016Y0027734D01*
X0004083Y0027833D01*
X0004106Y0027950D01*
Y0029050D01*
X0004083Y0029167D01*
X0004016Y0029266D01*
X0003959Y0029305D01*
Y0029446D01*
X0004067Y0029467D01*
X0004166Y0029534D01*
X0004233Y0029633D01*
X0004256Y0029750D01*
Y0031050D01*
X0004233Y0031167D01*
X0004166Y0031266D01*
X0004067Y0031333D01*
X0003950Y0031356D01*
X0003050D01*
X0002933Y0031333D01*
X0002834Y0031266D01*
X0002767Y0031167D01*
X0002744Y0031050D01*
Y0029750D01*
X0002767Y0029633D01*
X0002834Y0029534D01*
X0002933Y0029467D01*
X0003041Y0029446D01*
Y0029305D01*
X0002984Y0029266D01*
X0002917Y0029167D01*
X0002894Y0029050D01*
Y0027950D01*
X0002917Y0027833D01*
X0002984Y0027734D01*
X0003041Y0027695D01*
Y0025300D01*
X0003076Y0025124D01*
X0003176Y0024976D01*
X0003228Y0024923D01*
X0003179Y0024806D01*
X0003000D01*
X0002883Y0024783D01*
X0002784Y0024716D01*
X0002717Y0024617D01*
X0002694Y0024500D01*
Y0023250D01*
X0002717Y0023133D01*
X0002784Y0023034D01*
X0002883Y0022967D01*
X0003000Y0022944D01*
X0005000D01*
X0005117Y0022967D01*
X0005216Y0023034D01*
X0005283Y0023133D01*
X0005306Y0023250D01*
Y0024500D01*
X0005283Y0024617D01*
X0005216Y0024716D01*
X0005117Y0024783D01*
X0005000Y0024806D01*
X0004458D01*
X0004424Y0024976D01*
X0004324Y0025124D01*
X0004232Y0025217D01*
X0004284Y0025344D01*
X0004750D01*
X0004867Y0025367D01*
X0004966Y0025434D01*
X0004995Y0025477D01*
X0005147Y0025505D01*
X0005541Y0025110D01*
Y0021500D01*
X0005576Y0021324D01*
X0005676Y0021176D01*
X0006076Y0020776D01*
X0006224Y0020676D01*
X0006244Y0020672D01*
Y0020450D01*
X0006267Y0020333D01*
X0006334Y0020234D01*
X0006433Y0020167D01*
X0006541Y0020146D01*
Y0019456D01*
X0006350D01*
X0006233Y0019433D01*
X0006134Y0019366D01*
X0006067Y0019267D01*
X0006044Y0019150D01*
Y0018250D01*
X0006067Y0018133D01*
X0006134Y0018034D01*
X0006233Y0017967D01*
X0006350Y0017944D01*
X0007650D01*
X0007767Y0017967D01*
X0007866Y0018034D01*
X0007933Y0018133D01*
X0007956Y0018250D01*
Y0019150D01*
X0007933Y0019267D01*
X0007866Y0019366D01*
X0007767Y0019433D01*
X0007650Y0019456D01*
X0007459D01*
Y0020146D01*
X0007567Y0020167D01*
X0007666Y0020234D01*
X0007733Y0020333D01*
X0007756Y0020450D01*
Y0021750D01*
X0007733Y0021867D01*
X0007666Y0021966D01*
X0007619Y0021998D01*
X0007665Y0022120D01*
X0007900Y0022089D01*
X0008239Y0022133D01*
X0008369Y0022187D01*
X0008480Y0022096D01*
X0008469Y0022040D01*
X0008433Y0022033D01*
X0008334Y0021966D01*
X0008267Y0021867D01*
X0008244Y0021750D01*
Y0020450D01*
X0008267Y0020333D01*
X0008334Y0020234D01*
X0008433Y0020167D01*
X0008550Y0020144D01*
X0009450D01*
X0009567Y0020167D01*
X0009666Y0020234D01*
X0009733Y0020333D01*
X0009756Y0020450D01*
Y0020641D01*
X0011639D01*
Y0020550D01*
X0011682Y0020335D01*
X0011803Y0020153D01*
X0011985Y0020032D01*
X0012200Y0019989D01*
X0012415Y0020032D01*
X0012496Y0020086D01*
X0012600Y0020151D01*
X0012704Y0020086D01*
X0012785Y0020032D01*
X0013000Y0019989D01*
X0013215Y0020032D01*
X0013296Y0020086D01*
X0013400Y0020151D01*
X0013504Y0020086D01*
X0013585Y0020032D01*
X0013800Y0019989D01*
X0014015Y0020032D01*
X0014096Y0020086D01*
X0014200Y0020151D01*
X0014304Y0020086D01*
X0014385Y0020032D01*
X0014600Y0019989D01*
X0014815Y0020032D01*
X0014896Y0020086D01*
X0015000Y0020151D01*
X0015104Y0020086D01*
X0015185Y0020032D01*
X0015400Y0019989D01*
X0015615Y0020032D01*
X0015696Y0020086D01*
X0015800Y0020151D01*
X0015904Y0020086D01*
X0015985Y0020032D01*
X0016200Y0019989D01*
X0016415Y0020032D01*
X0016496Y0020086D01*
X0016600Y0020151D01*
X0016704Y0020086D01*
X0016785Y0020032D01*
X0017000Y0019989D01*
X0017215Y0020032D01*
X0017296Y0020086D01*
X0017400Y0020151D01*
X0017504Y0020086D01*
X0017585Y0020032D01*
X0017800Y0019989D01*
X0018015Y0020032D01*
X0018197Y0020153D01*
X0018318Y0020335D01*
X0018361Y0020550D01*
Y0021650D01*
X0018318Y0021865D01*
X0018225Y0022004D01*
X0018231Y0022055D01*
X0018258Y0022129D01*
X0018271Y0022146D01*
X0018556Y0022264D01*
X0018827Y0022473D01*
X0019036Y0022744D01*
X0019167Y0023061D01*
X0019211Y0023400D01*
X0019183Y0023613D01*
X0019303Y0023672D01*
X0020832Y0022144D01*
X0021440Y0021520D01*
X0021831Y0021083D01*
X0021899Y0020997D01*
X0021933Y0020946D01*
X0021945Y0020922D01*
X0021967Y0020868D01*
X0021984Y0020802D01*
X0022080Y0019334D01*
X0022078Y0019266D01*
X0022051Y0018761D01*
X0022011Y0018389D01*
X0021989Y0018265D01*
X0021967Y0018182D01*
X0021838Y0018203D01*
X0021824Y0018276D01*
X0021724Y0018424D01*
X0021149Y0018999D01*
X0021001Y0019099D01*
X0020825Y0019134D01*
X0020568D01*
X0020508Y0019246D01*
X0020518Y0019260D01*
X0020561Y0019475D01*
X0020518Y0019690D01*
X0020397Y0019872D01*
X0020215Y0019993D01*
X0020000Y0020036D01*
X0018900D01*
X0018685Y0019993D01*
X0018503Y0019872D01*
X0018382Y0019690D01*
X0018339Y0019475D01*
X0018382Y0019260D01*
X0018436Y0019179D01*
X0018501Y0019075D01*
X0018436Y0018971D01*
X0018382Y0018890D01*
X0018339Y0018675D01*
X0018382Y0018460D01*
X0018436Y0018379D01*
X0018501Y0018275D01*
X0018436Y0018171D01*
X0018382Y0018090D01*
X0018339Y0017875D01*
X0018382Y0017660D01*
X0018436Y0017579D01*
X0018501Y0017475D01*
X0018436Y0017371D01*
X0018382Y0017290D01*
X0018339Y0017075D01*
X0018382Y0016860D01*
X0018436Y0016779D01*
X0018501Y0016675D01*
X0018436Y0016571D01*
X0018382Y0016490D01*
X0018339Y0016275D01*
X0018382Y0016060D01*
X0018436Y0015979D01*
X0018501Y0015875D01*
X0018436Y0015771D01*
X0018382Y0015690D01*
X0018339Y0015475D01*
X0018382Y0015260D01*
X0018436Y0015179D01*
X0018501Y0015075D01*
X0018436Y0014971D01*
X0018382Y0014890D01*
X0018339Y0014675D01*
X0018382Y0014460D01*
X0018436Y0014379D01*
X0018501Y0014275D01*
X0018436Y0014171D01*
X0018419Y0014146D01*
X0018268Y0014117D01*
X0018186Y0014199D01*
X0018037Y0014299D01*
X0017861Y0014334D01*
X0011693D01*
X0011644Y0014425D01*
X0011179D01*
X0011125Y0014436D01*
X0010575D01*
X0010025D01*
X0009971Y0014425D01*
X0009506D01*
X0009457Y0014334D01*
X0009115D01*
X0008824Y0014624D01*
X0008676Y0014724D01*
X0008500Y0014759D01*
X0008031D01*
X0007956Y0014850D01*
Y0015750D01*
X0007933Y0015867D01*
X0007866Y0015966D01*
Y0016034D01*
X0007933Y0016133D01*
X0007956Y0016250D01*
Y0017150D01*
X0007933Y0017267D01*
X0007866Y0017366D01*
X0007767Y0017433D01*
X0007650Y0017456D01*
X0006350D01*
X0006233Y0017433D01*
X0006134Y0017366D01*
X0006067Y0017267D01*
X0006044Y0017150D01*
Y0016250D01*
X0006067Y0016133D01*
X0006134Y0016034D01*
Y0015966D01*
X0006067Y0015867D01*
X0006044Y0015750D01*
Y0015555D01*
X0005917Y0015530D01*
X0005749Y0015749D01*
X0005530Y0015917D01*
X0005274Y0016023D01*
X0005000Y0016059D01*
X0004000D01*
X0003726Y0016023D01*
X0003470Y0015917D01*
X0003251Y0015749D01*
X0003083Y0015530D01*
X0002977Y0015274D01*
X0002941Y0015000D01*
X0002977Y0014726D01*
X0003083Y0014470D01*
X0003251Y0014251D01*
X0003470Y0014083D01*
X0003726Y0013977D01*
X0004000Y0013941D01*
X0005000D01*
X0005274Y0013977D01*
X0005530Y0014083D01*
X0005749Y0014251D01*
X0005917Y0014470D01*
X0005945Y0014538D01*
X0005971Y0014541D01*
X0006632D01*
X0006676Y0014476D01*
X0006978Y0014173D01*
X0006929Y0014056D01*
X0006350D01*
X0006233Y0014033D01*
X0006134Y0013966D01*
X0006067Y0013867D01*
X0006046Y0013759D01*
X0005300D01*
X0005124Y0013724D01*
X0004976Y0013624D01*
X0004910Y0013559D01*
X0004750D01*
Y0012500D01*
Y0011441D01*
X0004910D01*
X0004976Y0011376D01*
X0005124Y0011276D01*
X0005300Y0011241D01*
X0006046D01*
X0006067Y0011133D01*
X0006134Y0011034D01*
X0006233Y0010967D01*
X0006350Y0010944D01*
X0006750D01*
Y0011700D01*
X0007000D01*
Y0011950D01*
X0007956D01*
Y0012150D01*
X0007933Y0012267D01*
X0007866Y0012366D01*
X0007767Y0012433D01*
X0007754Y0012435D01*
Y0012565D01*
X0007767Y0012567D01*
X0007866Y0012634D01*
X0007933Y0012733D01*
X0007956Y0012850D01*
Y0013050D01*
X0007000D01*
Y0013550D01*
X0007956D01*
Y0013750D01*
X0008031Y0013841D01*
X0008310D01*
X0008601Y0013551D01*
X0008749Y0013451D01*
X0008925Y0013416D01*
X0009613D01*
X0009682Y0013409D01*
X0009705Y0013405D01*
X0009726Y0013400D01*
X0009742Y0013395D01*
X0009752Y0013391D01*
X0009758Y0013388D01*
X0009772Y0013380D01*
X0009781Y0013376D01*
X0009810Y0013357D01*
X0009868Y0013345D01*
X0009884Y0013340D01*
X0009894Y0013340D01*
X0010025Y0013314D01*
X0011125D01*
X0011256Y0013340D01*
X0011266Y0013340D01*
X0011282Y0013345D01*
X0011340Y0013357D01*
X0011369Y0013376D01*
X0011378Y0013380D01*
X0011392Y0013388D01*
X0011398Y0013391D01*
X0011408Y0013395D01*
X0011424Y0013400D01*
X0011445Y0013405D01*
X0011465Y0013408D01*
X0011557Y0013416D01*
X0011904D01*
X0011942Y0013289D01*
X0011803Y0013197D01*
X0011682Y0013015D01*
X0011639Y0012800D01*
Y0011700D01*
X0011682Y0011485D01*
X0011803Y0011303D01*
X0011985Y0011182D01*
X0012200Y0011139D01*
X0012415Y0011182D01*
X0012429Y0011192D01*
X0012541Y0011132D01*
Y0010956D01*
X0012350D01*
X0012233Y0010933D01*
X0012134Y0010866D01*
X0012067Y0010767D01*
X0012044Y0010650D01*
Y0009750D01*
X0012067Y0009633D01*
X0012134Y0009534D01*
X0012233Y0009467D01*
X0012350Y0009444D01*
X0013650D01*
X0013717Y0009457D01*
X0013844Y0009378D01*
Y0009350D01*
X0013867Y0009233D01*
X0013934Y0009134D01*
Y0009066D01*
X0013891Y0009002D01*
X0013806Y0008954D01*
X0013732Y0008939D01*
X0013650Y0008956D01*
X0013250D01*
Y0008200D01*
Y0007444D01*
X0013650D01*
X0013732Y0007461D01*
X0013806Y0007446D01*
X0013891Y0007398D01*
X0013934Y0007334D01*
X0014033Y0007267D01*
X0014150Y0007244D01*
X0014350D01*
Y0008200D01*
X0014600D01*
Y0008450D01*
X0015356D01*
Y0008850D01*
X0015333Y0008967D01*
X0015266Y0009066D01*
Y0009134D01*
X0015333Y0009233D01*
X0015356Y0009350D01*
Y0010650D01*
X0015333Y0010767D01*
X0015266Y0010866D01*
X0015167Y0010933D01*
X0015059Y0010954D01*
Y0011132D01*
X0015150Y0011181D01*
Y0011646D01*
X0015161Y0011700D01*
Y0012250D01*
X0015639D01*
Y0011700D01*
X0015650Y0011646D01*
Y0011206D01*
X0015696Y0011236D01*
X0015800Y0011301D01*
X0015904Y0011236D01*
X0015985Y0011182D01*
X0016200Y0011139D01*
X0016415Y0011182D01*
X0016496Y0011236D01*
X0016600Y0011301D01*
X0016704Y0011236D01*
X0016785Y0011182D01*
X0017000Y0011139D01*
X0017215Y0011182D01*
X0017218Y0011184D01*
X0017356Y0011124D01*
X0017376Y0011024D01*
X0017404Y0010982D01*
X0017376Y0010930D01*
X0017355Y0010918D01*
X0017222Y0010896D01*
X0017167Y0010933D01*
X0017050Y0010956D01*
X0016850D01*
Y0010000D01*
X0016600D01*
Y0009750D01*
X0015844D01*
Y0009350D01*
X0015867Y0009233D01*
X0015934Y0009134D01*
Y0009066D01*
X0015867Y0008967D01*
X0015844Y0008850D01*
Y0007550D01*
X0015867Y0007433D01*
X0015934Y0007334D01*
X0016033Y0007267D01*
X0016150Y0007244D01*
X0017050D01*
X0017167Y0007267D01*
X0017266Y0007334D01*
X0017333Y0007433D01*
X0017356Y0007550D01*
Y0007941D01*
X0017632D01*
X0017709Y0007814D01*
X0017694Y0007740D01*
Y0006415D01*
X0017679Y0006394D01*
X0017551Y0006244D01*
X0017268Y0005961D01*
X0016787D01*
X0016754Y0005964D01*
X0016706Y0005972D01*
Y0006400D01*
X0016683Y0006517D01*
X0016616Y0006616D01*
X0016517Y0006683D01*
X0016400Y0006706D01*
X0014400D01*
X0014283Y0006683D01*
X0014184Y0006616D01*
X0014117Y0006517D01*
X0014094Y0006400D01*
Y0005859D01*
X0012900D01*
X0012724Y0005824D01*
X0012576Y0005724D01*
X0011728Y0004877D01*
X0011620Y0004949D01*
X0011667Y0005061D01*
X0011678Y0005150D01*
X0010400D01*
Y0005400D01*
X0010150D01*
Y0006678D01*
X0010061Y0006667D01*
X0009744Y0006536D01*
X0009473Y0006327D01*
X0009286Y0006083D01*
X0009159Y0006115D01*
Y0009100D01*
X0009124Y0009276D01*
X0009024Y0009424D01*
X0008124Y0010324D01*
X0007976Y0010424D01*
X0007800Y0010459D01*
X0005946D01*
X0005917Y0010530D01*
X0005749Y0010749D01*
X0005530Y0010917D01*
X0005274Y0011023D01*
X0005000Y0011059D01*
X0004000D01*
X0003726Y0011023D01*
X0003470Y0010917D01*
X0003251Y0010749D01*
X0003083Y0010530D01*
X0002977Y0010274D01*
X0002941Y0010000D01*
X0002977Y0009726D01*
X0003083Y0009470D01*
X0003251Y0009251D01*
X0003470Y0009083D01*
X0003726Y0008977D01*
X0004000Y0008941D01*
X0005000D01*
X0005274Y0008977D01*
X0005530Y0009083D01*
X0005749Y0009251D01*
X0005917Y0009470D01*
X0006044Y0009445D01*
Y0009250D01*
X0006067Y0009133D01*
X0006134Y0009034D01*
X0006233Y0008967D01*
X0006350Y0008944D01*
X0007650D01*
X0007767Y0008967D01*
X0007866Y0009034D01*
X0007895Y0009077D01*
X0008047Y0009105D01*
X0008241Y0008910D01*
Y0004800D01*
X0008276Y0004624D01*
X0008376Y0004476D01*
X0009178Y0003673D01*
X0009129Y0003556D01*
X0008250D01*
X0008153Y0003537D01*
X0008078Y0003580D01*
X0008032Y0003618D01*
X0008063Y0004000D01*
X0008013Y0004636D01*
X0007864Y0005255D01*
X0007620Y0005844D01*
X0007287Y0006388D01*
X0006873Y0006873D01*
X0006388Y0007287D01*
X0005844Y0007620D01*
X0005255Y0007864D01*
X0004636Y0008013D01*
X0004000Y0008063D01*
X0003364Y0008013D01*
X0002745Y0007864D01*
X0002156Y0007620D01*
X0001612Y0007287D01*
X0001127Y0006873D01*
X0000713Y0006388D01*
X0000622Y0006239D01*
X0000500Y0006274D01*
Y0047726D01*
X0000622Y0047761D01*
X0000713Y0047612D01*
X0001127Y0047127D01*
X0001612Y0046713D01*
X0002156Y0046380D01*
X0002745Y0046136D01*
X0003364Y0045987D01*
X0004000Y0045937D01*
X0004636Y0045987D01*
X0005255Y0046136D01*
X0005844Y0046380D01*
X0006388Y0046713D01*
X0006873Y0047127D01*
X0007287Y0047612D01*
X0007620Y0048156D01*
X0007864Y0048745D01*
X0008013Y0049364D01*
X0008063Y0050000D01*
X0008013Y0050636D01*
X0007864Y0051255D01*
X0007620Y0051844D01*
X0007287Y0052388D01*
X0006873Y0052873D01*
X0006388Y0053287D01*
X0006239Y0053378D01*
X0006274Y0053500D01*
X0026726D01*
X0026761Y0053378D01*
D02*
G37*
G36*
X0016399Y0005852D02*
X0016414Y0005810D01*
X0016439Y0005773D01*
X0016474Y0005740D01*
X0016519Y0005713D01*
X0016575Y0005690D01*
X0016640Y0005673D01*
X0016716Y0005660D01*
X0016801Y0005653D01*
X0016897Y0005650D01*
Y0005150D01*
X0016801Y0005148D01*
X0016716Y0005140D01*
X0016640Y0005128D01*
X0016575Y0005110D01*
X0016519Y0005088D01*
X0016474Y0005060D01*
X0016439Y0005028D01*
X0016414Y0004990D01*
X0016399Y0004948D01*
X0016394Y0004900D01*
Y0005900D01*
X0016399Y0005852D01*
D02*
G37*
G36*
X0012108Y0002954D02*
X0012248Y0002834D01*
X0012316Y0002785D01*
X0012382Y0002744D01*
X0012446Y0002710D01*
X0012508Y0002684D01*
X0012569Y0002665D01*
X0012628Y0002654D01*
X0012685Y0002650D01*
Y0002350D01*
X0012628Y0002346D01*
X0012569Y0002335D01*
X0012508Y0002316D01*
X0012446Y0002290D01*
X0012382Y0002256D01*
X0012316Y0002215D01*
X0012248Y0002166D01*
X0012179Y0002110D01*
X0012036Y0001975D01*
Y0003025D01*
X0012108Y0002954D01*
D02*
G37*
G36*
X0022758Y0001753D02*
X0022734Y0001770D01*
X0022707Y0001779D01*
X0022675D01*
X0022639Y0001770D01*
X0022598Y0001753D01*
X0022554Y0001728D01*
X0022505Y0001694D01*
X0022452Y0001651D01*
X0022333Y0001541D01*
X0022121Y0001753D01*
X0022181Y0001815D01*
X0022274Y0001925D01*
X0022308Y0001974D01*
X0022333Y0002018D01*
X0022350Y0002059D01*
X0022359Y0002095D01*
Y0002127D01*
X0022350Y0002154D01*
X0022333Y0002178D01*
X0022758Y0001753D01*
D02*
G37*
G36*
X0016404Y0003232D02*
X0016366Y0003189D01*
X0016332Y0003139D01*
X0016303Y0003083D01*
X0016277Y0003020D01*
X0016256Y0002951D01*
X0016238Y0002875D01*
X0016225Y0002793D01*
X0016216Y0002704D01*
X0016210Y0002507D01*
X0015467Y0003250D01*
X0015569Y0003251D01*
X0015753Y0003265D01*
X0015835Y0003278D01*
X0015911Y0003296D01*
X0015980Y0003317D01*
X0016043Y0003343D01*
X0016099Y0003372D01*
X0016149Y0003406D01*
X0016192Y0003444D01*
X0016404Y0003232D01*
D02*
G37*
G36*
X0013553Y0003052D02*
X0013552Y0003047D01*
X0013552Y0003039D01*
X0013550Y0002900D01*
X0013250D01*
X0013247Y0003053D01*
X0013553D01*
X0013553Y0003052D01*
D02*
G37*
G36*
X0021484Y0003232D02*
X0021446Y0003189D01*
X0021412Y0003139D01*
X0021383Y0003083D01*
X0021357Y0003020D01*
X0021336Y0002951D01*
X0021318Y0002875D01*
X0021305Y0002793D01*
X0021296Y0002704D01*
X0021290Y0002507D01*
X0020548Y0003250D01*
X0020649Y0003251D01*
X0020833Y0003265D01*
X0020915Y0003278D01*
X0020991Y0003296D01*
X0021060Y0003317D01*
X0021123Y0003343D01*
X0021179Y0003372D01*
X0021229Y0003406D01*
X0021272Y0003444D01*
X0021484Y0003232D01*
D02*
G37*
G36*
X0017047Y0008672D02*
X0017056Y0008646D01*
X0017071Y0008623D01*
X0017092Y0008604D01*
X0017119Y0008587D01*
X0017153Y0008574D01*
X0017192Y0008564D01*
X0017238Y0008556D01*
X0017289Y0008552D01*
X0017347Y0008550D01*
Y0008250D01*
X0017289Y0008248D01*
X0017238Y0008244D01*
X0017192Y0008236D01*
X0017153Y0008226D01*
X0017119Y0008212D01*
X0017092Y0008196D01*
X0017071Y0008177D01*
X0017056Y0008154D01*
X0017047Y0008128D01*
X0017044Y0008100D01*
Y0008700D01*
X0017047Y0008672D01*
D02*
G37*
G36*
X0018028Y0011451D02*
X0018012Y0011443D01*
X0017997Y0011431D01*
X0017985Y0011413D01*
X0017974Y0011390D01*
X0017965Y0011362D01*
X0017959Y0011329D01*
X0017954Y0011291D01*
X0017951Y0011248D01*
X0017950Y0011200D01*
X0017650D01*
X0017649Y0011248D01*
X0017641Y0011329D01*
X0017635Y0011362D01*
X0017626Y0011390D01*
X0017615Y0011413D01*
X0017603Y0011431D01*
X0017588Y0011443D01*
X0017572Y0011451D01*
X0017553Y0011453D01*
X0018047D01*
X0018028Y0011451D01*
D02*
G37*
G36*
X0020251Y0010889D02*
X0020256Y0010838D01*
X0020264Y0010792D01*
X0020274Y0010753D01*
X0020288Y0010719D01*
X0020304Y0010692D01*
X0020323Y0010671D01*
X0020346Y0010656D01*
X0020372Y0010647D01*
X0020400Y0010644D01*
X0019800D01*
X0019829Y0010647D01*
X0019854Y0010656D01*
X0019876Y0010671D01*
X0019896Y0010692D01*
X0019913Y0010719D01*
X0019926Y0010753D01*
X0019937Y0010792D01*
X0019944Y0010838D01*
X0019948Y0010889D01*
X0019950Y0010947D01*
X0020250D01*
X0020251Y0010889D01*
D02*
G37*
G36*
X0013217Y0011577D02*
X0013203Y0011548D01*
X0013190Y0011516D01*
X0013180Y0011480D01*
X0013171Y0011442D01*
X0013163Y0011400D01*
X0013153Y0011308D01*
X0013151Y0011257D01*
X0013150Y0011203D01*
X0012850D01*
X0012849Y0011257D01*
X0012837Y0011400D01*
X0012829Y0011442D01*
X0012820Y0011480D01*
X0012810Y0011516D01*
X0012797Y0011548D01*
X0012783Y0011577D01*
X0012767Y0011604D01*
X0013233D01*
X0013217Y0011577D01*
D02*
G37*
G36*
X0006356Y0011400D02*
X0006353Y0011429D01*
X0006344Y0011454D01*
X0006329Y0011476D01*
X0006308Y0011496D01*
X0006281Y0011512D01*
X0006247Y0011526D01*
X0006208Y0011536D01*
X0006162Y0011544D01*
X0006111Y0011549D01*
X0006053Y0011550D01*
Y0011850D01*
X0006111Y0011851D01*
X0006162Y0011856D01*
X0006208Y0011863D01*
X0006247Y0011874D01*
X0006281Y0011887D01*
X0006308Y0011904D01*
X0006329Y0011924D01*
X0006344Y0011946D01*
X0006353Y0011972D01*
X0006356Y0012000D01*
Y0011400D01*
D02*
G37*
G36*
X0014817Y0011577D02*
X0014803Y0011548D01*
X0014790Y0011516D01*
X0014780Y0011480D01*
X0014771Y0011442D01*
X0014763Y0011400D01*
X0014753Y0011308D01*
X0014751Y0011257D01*
X0014750Y0011203D01*
X0014450D01*
X0014449Y0011257D01*
X0014437Y0011400D01*
X0014429Y0011442D01*
X0014420Y0011480D01*
X0014410Y0011516D01*
X0014397Y0011548D01*
X0014383Y0011577D01*
X0014367Y0011604D01*
X0014833D01*
X0014817Y0011577D01*
D02*
G37*
G36*
X0018251Y0010851D02*
X0018259Y0010769D01*
X0018267Y0010736D01*
X0018276Y0010708D01*
X0018287Y0010685D01*
X0018301Y0010667D01*
X0018316Y0010654D01*
X0018334Y0010646D01*
X0018353Y0010644D01*
X0017847D01*
X0017866Y0010646D01*
X0017884Y0010654D01*
X0017899Y0010667D01*
X0017913Y0010685D01*
X0017924Y0010708D01*
X0017933Y0010736D01*
X0017941Y0010769D01*
X0017946Y0010808D01*
X0017949Y0010851D01*
X0017950Y0010900D01*
X0018250D01*
X0018251Y0010851D01*
D02*
G37*
G36*
X0018372Y0009350D02*
X0018346Y0009341D01*
X0018323Y0009326D01*
X0018304Y0009305D01*
X0018288Y0009278D01*
X0018274Y0009245D01*
X0018264Y0009206D01*
X0018256Y0009161D01*
X0018251Y0009110D01*
X0018250Y0009053D01*
X0017950D01*
X0017948Y0009110D01*
X0017944Y0009161D01*
X0017937Y0009206D01*
X0017926Y0009245D01*
X0017913Y0009278D01*
X0017896Y0009305D01*
X0017876Y0009326D01*
X0017854Y0009341D01*
X0017829Y0009350D01*
X0017800Y0009353D01*
X0018400D01*
X0018372Y0009350D01*
D02*
G37*
G36*
X0018253Y0008793D02*
X0018262Y0008742D01*
X0018277Y0008697D01*
X0018298Y0008658D01*
X0018325Y0008625D01*
X0018358Y0008598D01*
X0018397Y0008577D01*
X0018442Y0008562D01*
X0018493Y0008553D01*
X0018550Y0008550D01*
X0018100Y0008250D01*
X0017650Y0008550D01*
X0017707Y0008553D01*
X0017758Y0008562D01*
X0017803Y0008577D01*
X0017842Y0008598D01*
X0017875Y0008625D01*
X0017902Y0008658D01*
X0017923Y0008697D01*
X0017938Y0008742D01*
X0017947Y0008793D01*
X0017950Y0008850D01*
X0018250D01*
X0018253Y0008793D01*
D02*
G37*
G36*
X0024402Y0012285D02*
X0024512Y0010579D01*
X0024542Y0010465D01*
X0024576Y0010383D01*
X0022224D01*
X0022258Y0010465D01*
X0022288Y0010579D01*
X0022314Y0010726D01*
X0022356Y0011116D01*
X0022384Y0011636D01*
X0022400Y0012658D01*
X0024400D01*
X0024402Y0012285D01*
D02*
G37*
G36*
X0014752Y0010889D02*
X0014756Y0010838D01*
X0014764Y0010792D01*
X0014774Y0010753D01*
X0014788Y0010719D01*
X0014804Y0010692D01*
X0014823Y0010671D01*
X0014846Y0010656D01*
X0014872Y0010647D01*
X0014900Y0010644D01*
X0014300D01*
X0014328Y0010647D01*
X0014354Y0010656D01*
X0014377Y0010671D01*
X0014396Y0010692D01*
X0014413Y0010719D01*
X0014426Y0010753D01*
X0014436Y0010792D01*
X0014444Y0010838D01*
X0014448Y0010889D01*
X0014450Y0010947D01*
X0014750D01*
X0014752Y0010889D01*
D02*
G37*
G36*
X0013151D02*
X0013156Y0010838D01*
X0013163Y0010792D01*
X0013174Y0010753D01*
X0013188Y0010719D01*
X0013204Y0010692D01*
X0013224Y0010671D01*
X0013246Y0010656D01*
X0013271Y0010647D01*
X0013300Y0010644D01*
X0012700D01*
X0012729Y0010647D01*
X0012754Y0010656D01*
X0012776Y0010671D01*
X0012796Y0010692D01*
X0012812Y0010719D01*
X0012826Y0010753D01*
X0012837Y0010792D01*
X0012844Y0010838D01*
X0012849Y0010889D01*
X0012850Y0010947D01*
X0013150D01*
X0013151Y0010889D01*
D02*
G37*
G36*
X0010771Y0029350D02*
X0010746Y0029341D01*
X0010724Y0029326D01*
X0010704Y0029305D01*
X0010688Y0029278D01*
X0010674Y0029245D01*
X0010663Y0029206D01*
X0010656Y0029161D01*
X0010651Y0029110D01*
X0010650Y0029053D01*
X0010350D01*
X0010349Y0029110D01*
X0010344Y0029161D01*
X0010337Y0029206D01*
X0010326Y0029245D01*
X0010312Y0029278D01*
X0010296Y0029305D01*
X0010276Y0029326D01*
X0010254Y0029341D01*
X0010229Y0029350D01*
X0010200Y0029353D01*
X0010800D01*
X0010771Y0029350D01*
D02*
G37*
G36*
X0011034Y0034851D02*
X0011016Y0034843D01*
X0011001Y0034831D01*
X0010987Y0034813D01*
X0010976Y0034790D01*
X0010967Y0034762D01*
X0010959Y0034729D01*
X0010954Y0034691D01*
X0010951Y0034648D01*
X0010950Y0034600D01*
X0010650D01*
X0010649Y0034648D01*
X0010641Y0034729D01*
X0010633Y0034762D01*
X0010624Y0034790D01*
X0010613Y0034813D01*
X0010599Y0034831D01*
X0010584Y0034843D01*
X0010566Y0034851D01*
X0010547Y0034853D01*
X0011053D01*
X0011034Y0034851D01*
D02*
G37*
G36*
X0013847Y0039050D02*
X0013789Y0039049D01*
X0013738Y0039044D01*
X0013693Y0039036D01*
X0013653Y0039026D01*
X0013620Y0039013D01*
X0013593Y0038996D01*
X0013571Y0038977D01*
X0013556Y0038954D01*
X0013547Y0038929D01*
X0013544Y0038900D01*
X0013547Y0039347D01*
X0013847Y0039350D01*
Y0039050D01*
D02*
G37*
G36*
X0027685Y0044793D02*
X0027662Y0044696D01*
X0027666Y0044586D01*
X0027697Y0044463D01*
X0027755Y0044328D01*
X0027839Y0044180D01*
X0027951Y0044020D01*
X0028088Y0043847D01*
X0028253Y0043661D01*
X0028444Y0043463D01*
X0027897Y0042596D01*
X0027684Y0042802D01*
X0027307Y0043123D01*
X0027141Y0043239D01*
X0026992Y0043325D01*
X0026859Y0043381D01*
X0026741Y0043407D01*
X0026639Y0043403D01*
X0026553Y0043370D01*
X0026482Y0043306D01*
X0027734Y0044878D01*
X0027685Y0044793D01*
D02*
G37*
G36*
X0030000Y0032300D02*
X0029000Y0030800D01*
Y0030800D01*
X0029000Y0030800D01*
X0028991Y0030980D01*
X0028990Y0030990D01*
X0028960Y0031160D01*
X0028910Y0031310D01*
X0028872Y0031380D01*
X0028840Y0031440D01*
X0028750Y0031550D01*
X0028640Y0031640D01*
X0028510Y0031710D01*
X0028360Y0031760D01*
X0028309Y0031769D01*
X0028227Y0031755D01*
X0028097Y0031721D01*
X0027987Y0031676D01*
X0027897Y0031621D01*
X0027827Y0031557D01*
X0027777Y0031482D01*
X0027747Y0031398D01*
X0027737Y0031303D01*
Y0033297D01*
X0027747Y0033202D01*
X0027777Y0033118D01*
X0027827Y0033043D01*
X0027897Y0032979D01*
X0027987Y0032924D01*
X0028097Y0032879D01*
X0028227Y0032845D01*
X0028309Y0032831D01*
X0028360Y0032840D01*
X0028510Y0032890D01*
X0028640Y0032960D01*
X0028750Y0033050D01*
X0028840Y0033160D01*
X0028910Y0033290D01*
X0028960Y0033440D01*
X0028990Y0033610D01*
X0029000Y0033800D01*
X0029000Y0033800D01*
Y0033800D01*
X0030000Y0032300D01*
D02*
G37*
G36*
X0013172Y0032850D02*
X0013146Y0032841D01*
X0013123Y0032826D01*
X0013104Y0032805D01*
X0013087Y0032778D01*
X0013074Y0032745D01*
X0013064Y0032706D01*
X0013056Y0032661D01*
X0013052Y0032610D01*
X0013050Y0032553D01*
X0012750D01*
X0012748Y0032610D01*
X0012744Y0032661D01*
X0012736Y0032706D01*
X0012726Y0032745D01*
X0012712Y0032778D01*
X0012696Y0032805D01*
X0012677Y0032826D01*
X0012654Y0032841D01*
X0012628Y0032850D01*
X0012600Y0032853D01*
X0013200D01*
X0013172Y0032850D01*
D02*
G37*
G36*
X0010156Y0033147D02*
X0010155Y0033147D01*
X0010150Y0033148D01*
X0010142Y0033148D01*
X0010000Y0033150D01*
Y0033450D01*
X0010156Y0033453D01*
Y0033147D01*
D02*
G37*
G36*
X0013051Y0033951D02*
X0013059Y0033869D01*
X0013067Y0033836D01*
X0013076Y0033808D01*
X0013087Y0033785D01*
X0013101Y0033767D01*
X0013116Y0033754D01*
X0013134Y0033746D01*
X0013153Y0033744D01*
X0012647D01*
X0012666Y0033746D01*
X0012684Y0033754D01*
X0012699Y0033767D01*
X0012713Y0033785D01*
X0012724Y0033808D01*
X0012733Y0033836D01*
X0012741Y0033869D01*
X0012746Y0033908D01*
X0012749Y0033951D01*
X0012750Y0034000D01*
X0013050D01*
X0013051Y0033951D01*
D02*
G37*
G36*
X0011071Y0042050D02*
X0011046Y0042041D01*
X0011024Y0042026D01*
X0011004Y0042005D01*
X0010988Y0041978D01*
X0010974Y0041945D01*
X0010964Y0041906D01*
X0010956Y0041861D01*
X0010951Y0041810D01*
X0010950Y0041753D01*
X0010650D01*
X0010649Y0041810D01*
X0010644Y0041861D01*
X0010637Y0041906D01*
X0010626Y0041945D01*
X0010613Y0041978D01*
X0010596Y0042005D01*
X0010576Y0042026D01*
X0010554Y0042041D01*
X0010528Y0042050D01*
X0010500Y0042053D01*
X0011100D01*
X0011071Y0042050D01*
D02*
G37*
G36*
X0013350Y0037780D02*
X0013293Y0037777D01*
X0013242Y0037768D01*
X0013197Y0037753D01*
X0013158Y0037732D01*
X0013125Y0037705D01*
X0013098Y0037672D01*
X0013077Y0037633D01*
X0013062Y0037588D01*
X0013055Y0037549D01*
X0013056Y0037538D01*
X0013064Y0037492D01*
X0013074Y0037453D01*
X0013087Y0037419D01*
X0013104Y0037392D01*
X0013123Y0037371D01*
X0013146Y0037356D01*
X0013172Y0037347D01*
X0013200Y0037344D01*
X0012600D01*
X0012628Y0037347D01*
X0012654Y0037356D01*
X0012677Y0037371D01*
X0012696Y0037392D01*
X0012712Y0037419D01*
X0012726Y0037453D01*
X0012736Y0037492D01*
X0012744Y0037538D01*
X0012745Y0037549D01*
X0012738Y0037588D01*
X0012723Y0037633D01*
X0012702Y0037672D01*
X0012675Y0037705D01*
X0012642Y0037732D01*
X0012603Y0037753D01*
X0012558Y0037768D01*
X0012507Y0037777D01*
X0012450Y0037780D01*
X0012900Y0038080D01*
X0013350Y0037780D01*
D02*
G37*
G36*
X0021225Y0038182D02*
X0021248Y0038175D01*
X0021281Y0038169D01*
X0021323Y0038164D01*
X0021501Y0038154D01*
X0021761Y0038150D01*
X0021660Y0037650D01*
X0021138Y0037641D01*
X0021210Y0038189D01*
X0021225Y0038182D01*
D02*
G37*
G36*
X0014490Y0037671D02*
X0014460Y0037691D01*
X0014428Y0037710D01*
X0014393Y0037727D01*
X0014356Y0037741D01*
X0014316Y0037753D01*
X0014274Y0037763D01*
X0014230Y0037770D01*
X0014182Y0037776D01*
X0014081Y0037780D01*
Y0038080D01*
X0014133Y0038081D01*
X0014230Y0038090D01*
X0014274Y0038097D01*
X0014316Y0038107D01*
X0014356Y0038119D01*
X0014393Y0038133D01*
X0014428Y0038150D01*
X0014460Y0038169D01*
X0014490Y0038189D01*
Y0037671D01*
D02*
G37*
G36*
X0011034Y0038451D02*
X0011016Y0038443D01*
X0011001Y0038431D01*
X0010987Y0038413D01*
X0010976Y0038390D01*
X0010967Y0038362D01*
X0010959Y0038329D01*
X0010954Y0038291D01*
X0010951Y0038248D01*
X0010950Y0038200D01*
X0010650D01*
X0010649Y0038248D01*
X0010641Y0038329D01*
X0010633Y0038362D01*
X0010624Y0038390D01*
X0010613Y0038413D01*
X0010599Y0038431D01*
X0010584Y0038443D01*
X0010566Y0038451D01*
X0010547Y0038453D01*
X0011053D01*
X0011034Y0038451D01*
D02*
G37*
G36*
X0010156Y0036647D02*
X0010154Y0036666D01*
X0010146Y0036684D01*
X0010133Y0036699D01*
X0010115Y0036713D01*
X0010092Y0036724D01*
X0010064Y0036733D01*
X0010031Y0036741D01*
X0009992Y0036746D01*
X0009949Y0036749D01*
X0009900Y0036750D01*
Y0037050D01*
X0009949Y0037051D01*
X0010031Y0037059D01*
X0010064Y0037067D01*
X0010092Y0037076D01*
X0010115Y0037087D01*
X0010133Y0037101D01*
X0010146Y0037116D01*
X0010154Y0037134D01*
X0010156Y0037153D01*
Y0036647D01*
D02*
G37*
G36*
X0022411Y0038021D02*
X0022487Y0037968D01*
X0022575Y0037918D01*
X0022676Y0037872D01*
X0022789Y0037829D01*
X0022915Y0037789D01*
X0023203Y0037718D01*
X0023366Y0037687D01*
X0023541Y0037660D01*
X0023183Y0037302D01*
X0023263Y0037232D01*
X0023320Y0037198D01*
X0023366Y0037177D01*
X0023400Y0037170D01*
X0023037Y0036806D01*
Y0036306D01*
X0023007Y0036326D01*
X0022960Y0036344D01*
X0022896Y0036359D01*
X0022814Y0036373D01*
X0022598Y0036393D01*
X0022292Y0036404D01*
X0022294Y0036287D01*
X0024576D01*
X0024542Y0036205D01*
X0024512Y0036091D01*
X0024486Y0035944D01*
X0024444Y0035554D01*
X0024416Y0035034D01*
X0024414Y0034949D01*
X0024512Y0033439D01*
X0024542Y0033325D01*
X0024576Y0033243D01*
X0022224D01*
X0022258Y0033325D01*
X0022288Y0033439D01*
X0022314Y0033586D01*
X0022356Y0033976D01*
X0022384Y0034496D01*
X0022386Y0034581D01*
X0022288Y0036091D01*
X0022258Y0036205D01*
X0022224Y0036287D01*
X0022240D01*
X0022239Y0036288D01*
X0022196Y0036321D01*
X0022142Y0036348D01*
X0022075Y0036370D01*
X0021996Y0036388D01*
X0021905Y0036400D01*
X0021802Y0036408D01*
X0021693Y0036410D01*
X0021628Y0036410D01*
X0021191Y0036385D01*
X0021160Y0036378D01*
X0021138Y0036371D01*
Y0036949D01*
X0021160Y0036942D01*
X0021191Y0036935D01*
X0021230Y0036929D01*
X0021331Y0036920D01*
X0021542Y0036912D01*
X0021693Y0036910D01*
X0021796Y0036912D01*
X0021990Y0036932D01*
X0022068Y0036950D01*
X0022135Y0036972D01*
X0022189Y0036999D01*
X0022231Y0037032D01*
X0022261Y0037069D01*
X0022279Y0037111D01*
X0022280Y0037122D01*
X0022257Y0037107D01*
X0022281Y0037127D01*
X0022283Y0037148D01*
X0022281Y0037155D01*
X0022241Y0037281D01*
X0022198Y0037394D01*
X0022152Y0037495D01*
X0022102Y0037583D01*
X0022049Y0037659D01*
X0021993Y0037723D01*
X0022347Y0038077D01*
X0022411Y0038021D01*
D02*
G37*
G36*
X0021160Y0039482D02*
X0021191Y0039475D01*
X0021230Y0039469D01*
X0021331Y0039460D01*
X0021542Y0039452D01*
X0021722Y0039450D01*
Y0038950D01*
X0021628Y0038950D01*
X0021191Y0038925D01*
X0021160Y0038918D01*
X0021138Y0038911D01*
Y0039489D01*
X0021160Y0039482D01*
D02*
G37*
G36*
X0024542Y0043825D02*
X0024512Y0043711D01*
X0024486Y0043564D01*
X0024444Y0043174D01*
X0024416Y0042654D01*
X0024414Y0042569D01*
X0024512Y0041059D01*
X0024542Y0040945D01*
X0024576Y0040863D01*
X0022285D01*
X0022287Y0040731D01*
X0022896Y0040771D01*
X0022960Y0040786D01*
X0023007Y0040804D01*
X0023037Y0040824D01*
Y0040324D01*
X0023390Y0039970D01*
X0023356Y0039963D01*
X0023310Y0039942D01*
X0023253Y0039908D01*
X0023186Y0039860D01*
X0023019Y0039722D01*
X0022907Y0039618D01*
X0023110Y0039485D01*
X0023065Y0039507D01*
X0023016Y0039518D01*
X0022962Y0039517D01*
X0022904Y0039504D01*
X0022841Y0039480D01*
X0022774Y0039444D01*
X0022702Y0039397D01*
X0022626Y0039339D01*
X0022545Y0039268D01*
X0022460Y0039187D01*
X0022041Y0039475D01*
X0022121Y0039558D01*
X0022241Y0039706D01*
X0022282Y0039771D01*
X0022309Y0039831D01*
X0022325Y0039885D01*
X0022327Y0039933D01*
X0022316Y0039975D01*
X0022294Y0040010D01*
X0022295Y0039971D01*
X0022289Y0040016D01*
X0022257Y0040043D01*
X0022286Y0040023D01*
X0022270Y0040061D01*
X0022239Y0040098D01*
X0022196Y0040131D01*
X0022142Y0040158D01*
X0022075Y0040180D01*
X0021996Y0040198D01*
X0021905Y0040210D01*
X0021802Y0040218D01*
X0021693Y0040220D01*
X0021628Y0040220D01*
X0021191Y0040195D01*
X0021160Y0040188D01*
X0021138Y0040181D01*
Y0040759D01*
X0021160Y0040752D01*
X0021191Y0040745D01*
X0021230Y0040739D01*
X0021331Y0040730D01*
X0021542Y0040722D01*
X0021693Y0040720D01*
X0021796Y0040722D01*
X0021990Y0040742D01*
X0022068Y0040760D01*
X0022135Y0040782D01*
X0022189Y0040809D01*
X0022231Y0040842D01*
X0022248Y0040863D01*
X0022224D01*
X0022258Y0040945D01*
X0022288Y0041059D01*
X0022314Y0041206D01*
X0022356Y0041596D01*
X0022384Y0042116D01*
X0022386Y0042201D01*
X0022288Y0043711D01*
X0022258Y0043825D01*
X0022224Y0043907D01*
X0024576D01*
X0024542Y0043825D01*
D02*
G37*
G36*
X0013051Y0041151D02*
X0013059Y0041069D01*
X0013067Y0041036D01*
X0013076Y0041008D01*
X0013087Y0040985D01*
X0013101Y0040967D01*
X0013116Y0040954D01*
X0013134Y0040946D01*
X0013153Y0040944D01*
X0012647D01*
X0012666Y0040946D01*
X0012684Y0040954D01*
X0012699Y0040967D01*
X0012713Y0040985D01*
X0012724Y0041008D01*
X0012733Y0041036D01*
X0012741Y0041069D01*
X0012746Y0041108D01*
X0012749Y0041151D01*
X0012750Y0041200D01*
X0013050D01*
X0013051Y0041151D01*
D02*
G37*
G36*
X0020560Y0030552D02*
X0020591Y0030545D01*
X0020630Y0030539D01*
X0020731Y0030530D01*
X0020942Y0030522D01*
X0021122Y0030520D01*
Y0030020D01*
X0021028Y0030020D01*
X0020591Y0029995D01*
X0020560Y0029988D01*
X0020538Y0029981D01*
Y0030559D01*
X0020560Y0030552D01*
D02*
G37*
G36*
X0010156Y0040247D02*
X0010154Y0040266D01*
X0010146Y0040284D01*
X0010133Y0040299D01*
X0010115Y0040313D01*
X0010092Y0040324D01*
X0010064Y0040333D01*
X0010031Y0040341D01*
X0009992Y0040346D01*
X0009949Y0040349D01*
X0009900Y0040350D01*
Y0040650D01*
X0009949Y0040651D01*
X0010031Y0040659D01*
X0010064Y0040667D01*
X0010092Y0040676D01*
X0010115Y0040687D01*
X0010133Y0040701D01*
X0010146Y0040716D01*
X0010154Y0040734D01*
X0010156Y0040753D01*
Y0040247D01*
D02*
G37*
G36*
X0014490Y0040211D02*
X0014460Y0040231D01*
X0014428Y0040250D01*
X0014393Y0040267D01*
X0014356Y0040281D01*
X0014316Y0040293D01*
X0014274Y0040303D01*
X0014230Y0040310D01*
X0014182Y0040316D01*
X0014081Y0040320D01*
Y0040620D01*
X0014133Y0040621D01*
X0014230Y0040630D01*
X0014274Y0040637D01*
X0014316Y0040647D01*
X0014356Y0040659D01*
X0014393Y0040673D01*
X0014428Y0040690D01*
X0014460Y0040709D01*
X0014490Y0040729D01*
Y0040211D01*
D02*
G37*
G36*
X0013547Y0040742D02*
X0013556Y0040716D01*
X0013571Y0040694D01*
X0013592Y0040674D01*
X0013619Y0040658D01*
X0013653Y0040644D01*
X0013692Y0040633D01*
X0013738Y0040626D01*
X0013789Y0040621D01*
X0013847Y0040620D01*
Y0040320D01*
X0013789Y0040319D01*
X0013738Y0040314D01*
X0013692Y0040306D01*
X0013653Y0040296D01*
X0013619Y0040283D01*
X0013592Y0040266D01*
X0013571Y0040246D01*
X0013556Y0040224D01*
X0013547Y0040199D01*
X0013544Y0040170D01*
Y0040770D01*
X0013547Y0040742D01*
D02*
G37*
G36*
X0014490Y0038941D02*
X0014460Y0038961D01*
X0014428Y0038980D01*
X0014393Y0038997D01*
X0014356Y0039011D01*
X0014316Y0039023D01*
X0014274Y0039033D01*
X0014230Y0039040D01*
X0014182Y0039046D01*
X0014081Y0039050D01*
Y0039350D01*
X0014133Y0039351D01*
X0014230Y0039360D01*
X0014274Y0039367D01*
X0014316Y0039377D01*
X0014356Y0039389D01*
X0014393Y0039403D01*
X0014428Y0039420D01*
X0014460Y0039439D01*
X0014490Y0039459D01*
Y0038941D01*
D02*
G37*
G36*
X0020560Y0031822D02*
X0020591Y0031815D01*
X0020630Y0031809D01*
X0020731Y0031800D01*
X0020942Y0031792D01*
X0021122Y0031790D01*
Y0031290D01*
X0021028Y0031290D01*
X0020591Y0031265D01*
X0020560Y0031258D01*
X0020538Y0031251D01*
Y0031829D01*
X0020560Y0031822D01*
D02*
G37*
G36*
X0013890Y0031281D02*
X0013860Y0031301D01*
X0013828Y0031320D01*
X0013793Y0031337D01*
X0013756Y0031351D01*
X0013716Y0031363D01*
X0013674Y0031373D01*
X0013630Y0031380D01*
X0013582Y0031386D01*
X0013481Y0031390D01*
Y0031690D01*
X0013533Y0031691D01*
X0013630Y0031700D01*
X0013674Y0031707D01*
X0013716Y0031717D01*
X0013756Y0031729D01*
X0013793Y0031743D01*
X0013828Y0031760D01*
X0013860Y0031779D01*
X0013890Y0031799D01*
Y0031281D01*
D02*
G37*
G36*
X0011447Y0030072D02*
X0011456Y0030046D01*
X0011471Y0030024D01*
X0011492Y0030004D01*
X0011519Y0029987D01*
X0011553Y0029974D01*
X0011592Y0029963D01*
X0011638Y0029956D01*
X0011689Y0029951D01*
X0011747Y0029950D01*
Y0029650D01*
X0011689Y0029649D01*
X0011638Y0029644D01*
X0011592Y0029636D01*
X0011553Y0029626D01*
X0011519Y0029612D01*
X0011492Y0029596D01*
X0011471Y0029576D01*
X0011456Y0029554D01*
X0011447Y0029528D01*
X0011444Y0029500D01*
Y0030100D01*
X0011447Y0030072D01*
D02*
G37*
G36*
X0023962Y0049243D02*
X0023928Y0049193D01*
X0023898Y0049136D01*
X0023872Y0049071D01*
X0023850Y0049000D01*
X0023832Y0048921D01*
X0023818Y0048835D01*
X0023808Y0048742D01*
X0023800Y0048534D01*
X0022800D01*
X0022798Y0048642D01*
X0022782Y0048835D01*
X0022768Y0048921D01*
X0022750Y0049000D01*
X0022728Y0049071D01*
X0022702Y0049136D01*
X0022672Y0049193D01*
X0022638Y0049243D01*
X0022600Y0049286D01*
X0024000D01*
X0023962Y0049243D01*
D02*
G37*
G36*
X0026116Y0045798D02*
X0026493Y0045477D01*
X0026659Y0045361D01*
X0026808Y0045275D01*
X0026941Y0045219D01*
X0027059Y0045193D01*
X0027161Y0045197D01*
X0027247Y0045230D01*
X0027318Y0045294D01*
X0026066Y0043722D01*
X0026115Y0043807D01*
X0026138Y0043904D01*
X0026134Y0044014D01*
X0026103Y0044137D01*
X0026045Y0044272D01*
X0025961Y0044420D01*
X0025849Y0044580D01*
X0025712Y0044753D01*
X0025547Y0044939D01*
X0025356Y0045137D01*
X0025903Y0046004D01*
X0026116Y0045798D01*
D02*
G37*
%LPC*%
G36*
X0012750Y0008956D02*
X0012350D01*
X0012233Y0008933D01*
X0012134Y0008866D01*
X0012067Y0008767D01*
X0012044Y0008650D01*
Y0008450D01*
X0012750D01*
Y0008956D01*
D02*
G37*
G36*
X0008028Y0042250D02*
X0006750D01*
Y0041189D01*
X0006750D01*
X0007089Y0041233D01*
X0007406Y0041364D01*
X0007677Y0041573D01*
X0007886Y0041844D01*
X0008017Y0042161D01*
X0008028Y0042250D01*
D02*
G37*
G36*
X0016350Y0010956D02*
X0016150D01*
X0016033Y0010933D01*
X0015934Y0010866D01*
X0015867Y0010767D01*
X0015844Y0010650D01*
Y0010250D01*
X0016350D01*
Y0010956D01*
D02*
G37*
G36*
X0006250Y0042250D02*
X0004972D01*
X0004983Y0042161D01*
X0005114Y0041844D01*
X0005323Y0041573D01*
X0005594Y0041364D01*
X0005911Y0041233D01*
X0006250Y0041189D01*
Y0042250D01*
D02*
G37*
G36*
X0009450Y0051306D02*
X0008700D01*
X0008583Y0051283D01*
X0008484Y0051216D01*
X0008417Y0051117D01*
X0008394Y0051000D01*
Y0050250D01*
X0009450D01*
Y0051306D01*
D02*
G37*
G36*
X0011006Y0049750D02*
X0009950D01*
Y0048694D01*
X0010700D01*
X0010817Y0048717D01*
X0010916Y0048784D01*
X0010983Y0048883D01*
X0011006Y0049000D01*
Y0049750D01*
D02*
G37*
G36*
X0009450D02*
X0008394D01*
Y0049000D01*
X0008417Y0048883D01*
X0008484Y0048784D01*
X0008583Y0048717D01*
X0008700Y0048694D01*
X0009450D01*
Y0049750D01*
D02*
G37*
G36*
X0010700Y0051306D02*
X0009950D01*
Y0050250D01*
X0011006D01*
Y0051000D01*
X0010983Y0051117D01*
X0010916Y0051216D01*
X0010817Y0051283D01*
X0010700Y0051306D01*
D02*
G37*
G36*
X0013150Y0001250D02*
X0012444D01*
Y0001050D01*
X0012467Y0000933D01*
X0012534Y0000834D01*
X0012633Y0000767D01*
X0012750Y0000744D01*
X0013150D01*
Y0001250D01*
D02*
G37*
G36*
X0014356D02*
X0013650D01*
Y0000744D01*
X0014050D01*
X0014167Y0000767D01*
X0014266Y0000834D01*
X0014333Y0000933D01*
X0014356Y0001050D01*
Y0001250D01*
D02*
G37*
G36*
X0017750Y0002250D02*
X0016974D01*
X0016977Y0002226D01*
X0017083Y0001970D01*
X0017251Y0001751D01*
X0017470Y0001583D01*
X0017726Y0001477D01*
X0017750Y0001474D01*
Y0002250D01*
D02*
G37*
G36*
X0006250Y0043811D02*
X0005911Y0043767D01*
X0005594Y0043636D01*
X0005323Y0043427D01*
X0005114Y0043156D01*
X0004983Y0042839D01*
X0004972Y0042750D01*
X0006250D01*
Y0043811D01*
D02*
G37*
G36*
X0015356Y0007950D02*
X0014850D01*
Y0007244D01*
X0015050D01*
X0015167Y0007267D01*
X0015266Y0007334D01*
X0015333Y0007433D01*
X0015356Y0007550D01*
Y0007950D01*
D02*
G37*
G36*
X0012750Y0007950D02*
X0012044D01*
Y0007750D01*
X0012067Y0007633D01*
X0012134Y0007534D01*
X0012233Y0007467D01*
X0012350Y0007444D01*
X0012750D01*
Y0007950D01*
D02*
G37*
G36*
X0006750Y0043811D02*
X0006750D01*
Y0042750D01*
X0008028D01*
X0008017Y0042839D01*
X0007886Y0043156D01*
X0007677Y0043427D01*
X0007406Y0043636D01*
X0007089Y0043767D01*
X0006750Y0043811D01*
D02*
G37*
G36*
X0013550Y0043256D02*
X0013150D01*
Y0042750D01*
X0013856D01*
Y0042950D01*
X0013833Y0043067D01*
X0013766Y0043166D01*
X0013667Y0043233D01*
X0013550Y0043256D01*
D02*
G37*
G36*
X0012650D02*
X0012250D01*
X0012133Y0043233D01*
X0012034Y0043166D01*
X0011967Y0043067D01*
X0011944Y0042950D01*
Y0042750D01*
X0012650D01*
Y0043256D01*
D02*
G37*
G36*
X0010650Y0006678D02*
Y0005650D01*
X0011678D01*
X0011667Y0005739D01*
X0011536Y0006056D01*
X0011327Y0006327D01*
X0011056Y0006536D01*
X0010739Y0006667D01*
X0010650Y0006678D01*
D02*
G37*
G36*
X0011756Y0031550D02*
X0011050D01*
Y0031044D01*
X0011450D01*
X0011567Y0031067D01*
X0011666Y0031134D01*
X0011733Y0031233D01*
X0011756Y0031350D01*
Y0031550D01*
D02*
G37*
G36*
X0006950Y0028050D02*
X0006244D01*
Y0027850D01*
X0006267Y0027733D01*
X0006334Y0027634D01*
X0006433Y0027567D01*
X0006550Y0027544D01*
X0006950D01*
Y0028050D01*
D02*
G37*
G36*
X0015566Y0027480D02*
X0014750D01*
Y0027124D01*
X0015260D01*
X0015377Y0027147D01*
X0015476Y0027214D01*
X0015543Y0027313D01*
X0015566Y0027430D01*
Y0027480D01*
D02*
G37*
G36*
X0004500Y0034311D02*
X0004161Y0034267D01*
X0003844Y0034136D01*
X0003573Y0033927D01*
X0003364Y0033656D01*
X0003233Y0033339D01*
X0003189Y0033000D01*
X0003233Y0032661D01*
X0003364Y0032344D01*
X0003573Y0032073D01*
X0003844Y0031864D01*
X0004161Y0031733D01*
X0004500Y0031689D01*
X0004839Y0031733D01*
X0005156Y0031864D01*
X0005427Y0032073D01*
X0005636Y0032344D01*
X0005767Y0032661D01*
X0005811Y0033000D01*
X0005767Y0033339D01*
X0005636Y0033656D01*
X0005427Y0033927D01*
X0005156Y0034136D01*
X0004839Y0034267D01*
X0004500Y0034311D01*
D02*
G37*
G36*
X0014250Y0027480D02*
X0013434D01*
Y0027430D01*
X0013457Y0027313D01*
X0013524Y0027214D01*
X0013623Y0027147D01*
X0013740Y0027124D01*
X0014250D01*
Y0027480D01*
D02*
G37*
G36*
X0005150Y0028250D02*
X0004794D01*
Y0027950D01*
X0004817Y0027833D01*
X0004884Y0027734D01*
X0004983Y0027667D01*
X0005100Y0027644D01*
X0005150D01*
Y0028250D01*
D02*
G37*
G36*
X0005250Y0031356D02*
X0005050D01*
X0004933Y0031333D01*
X0004834Y0031266D01*
X0004767Y0031167D01*
X0004744Y0031050D01*
Y0030650D01*
X0005250D01*
Y0031356D01*
D02*
G37*
G36*
X0006256Y0030150D02*
X0005500D01*
X0004744D01*
Y0029750D01*
X0004767Y0029633D01*
X0004834Y0029534D01*
X0004933Y0029467D01*
X0004971Y0029460D01*
X0004981Y0029353D01*
X0004978Y0029329D01*
X0004884Y0029266D01*
X0004817Y0029167D01*
X0004794Y0029050D01*
Y0028750D01*
X0005400D01*
X0006006D01*
Y0029050D01*
X0005983Y0029167D01*
X0005916Y0029266D01*
X0005840Y0029317D01*
X0005856Y0029430D01*
X0005861Y0029444D01*
X0005950D01*
X0006067Y0029467D01*
X0006166Y0029534D01*
X0006233Y0029633D01*
X0006256Y0029750D01*
Y0030150D01*
D02*
G37*
G36*
X0005950Y0031356D02*
X0005750D01*
Y0030650D01*
X0006256D01*
Y0031050D01*
X0006233Y0031167D01*
X0006166Y0031266D01*
X0006067Y0031333D01*
X0005950Y0031356D01*
D02*
G37*
G36*
X0006006Y0028250D02*
X0005650D01*
Y0027644D01*
X0005700D01*
X0005817Y0027667D01*
X0005916Y0027734D01*
X0005983Y0027833D01*
X0006006Y0027950D01*
Y0028250D01*
D02*
G37*
G36*
X0006950Y0029056D02*
X0006550D01*
X0006433Y0029033D01*
X0006334Y0028966D01*
X0006267Y0028867D01*
X0006244Y0028750D01*
Y0028550D01*
X0006950D01*
Y0029056D01*
D02*
G37*
G36*
X0004250Y0013559D02*
X0004000D01*
X0003726Y0013523D01*
X0003470Y0013417D01*
X0003251Y0013249D01*
X0003083Y0013030D01*
X0002977Y0012774D01*
X0002974Y0012750D01*
X0004250D01*
Y0013559D01*
D02*
G37*
G36*
Y0012250D02*
X0002974D01*
X0002977Y0012226D01*
X0003083Y0011970D01*
X0003251Y0011751D01*
X0003470Y0011583D01*
X0003726Y0011477D01*
X0004000Y0011441D01*
X0004250D01*
Y0012250D01*
D02*
G37*
G36*
X0007956Y0011450D02*
X0007250D01*
Y0010944D01*
X0007650D01*
X0007767Y0010967D01*
X0007866Y0011034D01*
X0007933Y0011133D01*
X0007956Y0011250D01*
Y0011450D01*
D02*
G37*
G36*
X0016166Y0036410D02*
X0015350D01*
Y0036054D01*
X0015860D01*
X0015977Y0036077D01*
X0016076Y0036144D01*
X0016143Y0036243D01*
X0016166Y0036360D01*
Y0036410D01*
D02*
G37*
G36*
X0014850D02*
X0014034D01*
Y0036360D01*
X0014057Y0036243D01*
X0014124Y0036144D01*
X0014223Y0036077D01*
X0014340Y0036054D01*
X0014850D01*
Y0036410D01*
D02*
G37*
G36*
X0005000Y0021056D02*
X0003000D01*
X0002883Y0021033D01*
X0002784Y0020966D01*
X0002717Y0020867D01*
X0002694Y0020750D01*
Y0020578D01*
X0002549Y0020549D01*
X0002401Y0020449D01*
X0001676Y0019724D01*
X0001576Y0019576D01*
X0001541Y0019400D01*
Y0019256D01*
X0001350D01*
X0001233Y0019233D01*
X0001134Y0019166D01*
X0001067Y0019067D01*
X0001044Y0018950D01*
Y0018050D01*
X0001067Y0017933D01*
X0001134Y0017834D01*
X0001233Y0017767D01*
X0001350Y0017744D01*
X0002650D01*
X0002767Y0017767D01*
X0002866Y0017834D01*
X0002933Y0017933D01*
X0002956Y0018050D01*
Y0018950D01*
X0002933Y0019067D01*
X0002924Y0019080D01*
X0003000Y0019194D01*
X0003712D01*
X0003755Y0019067D01*
X0003573Y0018927D01*
X0003364Y0018656D01*
X0003233Y0018339D01*
X0003189Y0018000D01*
X0003233Y0017661D01*
X0003315Y0017464D01*
X0002998Y0017146D01*
X0002871Y0017159D01*
X0002866Y0017166D01*
X0002767Y0017233D01*
X0002650Y0017256D01*
X0001350D01*
X0001233Y0017233D01*
X0001134Y0017166D01*
X0001067Y0017067D01*
X0001044Y0016950D01*
Y0016050D01*
X0001067Y0015933D01*
X0001134Y0015834D01*
X0001233Y0015767D01*
X0001350Y0015744D01*
X0002650D01*
X0002767Y0015767D01*
X0002866Y0015834D01*
X0002933Y0015933D01*
X0002954Y0016041D01*
X0003000D01*
X0003176Y0016076D01*
X0003324Y0016176D01*
X0003964Y0016815D01*
X0004161Y0016733D01*
X0004500Y0016689D01*
X0004839Y0016733D01*
X0005156Y0016864D01*
X0005427Y0017073D01*
X0005636Y0017344D01*
X0005767Y0017661D01*
X0005811Y0018000D01*
X0005767Y0018339D01*
X0005636Y0018656D01*
X0005427Y0018927D01*
X0005187Y0019112D01*
X0005174Y0019220D01*
X0005183Y0019262D01*
X0005216Y0019284D01*
X0005283Y0019383D01*
X0005306Y0019500D01*
Y0020750D01*
X0005283Y0020867D01*
X0005216Y0020966D01*
X0005117Y0021033D01*
X0005000Y0021056D01*
D02*
G37*
G36*
X0011125Y0020036D02*
X0010025D01*
X0009810Y0019993D01*
X0009628Y0019872D01*
X0009507Y0019690D01*
X0009464Y0019475D01*
X0009507Y0019260D01*
X0009561Y0019179D01*
X0009626Y0019075D01*
X0009561Y0018971D01*
X0009507Y0018890D01*
X0009464Y0018675D01*
X0009507Y0018460D01*
X0009561Y0018379D01*
X0009626Y0018275D01*
X0009561Y0018171D01*
X0009507Y0018090D01*
X0009464Y0017875D01*
X0009507Y0017660D01*
X0009561Y0017579D01*
X0009626Y0017475D01*
X0009561Y0017371D01*
X0009507Y0017290D01*
X0009464Y0017075D01*
X0009507Y0016860D01*
X0009561Y0016779D01*
X0009626Y0016675D01*
X0009561Y0016571D01*
X0009507Y0016490D01*
X0009464Y0016275D01*
X0009507Y0016060D01*
X0009561Y0015979D01*
X0009626Y0015875D01*
X0009561Y0015771D01*
X0009507Y0015690D01*
X0009464Y0015475D01*
X0009507Y0015260D01*
X0009561Y0015179D01*
X0009626Y0015075D01*
X0009561Y0014971D01*
X0009531Y0014925D01*
X0009971D01*
X0010025Y0014914D01*
X0010575D01*
X0011125D01*
X0011179Y0014925D01*
X0011619D01*
X0011589Y0014971D01*
X0011524Y0015075D01*
X0011589Y0015179D01*
X0011643Y0015260D01*
X0011686Y0015475D01*
X0011643Y0015690D01*
X0011589Y0015771D01*
X0011524Y0015875D01*
X0011589Y0015979D01*
X0011643Y0016060D01*
X0011686Y0016275D01*
X0011643Y0016490D01*
X0011589Y0016571D01*
X0011524Y0016675D01*
X0011589Y0016779D01*
X0011643Y0016860D01*
X0011686Y0017075D01*
X0011643Y0017290D01*
X0011589Y0017371D01*
X0011524Y0017475D01*
X0011589Y0017579D01*
X0011643Y0017660D01*
X0011686Y0017875D01*
X0011643Y0018090D01*
X0011589Y0018171D01*
X0011524Y0018275D01*
X0011589Y0018379D01*
X0011643Y0018460D01*
X0011686Y0018675D01*
X0011643Y0018890D01*
X0011589Y0018971D01*
X0011524Y0019075D01*
X0011589Y0019179D01*
X0011643Y0019260D01*
X0011686Y0019475D01*
X0011643Y0019690D01*
X0011522Y0019872D01*
X0011340Y0019993D01*
X0011125Y0020036D01*
D02*
G37*
G36*
X0006750Y0038811D02*
X0006250D01*
X0005911Y0038767D01*
X0005594Y0038636D01*
X0005323Y0038427D01*
X0005114Y0038156D01*
X0004983Y0037839D01*
X0004939Y0037500D01*
X0004983Y0037161D01*
X0005114Y0036844D01*
X0005323Y0036573D01*
X0005594Y0036364D01*
X0005911Y0036233D01*
X0006250Y0036189D01*
X0006750D01*
X0007089Y0036233D01*
X0007406Y0036364D01*
X0007677Y0036573D01*
X0007886Y0036844D01*
X0008017Y0037161D01*
X0008061Y0037500D01*
X0008017Y0037839D01*
X0007886Y0038156D01*
X0007677Y0038427D01*
X0007406Y0038636D01*
X0007089Y0038767D01*
X0006750Y0038811D01*
D02*
G37*
G36*
X0022284Y0037142D02*
X0022284Y0037131D01*
X0022287Y0037133D01*
X0022284Y0037142D01*
D02*
G37*
G36*
X0022288Y0037128D02*
X0022285Y0037125D01*
X0022287Y0036921D01*
X0022333Y0036924D01*
X0022288Y0037128D01*
D02*
G37*
G36*
X0022292Y0040214D02*
X0022294Y0040018D01*
X0022458Y0039911D01*
X0022705Y0040193D01*
X0022598Y0040203D01*
X0022292Y0040214D01*
D02*
G37*
%LPD*%
D10*
X0004000Y0050000D02*
D03*
X0029000D02*
D03*
Y0004000D02*
D03*
X0004000Y0004000D02*
D03*
D11*
X0007900Y0023400D02*
D03*
X0017900D02*
D03*
X0010400Y0005400D02*
D03*
X0023300Y0050000D02*
D03*
X0004500Y0018000D02*
D03*
Y0033000D02*
D03*
D12*
X0015400Y0005400D02*
D03*
X0009700Y0050000D02*
D03*
D13*
X0009000Y0002500D02*
D03*
X0023080D02*
D03*
D14*
X0011500D02*
D03*
X0020540D02*
D03*
X0015460D02*
D03*
X0018000D02*
D03*
D15*
X0023400Y0044290D02*
D03*
Y0040480D02*
D03*
Y0036670D02*
D03*
Y0032860D02*
D03*
Y0029050D02*
D03*
Y0025240D02*
D03*
Y0021430D02*
D03*
Y0017620D02*
D03*
Y0013810D02*
D03*
Y0010000D02*
D03*
X0006500Y0042500D02*
D03*
Y0037500D02*
D03*
D16*
X0004500Y0010000D02*
D03*
Y0012500D02*
D03*
Y0015000D02*
D03*
D17*
X0003500Y0030400D02*
D03*
X0005500D02*
D03*
X0012500Y0028000D02*
D03*
X0010500D02*
D03*
X0014600Y0008200D02*
D03*
X0016600D02*
D03*
X0007000Y0021100D02*
D03*
X0009000D02*
D03*
X0020100Y0010000D02*
D03*
X0018100D02*
D03*
X0016600D02*
D03*
X0014600D02*
D03*
D18*
X0015100Y0036660D02*
D03*
X0014500Y0027730D02*
D03*
D19*
X0015100Y0037930D02*
D03*
Y0039200D02*
D03*
Y0040470D02*
D03*
X0020600Y0036660D02*
D03*
Y0037930D02*
D03*
Y0039200D02*
D03*
Y0040470D02*
D03*
X0014500Y0029000D02*
D03*
Y0030270D02*
D03*
Y0031540D02*
D03*
X0020000Y0027730D02*
D03*
Y0029000D02*
D03*
Y0030270D02*
D03*
Y0031540D02*
D03*
D20*
X0012900Y0042500D02*
D03*
Y0040500D02*
D03*
X0010800Y0040500D02*
D03*
Y0042500D02*
D03*
X0012900Y0038900D02*
D03*
Y0036900D02*
D03*
X0010800D02*
D03*
Y0038900D02*
D03*
X0012900Y0035300D02*
D03*
Y0033300D02*
D03*
X0010800D02*
D03*
Y0035300D02*
D03*
Y0031800D02*
D03*
Y0029800D02*
D03*
X0002000Y0016500D02*
D03*
Y0018500D02*
D03*
X0013400Y0001500D02*
D03*
Y0003500D02*
D03*
X0007000Y0009700D02*
D03*
Y0011700D02*
D03*
Y0015300D02*
D03*
Y0013300D02*
D03*
X0007200Y0028300D02*
D03*
Y0026300D02*
D03*
X0007000Y0018700D02*
D03*
Y0016700D02*
D03*
X0013000Y0010200D02*
D03*
Y0008200D02*
D03*
D21*
X0019450Y0013875D02*
D03*
Y0014675D02*
D03*
Y0015475D02*
D03*
Y0016275D02*
D03*
Y0017075D02*
D03*
Y0017875D02*
D03*
Y0018675D02*
D03*
Y0019475D02*
D03*
X0010575Y0019475D02*
D03*
Y0018675D02*
D03*
Y0017875D02*
D03*
Y0017075D02*
D03*
Y0016275D02*
D03*
Y0015475D02*
D03*
Y0014675D02*
D03*
Y0013875D02*
D03*
D22*
X0017800Y0021100D02*
D03*
X0017000D02*
D03*
X0016200D02*
D03*
X0015400D02*
D03*
X0014600D02*
D03*
X0013800D02*
D03*
X0013000D02*
D03*
X0012200D02*
D03*
Y0012250D02*
D03*
X0013000D02*
D03*
X0013800D02*
D03*
X0014600D02*
D03*
X0015400D02*
D03*
X0016200D02*
D03*
X0017000D02*
D03*
D23*
X0017800D02*
D03*
D24*
X0023400Y0006900D02*
D03*
X0019000D02*
D03*
D25*
X0026900Y0021500D02*
D03*
Y0017100D02*
D03*
Y0029100D02*
D03*
Y0024700D02*
D03*
Y0036700D02*
D03*
Y0032300D02*
D03*
Y0039900D02*
D03*
Y0044300D02*
D03*
D26*
X0003500Y0028500D02*
D03*
X0005400D02*
D03*
X0004450Y0026200D02*
D03*
D27*
X0004000Y0020125D02*
D03*
Y0023875D02*
D03*
D28*
X0023400Y0013810D02*
X0029500Y0019910D01*
Y0032300D02*
Y0041700D01*
Y0024700D02*
Y0032300D01*
X0029500Y0032300D02*
X0029500Y0032300D01*
X0026900Y0032300D02*
X0029500D01*
X0029500Y0019910D02*
Y0024700D01*
X0029500Y0024700D02*
X0029500Y0024700D01*
X0026900Y0024700D02*
X0029500D01*
X0026900Y0044300D02*
X0029500Y0041700D01*
X0023300Y0047900D02*
X0026900Y0044300D01*
X0023370Y0025270D02*
X0023400Y0025240D01*
X0023390Y0036660D02*
X0023400Y0036670D01*
X0023390Y0040470D02*
X0023400Y0040480D01*
X0023300Y0047900D02*
Y0050000D01*
D29*
X0003000Y0016500D02*
X0004500Y0018000D01*
X0002000Y0016500D02*
X0003000D01*
X0002000Y0019400D02*
X0002725Y0020125D01*
X0002000Y0018500D02*
Y0019400D01*
X0004500Y0010000D02*
X0007800D01*
X0015400Y0021100D02*
Y0022212D01*
X0012500Y0025112D02*
X0015400Y0022212D01*
X0012500Y0025112D02*
Y0028000D01*
X0014600Y0021100D02*
Y0022164D01*
X0009600Y0027164D02*
X0014600Y0022164D01*
X0013800Y0021100D02*
Y0022115D01*
X0009000Y0026915D02*
X0013800Y0022115D01*
X0013000Y0021100D02*
Y0022067D01*
X0008400Y0026667D02*
X0013000Y0022067D01*
X0009600Y0027164D02*
Y0032900D01*
X0008400Y0026667D02*
Y0033449D01*
X0009000Y0026915D02*
Y0033200D01*
X0004500Y0015000D02*
X0007000D01*
Y0018700D02*
Y0021100D01*
X0006400D02*
X0007000D01*
X0013400Y0002900D02*
Y0003500D01*
X0013000Y0002500D02*
X0013400Y0002900D01*
X0011500Y0002500D02*
X0013000D01*
X0012900Y0005400D02*
X0015400D01*
X0011300Y0003800D02*
X0012900Y0005400D01*
X0009700Y0003800D02*
X0011300D01*
X0008700Y0004800D02*
X0009700Y0003800D01*
X0008700Y0004800D02*
Y0009100D01*
X0019800Y0001300D02*
X0021880D01*
X0019300Y0001800D02*
X0019800Y0001300D01*
X0019300Y0001800D02*
Y0003200D01*
X0021880Y0001300D02*
X0023080Y0002500D01*
X0012900Y0038900D02*
X0013200Y0039200D01*
X0015100D01*
X0007000Y0015000D02*
Y0015300D01*
Y0014800D02*
Y0015000D01*
Y0014800D02*
X0007500Y0014300D01*
X0008500D01*
X0008925Y0013875D01*
X0010575D01*
X0013000D01*
X0013000Y0012250D02*
Y0013875D01*
X0013000Y0013875D01*
X0013800D01*
X0007000Y0015300D02*
Y0016700D01*
X0013000Y0010200D02*
X0013000Y0010200D01*
X0013000Y0010200D02*
Y0012250D01*
X0007800Y0010000D02*
X0008700Y0009100D01*
X0020100Y0009351D02*
Y0010000D01*
X0021200Y0005100D02*
Y0008251D01*
X0019300Y0003200D02*
X0021200Y0005100D01*
X0020600Y0005900D02*
Y0008000D01*
X0018500Y0003800D02*
X0020600Y0005900D01*
X0016760Y0003800D02*
X0018500D01*
X0020100Y0009351D02*
X0021200Y0008251D01*
X0021800Y0003760D02*
Y0008500D01*
X0021400Y0008900D02*
X0021800Y0008500D01*
X0021400Y0008900D02*
Y0018100D01*
X0020825Y0018675D02*
X0021400Y0018100D01*
X0020540Y0002500D02*
X0021800Y0003760D01*
X0020200Y0008400D02*
X0020600Y0008000D01*
X0013800Y0013875D02*
X0017861D01*
X0020100Y0011636D01*
Y0010000D02*
Y0011636D01*
X0018100Y0010000D02*
Y0010900D01*
X0017800Y0011200D02*
X0018100Y0010900D01*
X0017800Y0011200D02*
Y0012250D01*
X0018100Y0008400D02*
X0020200D01*
X0016800D02*
X0018100D01*
Y0010000D01*
X0016600Y0008200D02*
X0016800Y0008400D01*
X0015460Y0002500D02*
X0016760Y0003800D01*
X0019450Y0018675D02*
X0020825D01*
X0013800Y0012250D02*
Y0013875D01*
X0014600Y0010000D02*
Y0012250D01*
X0009900Y0040500D02*
X0010800D01*
X0009700Y0040300D02*
X0009900Y0040500D01*
X0009700Y0037600D02*
Y0040300D01*
X0009100Y0037000D02*
X0009700Y0037600D01*
X0009100Y0034149D02*
Y0037000D01*
X0011070Y0037930D02*
X0012900D01*
X0010800Y0038200D02*
X0011070Y0037930D01*
X0010800Y0038200D02*
Y0038900D01*
X0008400Y0033449D02*
X0009100Y0034149D01*
X0009900Y0036900D02*
X0010800D01*
X0009700Y0036700D02*
X0009900Y0036900D01*
X0009700Y0033900D02*
Y0036700D01*
X0009000Y0033200D02*
X0009700Y0033900D01*
X0010000Y0033300D02*
X0010800D01*
X0009600Y0032900D02*
X0010000Y0033300D01*
X0010500Y0029500D02*
X0010800Y0029800D01*
X0010500Y0028000D02*
Y0029500D01*
X0010800Y0029800D02*
X0012700D01*
X0013500Y0029000D01*
X0014500D01*
X0010800Y0034600D02*
Y0035300D01*
Y0034600D02*
X0011100Y0034300D01*
X0012600D01*
X0012900Y0034000D01*
Y0033300D02*
Y0034000D01*
Y0031900D02*
Y0033300D01*
Y0031900D02*
X0013260Y0031540D01*
X0014500D01*
X0012900Y0037930D02*
X0015100D01*
X0012900Y0036900D02*
Y0037930D01*
X0010800Y0041700D02*
Y0042500D01*
Y0041700D02*
X0011100Y0041400D01*
X0012700D01*
X0012900Y0041200D01*
Y0040500D02*
Y0041200D01*
Y0040500D02*
X0012930Y0040470D01*
X0015100D01*
X0009000Y0021100D02*
X0012200D01*
X0009000D02*
Y0022300D01*
X0009400Y0022700D01*
Y0024100D01*
X0007200Y0026300D02*
X0009400Y0024100D01*
X0005300Y0013300D02*
X0007000D01*
X0004500Y0012500D02*
X0005300Y0013300D01*
X0005300Y0011700D02*
X0007000D01*
X0004500Y0012500D02*
X0005300Y0011700D01*
X0003500Y0028500D02*
Y0030400D01*
X0006000Y0021500D02*
X0006400Y0021100D01*
X0006000Y0021500D02*
Y0025300D01*
X0005100Y0026200D02*
X0006000Y0025300D01*
X0004450Y0026200D02*
X0005100D01*
X0003500Y0025300D02*
Y0028500D01*
Y0025300D02*
X0004000Y0024800D01*
Y0023875D02*
Y0024800D01*
X0002725Y0020125D02*
X0004000D01*
D30*
X0020600Y0037900D02*
X0022170D01*
X0017500Y0005400D02*
X0019000Y0006900D01*
X0015400Y0005400D02*
X0017500D01*
X0023400Y0006900D02*
Y0010000D01*
X0020000Y0026000D02*
X0021600Y0027600D01*
Y0028500D01*
X0021100Y0029000D02*
X0021600Y0028500D01*
X0020000Y0029000D02*
X0021100D01*
X0020000Y0026000D02*
Y0027730D01*
X0022180Y0030270D02*
X0023400Y0029050D01*
X0020000Y0030270D02*
X0022180D01*
X0023400Y0029050D02*
Y0030200D01*
X0022060Y0031540D02*
X0023400Y0030200D01*
X0020000Y0031540D02*
X0022060D01*
X0020600Y0036660D02*
X0023390D01*
X0022120Y0039200D02*
X0023390Y0040470D01*
X0020600Y0039200D02*
X0022120D01*
X0020600Y0040470D02*
X0023390D01*
X0022170Y0037900D02*
X0023400Y0036670D01*
D31*
Y0010000D02*
Y0013810D01*
X0020000Y0024830D02*
Y0026000D01*
Y0024830D02*
X0023400Y0021430D01*
Y0040480D02*
X0023980Y0039900D01*
X0026900D01*
X0023400Y0017620D02*
Y0021430D01*
X0023470Y0021500D01*
X0026900D01*
X0023400Y0025240D02*
Y0029050D01*
X0023450Y0029100D01*
X0026900D01*
X0023400Y0032860D02*
Y0036670D01*
X0023430Y0036700D01*
X0026900D01*
X0023400Y0040480D02*
Y0044290D01*
X0023410Y0044300D01*
M02*
